<svg width="407" height="80" viewBox="0 0 407 80" fill="none" xmlns="http://www.w3.org/2000/svg">
<path d="M57.9414 73.1094L53.5586 75.7402V74.8789L57.0742 72.7871L53.5586 70.6426V69.7988L57.9414 72.4062V73.1094ZM71.1484 73.1094L66.7656 75.7402V74.8789L70.2812 72.7871L66.7656 70.6426V69.7988L71.1484 72.4062V73.1094ZM84.3555 73.1094L79.9727 75.7402V74.8789L83.4883 72.7871L79.9727 70.6426V69.7988L84.3555 72.4062V73.1094ZM97.5625 73.1094L93.1797 75.7402V74.8789L96.6953 72.7871L93.1797 70.6426V69.7988L97.5625 72.4062V73.1094ZM110.77 73.1094L106.387 75.7402V74.8789L109.902 72.7871L106.387 70.6426V69.7988L110.77 72.4062V73.1094ZM123.977 73.1094L119.594 75.7402V74.8789L123.109 72.7871L119.594 70.6426V69.7988L123.977 72.4062V73.1094ZM137.184 73.1094L132.801 75.7402V74.8789L136.316 72.7871L132.801 70.6426V69.7988L137.184 72.4062V73.1094ZM150.391 73.1094L146.008 75.7402V74.8789L149.523 72.7871L146.008 70.6426V69.7988L150.391 72.4062V73.1094ZM163.598 73.1094L159.215 75.7402V74.8789L162.73 72.7871L159.215 70.6426V69.7988L163.598 72.4062V73.1094ZM176.805 73.1094L172.422 75.7402V74.8789L175.938 72.7871L172.422 70.6426V69.7988L176.805 72.4062V73.1094ZM190.012 73.1094L185.629 75.7402V74.8789L189.145 72.7871L185.629 70.6426V69.7988L190.012 72.4062V73.1094ZM203.219 73.1094L198.836 75.7402V74.8789L202.352 72.7871L198.836 70.6426V69.7988L203.219 72.4062V73.1094ZM216.426 73.1094L212.043 75.7402V74.8789L215.559 72.7871L212.043 70.6426V69.7988L216.426 72.4062V73.1094ZM229.633 73.1094L225.25 75.7402V74.8789L228.766 72.7871L225.25 70.6426V69.7988L229.633 72.4062V73.1094ZM242.84 73.1094L238.457 75.7402V74.8789L241.973 72.7871L238.457 70.6426V69.7988L242.84 72.4062V73.1094ZM256.047 73.1094L251.664 75.7402V74.8789L255.18 72.7871L251.664 70.6426V69.7988L256.047 72.4062V73.1094ZM269.254 73.1094L264.871 75.7402V74.8789L268.387 72.7871L264.871 70.6426V69.7988L269.254 72.4062V73.1094ZM282.461 73.1094L278.078 75.7402V74.8789L281.594 72.7871L278.078 70.6426V69.7988L282.461 72.4062V73.1094ZM295.668 73.1094L291.285 75.7402V74.8789L294.801 72.7871L291.285 70.6426V69.7988L295.668 72.4062V73.1094ZM308.875 73.1094L304.492 75.7402V74.8789L308.008 72.7871L304.492 70.6426V69.7988L308.875 72.4062V73.1094ZM322.082 73.1094L317.699 75.7402V74.8789L321.215 72.7871L317.699 70.6426V69.7988L322.082 72.4062V73.1094ZM335.289 73.1094L330.906 75.7402V74.8789L334.422 72.7871L330.906 70.6426V69.7988L335.289 72.4062V73.1094ZM348.496 73.1094L344.113 75.7402V74.8789L347.629 72.7871L344.113 70.6426V69.7988L348.496 72.4062V73.1094Z" fill="#3BFFCF"/>
<path d="M85.5625 31.6582C85.7695 31.6582 85.9434 31.7285 86.084 31.8691C86.2246 32.0098 86.2949 32.1836 86.2949 32.3906C86.2949 32.6016 86.2227 32.7832 86.0781 32.9355C85.9375 33.084 85.7656 33.1582 85.5625 33.1582C85.3633 33.1582 85.1934 33.084 85.0527 32.9355C84.9121 32.7832 84.8418 32.6016 84.8418 32.3906C84.8418 32.1797 84.9102 32.0059 85.0469 31.8691C85.1875 31.7285 85.3594 31.6582 85.5625 31.6582ZM98.7695 31.6582C98.9766 31.6582 99.1504 31.7285 99.291 31.8691C99.4316 32.0098 99.502 32.1836 99.502 32.3906C99.502 32.6016 99.4297 32.7832 99.2852 32.9355C99.1445 33.084 98.9727 33.1582 98.7695 33.1582C98.5703 33.1582 98.4004 33.084 98.2598 32.9355C98.1191 32.7832 98.0488 32.6016 98.0488 32.3906C98.0488 32.1797 98.1172 32.0059 98.2539 31.8691C98.3945 31.7285 98.5664 31.6582 98.7695 31.6582ZM111.977 31.6582C112.184 31.6582 112.357 31.7285 112.498 31.8691C112.639 32.0098 112.709 32.1836 112.709 32.3906C112.709 32.6016 112.637 32.7832 112.492 32.9355C112.352 33.084 112.18 33.1582 111.977 33.1582C111.777 33.1582 111.607 33.084 111.467 32.9355C111.326 32.7832 111.256 32.6016 111.256 32.3906C111.256 32.1797 111.324 32.0059 111.461 31.8691C111.602 31.7285 111.773 31.6582 111.977 31.6582ZM125.184 31.6582C125.391 31.6582 125.564 31.7285 125.705 31.8691C125.846 32.0098 125.916 32.1836 125.916 32.3906C125.916 32.6016 125.844 32.7832 125.699 32.9355C125.559 33.084 125.387 33.1582 125.184 33.1582C124.984 33.1582 124.814 33.084 124.674 32.9355C124.533 32.7832 124.463 32.6016 124.463 32.3906C124.463 32.1797 124.531 32.0059 124.668 31.8691C124.809 31.7285 124.98 31.6582 125.184 31.6582ZM138.391 31.6582C138.598 31.6582 138.771 31.7285 138.912 31.8691C139.053 32.0098 139.123 32.1836 139.123 32.3906C139.123 32.6016 139.051 32.7832 138.906 32.9355C138.766 33.084 138.594 33.1582 138.391 33.1582C138.191 33.1582 138.021 33.084 137.881 32.9355C137.74 32.7832 137.67 32.6016 137.67 32.3906C137.67 32.1797 137.738 32.0059 137.875 31.8691C138.016 31.7285 138.188 31.6582 138.391 31.6582ZM151.598 31.6582C151.805 31.6582 151.979 31.7285 152.119 31.8691C152.26 32.0098 152.33 32.1836 152.33 32.3906C152.33 32.6016 152.258 32.7832 152.113 32.9355C151.973 33.084 151.801 33.1582 151.598 33.1582C151.398 33.1582 151.229 33.084 151.088 32.9355C150.947 32.7832 150.877 32.6016 150.877 32.3906C150.877 32.1797 150.945 32.0059 151.082 31.8691C151.223 31.7285 151.395 31.6582 151.598 31.6582ZM164.805 31.6582C165.012 31.6582 165.186 31.7285 165.326 31.8691C165.467 32.0098 165.537 32.1836 165.537 32.3906C165.537 32.6016 165.465 32.7832 165.32 32.9355C165.18 33.084 165.008 33.1582 164.805 33.1582C164.605 33.1582 164.436 33.084 164.295 32.9355C164.154 32.7832 164.084 32.6016 164.084 32.3906C164.084 32.1797 164.152 32.0059 164.289 31.8691C164.43 31.7285 164.602 31.6582 164.805 31.6582ZM178.012 31.6582C178.219 31.6582 178.393 31.7285 178.533 31.8691C178.674 32.0098 178.744 32.1836 178.744 32.3906C178.744 32.6016 178.672 32.7832 178.527 32.9355C178.387 33.084 178.215 33.1582 178.012 33.1582C177.812 33.1582 177.643 33.084 177.502 32.9355C177.361 32.7832 177.291 32.6016 177.291 32.3906C177.291 32.1797 177.359 32.0059 177.496 31.8691C177.637 31.7285 177.809 31.6582 178.012 31.6582ZM191.219 31.6582C191.426 31.6582 191.6 31.7285 191.74 31.8691C191.881 32.0098 191.951 32.1836 191.951 32.3906C191.951 32.6016 191.879 32.7832 191.734 32.9355C191.594 33.084 191.422 33.1582 191.219 33.1582C191.02 33.1582 190.85 33.084 190.709 32.9355C190.568 32.7832 190.498 32.6016 190.498 32.3906C190.498 32.1797 190.566 32.0059 190.703 31.8691C190.844 31.7285 191.016 31.6582 191.219 31.6582ZM204.426 31.6582C204.633 31.6582 204.807 31.7285 204.947 31.8691C205.088 32.0098 205.158 32.1836 205.158 32.3906C205.158 32.6016 205.086 32.7832 204.941 32.9355C204.801 33.084 204.629 33.1582 204.426 33.1582C204.227 33.1582 204.057 33.084 203.916 32.9355C203.775 32.7832 203.705 32.6016 203.705 32.3906C203.705 32.1797 203.773 32.0059 203.91 31.8691C204.051 31.7285 204.223 31.6582 204.426 31.6582ZM217.633 31.6582C217.84 31.6582 218.014 31.7285 218.154 31.8691C218.295 32.0098 218.365 32.1836 218.365 32.3906C218.365 32.6016 218.293 32.7832 218.148 32.9355C218.008 33.084 217.836 33.1582 217.633 33.1582C217.434 33.1582 217.264 33.084 217.123 32.9355C216.982 32.7832 216.912 32.6016 216.912 32.3906C216.912 32.1797 216.98 32.0059 217.117 31.8691C217.258 31.7285 217.43 31.6582 217.633 31.6582ZM230.863 24.5742C231.738 24.5742 232.41 24.9512 232.879 25.7051C233.352 26.4551 233.588 27.5098 233.588 28.8691C233.588 30.1855 233.359 31.2305 232.902 32.0039C232.445 32.7734 231.766 33.1582 230.863 33.1582C229.992 33.1582 229.32 32.7832 228.848 32.0332C228.375 31.2832 228.139 30.2285 228.139 28.8691C228.139 27.5488 228.367 26.5039 228.824 25.7344C229.285 24.9609 229.965 24.5742 230.863 24.5742ZM230.863 32.3145C231.441 32.3145 231.869 32.041 232.146 31.4941C232.428 30.9434 232.568 30.0684 232.568 28.8691C232.568 27.666 232.428 26.793 232.146 26.25C231.869 25.7031 231.441 25.4297 230.863 25.4297C230.293 25.4297 229.867 25.709 229.586 26.2676C229.305 26.8262 229.164 27.6934 229.164 28.8691C229.164 30.0605 229.303 30.9336 229.58 31.4883C229.861 32.0391 230.289 32.3145 230.863 32.3145ZM230.84 27.9902C231.086 27.9902 231.293 28.0762 231.461 28.248C231.633 28.416 231.719 28.623 231.719 28.8691C231.719 29.123 231.633 29.3418 231.461 29.5254C231.289 29.7051 231.082 29.7949 230.84 29.7949C230.602 29.7949 230.396 29.7051 230.225 29.5254C230.057 29.3418 229.973 29.123 229.973 28.8691C229.973 28.6191 230.055 28.4102 230.219 28.2422C230.387 28.0742 230.594 27.9902 230.84 27.9902ZM244.07 24.5742C244.945 24.5742 245.617 24.9512 246.086 25.7051C246.559 26.4551 246.795 27.5098 246.795 28.8691C246.795 30.1855 246.566 31.2305 246.109 32.0039C245.652 32.7734 244.973 33.1582 244.07 33.1582C243.199 33.1582 242.527 32.7832 242.055 32.0332C241.582 31.2832 241.346 30.2285 241.346 28.8691C241.346 27.5488 241.574 26.5039 242.031 25.7344C242.492 24.9609 243.172 24.5742 244.07 24.5742ZM244.07 32.3145C244.648 32.3145 245.076 32.041 245.354 31.4941C245.635 30.9434 245.775 30.0684 245.775 28.8691C245.775 27.666 245.635 26.793 245.354 26.25C245.076 25.7031 244.648 25.4297 244.07 25.4297C243.5 25.4297 243.074 25.709 242.793 26.2676C242.512 26.8262 242.371 27.6934 242.371 28.8691C242.371 30.0605 242.51 30.9336 242.787 31.4883C243.068 32.0391 243.496 32.3145 244.07 32.3145ZM244.047 27.9902C244.293 27.9902 244.5 28.0762 244.668 28.248C244.84 28.416 244.926 28.623 244.926 28.8691C244.926 29.123 244.84 29.3418 244.668 29.5254C244.496 29.7051 244.289 29.7949 244.047 29.7949C243.809 29.7949 243.604 29.7051 243.432 29.5254C243.264 29.3418 243.18 29.123 243.18 28.8691C243.18 28.6191 243.262 28.4102 243.426 28.2422C243.594 28.0742 243.801 27.9902 244.047 27.9902ZM257.277 24.5742C258.152 24.5742 258.824 24.9512 259.293 25.7051C259.766 26.4551 260.002 27.5098 260.002 28.8691C260.002 30.1855 259.773 31.2305 259.316 32.0039C258.859 32.7734 258.18 33.1582 257.277 33.1582C256.406 33.1582 255.734 32.7832 255.262 32.0332C254.789 31.2832 254.553 30.2285 254.553 28.8691C254.553 27.5488 254.781 26.5039 255.238 25.7344C255.699 24.9609 256.379 24.5742 257.277 24.5742ZM257.277 32.3145C257.855 32.3145 258.283 32.041 258.561 31.4941C258.842 30.9434 258.982 30.0684 258.982 28.8691C258.982 27.666 258.842 26.793 258.561 26.25C258.283 25.7031 257.855 25.4297 257.277 25.4297C256.707 25.4297 256.281 25.709 256 26.2676C255.719 26.8262 255.578 27.6934 255.578 28.8691C255.578 30.0605 255.717 30.9336 255.994 31.4883C256.275 32.0391 256.703 32.3145 257.277 32.3145ZM257.254 27.9902C257.5 27.9902 257.707 28.0762 257.875 28.248C258.047 28.416 258.133 28.623 258.133 28.8691C258.133 29.123 258.047 29.3418 257.875 29.5254C257.703 29.7051 257.496 29.7949 257.254 29.7949C257.016 29.7949 256.811 29.7051 256.639 29.5254C256.471 29.3418 256.387 29.123 256.387 28.8691C256.387 28.6191 256.469 28.4102 256.633 28.2422C256.801 28.0742 257.008 27.9902 257.254 27.9902ZM270.484 24.5742C271.359 24.5742 272.031 24.9512 272.5 25.7051C272.973 26.4551 273.209 27.5098 273.209 28.8691C273.209 30.1855 272.98 31.2305 272.523 32.0039C272.066 32.7734 271.387 33.1582 270.484 33.1582C269.613 33.1582 268.941 32.7832 268.469 32.0332C267.996 31.2832 267.76 30.2285 267.76 28.8691C267.76 27.5488 267.988 26.5039 268.445 25.7344C268.906 24.9609 269.586 24.5742 270.484 24.5742ZM270.484 32.3145C271.062 32.3145 271.49 32.041 271.768 31.4941C272.049 30.9434 272.189 30.0684 272.189 28.8691C272.189 27.666 272.049 26.793 271.768 26.25C271.49 25.7031 271.062 25.4297 270.484 25.4297C269.914 25.4297 269.488 25.709 269.207 26.2676C268.926 26.8262 268.785 27.6934 268.785 28.8691C268.785 30.0605 268.924 30.9336 269.201 31.4883C269.482 32.0391 269.91 32.3145 270.484 32.3145ZM270.461 27.9902C270.707 27.9902 270.914 28.0762 271.082 28.248C271.254 28.416 271.34 28.623 271.34 28.8691C271.34 29.123 271.254 29.3418 271.082 29.5254C270.91 29.7051 270.703 29.7949 270.461 29.7949C270.223 29.7949 270.018 29.7051 269.846 29.5254C269.678 29.3418 269.594 29.123 269.594 28.8691C269.594 28.6191 269.676 28.4102 269.84 28.2422C270.008 28.0742 270.215 27.9902 270.461 27.9902ZM283.691 24.5742C284.566 24.5742 285.238 24.9512 285.707 25.7051C286.18 26.4551 286.416 27.5098 286.416 28.8691C286.416 30.1855 286.188 31.2305 285.73 32.0039C285.273 32.7734 284.594 33.1582 283.691 33.1582C282.82 33.1582 282.148 32.7832 281.676 32.0332C281.203 31.2832 280.967 30.2285 280.967 28.8691C280.967 27.5488 281.195 26.5039 281.652 25.7344C282.113 24.9609 282.793 24.5742 283.691 24.5742ZM283.691 32.3145C284.27 32.3145 284.697 32.041 284.975 31.4941C285.256 30.9434 285.396 30.0684 285.396 28.8691C285.396 27.666 285.256 26.793 284.975 26.25C284.697 25.7031 284.27 25.4297 283.691 25.4297C283.121 25.4297 282.695 25.709 282.414 26.2676C282.133 26.8262 281.992 27.6934 281.992 28.8691C281.992 30.0605 282.131 30.9336 282.408 31.4883C282.689 32.0391 283.117 32.3145 283.691 32.3145ZM283.668 27.9902C283.914 27.9902 284.121 28.0762 284.289 28.248C284.461 28.416 284.547 28.623 284.547 28.8691C284.547 29.123 284.461 29.3418 284.289 29.5254C284.117 29.7051 283.91 29.7949 283.668 29.7949C283.43 29.7949 283.225 29.7051 283.053 29.5254C282.885 29.3418 282.801 29.123 282.801 28.8691C282.801 28.6191 282.883 28.4102 283.047 28.2422C283.215 28.0742 283.422 27.9902 283.668 27.9902ZM296.898 24.5742C297.773 24.5742 298.445 24.9512 298.914 25.7051C299.387 26.4551 299.623 27.5098 299.623 28.8691C299.623 30.1855 299.395 31.2305 298.938 32.0039C298.48 32.7734 297.801 33.1582 296.898 33.1582C296.027 33.1582 295.355 32.7832 294.883 32.0332C294.41 31.2832 294.174 30.2285 294.174 28.8691C294.174 27.5488 294.402 26.5039 294.859 25.7344C295.32 24.9609 296 24.5742 296.898 24.5742ZM296.898 32.3145C297.477 32.3145 297.904 32.041 298.182 31.4941C298.463 30.9434 298.604 30.0684 298.604 28.8691C298.604 27.666 298.463 26.793 298.182 26.25C297.904 25.7031 297.477 25.4297 296.898 25.4297C296.328 25.4297 295.902 25.709 295.621 26.2676C295.34 26.8262 295.199 27.6934 295.199 28.8691C295.199 30.0605 295.338 30.9336 295.615 31.4883C295.896 32.0391 296.324 32.3145 296.898 32.3145ZM296.875 27.9902C297.121 27.9902 297.328 28.0762 297.496 28.248C297.668 28.416 297.754 28.623 297.754 28.8691C297.754 29.123 297.668 29.3418 297.496 29.5254C297.324 29.7051 297.117 29.7949 296.875 29.7949C296.637 29.7949 296.432 29.7051 296.26 29.5254C296.092 29.3418 296.008 29.123 296.008 28.8691C296.008 28.6191 296.09 28.4102 296.254 28.2422C296.422 28.0742 296.629 27.9902 296.875 27.9902ZM310.105 24.5742C310.98 24.5742 311.652 24.9512 312.121 25.7051C312.594 26.4551 312.83 27.5098 312.83 28.8691C312.83 30.1855 312.602 31.2305 312.145 32.0039C311.688 32.7734 311.008 33.1582 310.105 33.1582C309.234 33.1582 308.562 32.7832 308.09 32.0332C307.617 31.2832 307.381 30.2285 307.381 28.8691C307.381 27.5488 307.609 26.5039 308.066 25.7344C308.527 24.9609 309.207 24.5742 310.105 24.5742ZM310.105 32.3145C310.684 32.3145 311.111 32.041 311.389 31.4941C311.67 30.9434 311.811 30.0684 311.811 28.8691C311.811 27.666 311.67 26.793 311.389 26.25C311.111 25.7031 310.684 25.4297 310.105 25.4297C309.535 25.4297 309.109 25.709 308.828 26.2676C308.547 26.8262 308.406 27.6934 308.406 28.8691C308.406 30.0605 308.545 30.9336 308.822 31.4883C309.104 32.0391 309.531 32.3145 310.105 32.3145ZM310.082 27.9902C310.328 27.9902 310.535 28.0762 310.703 28.248C310.875 28.416 310.961 28.623 310.961 28.8691C310.961 29.123 310.875 29.3418 310.703 29.5254C310.531 29.7051 310.324 29.7949 310.082 29.7949C309.844 29.7949 309.639 29.7051 309.467 29.5254C309.299 29.3418 309.215 29.123 309.215 28.8691C309.215 28.6191 309.297 28.4102 309.461 28.2422C309.629 28.0742 309.836 27.9902 310.082 27.9902ZM323.336 33.1582C323.133 33.1348 322.965 33.0508 322.832 32.9062C322.699 32.7617 322.633 32.5977 322.633 32.4141C322.633 32.2148 322.697 32.0469 322.826 31.9102C322.955 31.7734 323.117 31.7051 323.312 31.7051C323.531 31.7051 323.721 31.7949 323.881 31.9746C324.041 32.1504 324.121 32.3633 324.121 32.6133C324.121 33.3789 323.695 33.9766 322.844 34.4062L322.621 33.9844C323.098 33.75 323.336 33.4746 323.336 33.1582ZM336.543 33.1582C336.34 33.1348 336.172 33.0508 336.039 32.9062C335.906 32.7617 335.84 32.5977 335.84 32.4141C335.84 32.2148 335.904 32.0469 336.033 31.9102C336.162 31.7734 336.324 31.7051 336.52 31.7051C336.738 31.7051 336.928 31.7949 337.088 31.9746C337.248 32.1504 337.328 32.3633 337.328 32.6133C337.328 33.3789 336.902 33.9766 336.051 34.4062L335.828 33.9844C336.305 33.75 336.543 33.4746 336.543 33.1582ZM349.703 31.6582C349.91 31.6582 350.084 31.7285 350.225 31.8691C350.365 32.0098 350.436 32.1836 350.436 32.3906C350.436 32.6016 350.363 32.7832 350.219 32.9355C350.078 33.084 349.906 33.1582 349.703 33.1582C349.504 33.1582 349.334 33.084 349.193 32.9355C349.053 32.7832 348.982 32.6016 348.982 32.3906C348.982 32.1797 349.051 32.0059 349.188 31.8691C349.328 31.7285 349.5 31.6582 349.703 31.6582ZM362.91 31.6582C363.117 31.6582 363.291 31.7285 363.432 31.8691C363.572 32.0098 363.643 32.1836 363.643 32.3906C363.643 32.6016 363.57 32.7832 363.426 32.9355C363.285 33.084 363.113 33.1582 362.91 33.1582C362.711 33.1582 362.541 33.084 362.4 32.9355C362.26 32.7832 362.189 32.6016 362.189 32.3906C362.189 32.1797 362.258 32.0059 362.395 31.8691C362.535 31.7285 362.707 31.6582 362.91 31.6582ZM376.117 31.6582C376.324 31.6582 376.498 31.7285 376.639 31.8691C376.779 32.0098 376.85 32.1836 376.85 32.3906C376.85 32.6016 376.777 32.7832 376.633 32.9355C376.492 33.084 376.32 33.1582 376.117 33.1582C375.918 33.1582 375.748 33.084 375.607 32.9355C375.467 32.7832 375.396 32.6016 375.396 32.3906C375.396 32.1797 375.465 32.0059 375.602 31.8691C375.742 31.7285 375.914 31.6582 376.117 31.6582ZM389.324 31.6582C389.531 31.6582 389.705 31.7285 389.846 31.8691C389.986 32.0098 390.057 32.1836 390.057 32.3906C390.057 32.6016 389.984 32.7832 389.84 32.9355C389.699 33.084 389.527 33.1582 389.324 33.1582C389.125 33.1582 388.955 33.084 388.814 32.9355C388.674 32.7832 388.604 32.6016 388.604 32.3906C388.604 32.1797 388.672 32.0059 388.809 31.8691C388.949 31.7285 389.121 31.6582 389.324 31.6582ZM402.531 31.6582C402.738 31.6582 402.912 31.7285 403.053 31.8691C403.193 32.0098 403.264 32.1836 403.264 32.3906C403.264 32.6016 403.191 32.7832 403.047 32.9355C402.906 33.084 402.734 33.1582 402.531 33.1582C402.332 33.1582 402.162 33.084 402.021 32.9355C401.881 32.7832 401.811 32.6016 401.811 32.3906C401.811 32.1797 401.879 32.0059 402.016 31.8691C402.156 31.7285 402.328 31.6582 402.531 31.6582Z" fill="#3BFFCF"/>
<path d="M14.5625 9.6582C14.7695 9.6582 14.9434 9.72852 15.084 9.86914C15.2246 10.0098 15.2949 10.1836 15.2949 10.3906C15.2949 10.6016 15.2227 10.7832 15.0781 10.9355C14.9375 11.084 14.7656 11.1582 14.5625 11.1582C14.3633 11.1582 14.1934 11.084 14.0527 10.9355C13.9121 10.7832 13.8418 10.6016 13.8418 10.3906C13.8418 10.1797 13.9102 10.0059 14.0469 9.86914C14.1875 9.72852 14.3594 9.6582 14.5625 9.6582ZM27.7695 9.6582C27.9766 9.6582 28.1504 9.72852 28.291 9.86914C28.4316 10.0098 28.502 10.1836 28.502 10.3906C28.502 10.6016 28.4297 10.7832 28.2852 10.9355C28.1445 11.084 27.9727 11.1582 27.7695 11.1582C27.5703 11.1582 27.4004 11.084 27.2598 10.9355C27.1191 10.7832 27.0488 10.6016 27.0488 10.3906C27.0488 10.1797 27.1172 10.0059 27.2539 9.86914C27.3945 9.72852 27.5664 9.6582 27.7695 9.6582ZM40.9766 9.6582C41.1836 9.6582 41.3574 9.72852 41.498 9.86914C41.6387 10.0098 41.709 10.1836 41.709 10.3906C41.709 10.6016 41.6367 10.7832 41.4922 10.9355C41.3516 11.084 41.1797 11.1582 40.9766 11.1582C40.7773 11.1582 40.6074 11.084 40.4668 10.9355C40.3262 10.7832 40.2559 10.6016 40.2559 10.3906C40.2559 10.1797 40.3242 10.0059 40.4609 9.86914C40.6016 9.72852 40.7734 9.6582 40.9766 9.6582ZM54.1836 9.6582C54.3906 9.6582 54.5645 9.72852 54.7051 9.86914C54.8457 10.0098 54.916 10.1836 54.916 10.3906C54.916 10.6016 54.8438 10.7832 54.6992 10.9355C54.5586 11.084 54.3867 11.1582 54.1836 11.1582C53.9844 11.1582 53.8145 11.084 53.6738 10.9355C53.5332 10.7832 53.4629 10.6016 53.4629 10.3906C53.4629 10.1797 53.5312 10.0059 53.668 9.86914C53.8086 9.72852 53.9805 9.6582 54.1836 9.6582ZM67.3906 9.6582C67.5977 9.6582 67.7715 9.72852 67.9121 9.86914C68.0527 10.0098 68.123 10.1836 68.123 10.3906C68.123 10.6016 68.0508 10.7832 67.9062 10.9355C67.7656 11.084 67.5938 11.1582 67.3906 11.1582C67.1914 11.1582 67.0215 11.084 66.8809 10.9355C66.7402 10.7832 66.6699 10.6016 66.6699 10.3906C66.6699 10.1797 66.7383 10.0059 66.875 9.86914C67.0156 9.72852 67.1875 9.6582 67.3906 9.6582ZM80.5977 9.6582C80.8047 9.6582 80.9785 9.72852 81.1191 9.86914C81.2598 10.0098 81.3301 10.1836 81.3301 10.3906C81.3301 10.6016 81.2578 10.7832 81.1133 10.9355C80.9727 11.084 80.8008 11.1582 80.5977 11.1582C80.3984 11.1582 80.2285 11.084 80.0879 10.9355C79.9473 10.7832 79.877 10.6016 79.877 10.3906C79.877 10.1797 79.9453 10.0059 80.082 9.86914C80.2227 9.72852 80.3945 9.6582 80.5977 9.6582ZM93.8047 9.6582C94.0117 9.6582 94.1855 9.72852 94.3262 9.86914C94.4668 10.0098 94.5371 10.1836 94.5371 10.3906C94.5371 10.6016 94.4648 10.7832 94.3203 10.9355C94.1797 11.084 94.0078 11.1582 93.8047 11.1582C93.6055 11.1582 93.4355 11.084 93.2949 10.9355C93.1543 10.7832 93.084 10.6016 93.084 10.3906C93.084 10.1797 93.1523 10.0059 93.2891 9.86914C93.4297 9.72852 93.6016 9.6582 93.8047 9.6582ZM107.012 9.6582C107.219 9.6582 107.393 9.72852 107.533 9.86914C107.674 10.0098 107.744 10.1836 107.744 10.3906C107.744 10.6016 107.672 10.7832 107.527 10.9355C107.387 11.084 107.215 11.1582 107.012 11.1582C106.812 11.1582 106.643 11.084 106.502 10.9355C106.361 10.7832 106.291 10.6016 106.291 10.3906C106.291 10.1797 106.359 10.0059 106.496 9.86914C106.637 9.72852 106.809 9.6582 107.012 9.6582ZM120.219 9.6582C120.426 9.6582 120.6 9.72852 120.74 9.86914C120.881 10.0098 120.951 10.1836 120.951 10.3906C120.951 10.6016 120.879 10.7832 120.734 10.9355C120.594 11.084 120.422 11.1582 120.219 11.1582C120.02 11.1582 119.85 11.084 119.709 10.9355C119.568 10.7832 119.498 10.6016 119.498 10.3906C119.498 10.1797 119.566 10.0059 119.703 9.86914C119.844 9.72852 120.016 9.6582 120.219 9.6582ZM133.426 9.6582C133.633 9.6582 133.807 9.72852 133.947 9.86914C134.088 10.0098 134.158 10.1836 134.158 10.3906C134.158 10.6016 134.086 10.7832 133.941 10.9355C133.801 11.084 133.629 11.1582 133.426 11.1582C133.227 11.1582 133.057 11.084 132.916 10.9355C132.775 10.7832 132.705 10.6016 132.705 10.3906C132.705 10.1797 132.773 10.0059 132.91 9.86914C133.051 9.72852 133.223 9.6582 133.426 9.6582ZM146.633 9.6582C146.84 9.6582 147.014 9.72852 147.154 9.86914C147.295 10.0098 147.365 10.1836 147.365 10.3906C147.365 10.6016 147.293 10.7832 147.148 10.9355C147.008 11.084 146.836 11.1582 146.633 11.1582C146.434 11.1582 146.264 11.084 146.123 10.9355C145.982 10.7832 145.912 10.6016 145.912 10.3906C145.912 10.1797 145.98 10.0059 146.117 9.86914C146.258 9.72852 146.43 9.6582 146.633 9.6582ZM159.863 2.57422C160.738 2.57422 161.41 2.95117 161.879 3.70508C162.352 4.45508 162.588 5.50977 162.588 6.86914C162.588 8.18555 162.359 9.23047 161.902 10.0039C161.445 10.7734 160.766 11.1582 159.863 11.1582C158.992 11.1582 158.32 10.7832 157.848 10.0332C157.375 9.2832 157.139 8.22852 157.139 6.86914C157.139 5.54883 157.367 4.50391 157.824 3.73438C158.285 2.96094 158.965 2.57422 159.863 2.57422ZM159.863 10.3145C160.441 10.3145 160.869 10.041 161.146 9.49414C161.428 8.94336 161.568 8.06836 161.568 6.86914C161.568 5.66602 161.428 4.79297 161.146 4.25C160.869 3.70313 160.441 3.42969 159.863 3.42969C159.293 3.42969 158.867 3.70898 158.586 4.26758C158.305 4.82617 158.164 5.69336 158.164 6.86914C158.164 8.06055 158.303 8.93359 158.58 9.48828C158.861 10.0391 159.289 10.3145 159.863 10.3145ZM159.84 5.99023C160.086 5.99023 160.293 6.07617 160.461 6.24805C160.633 6.41602 160.719 6.62305 160.719 6.86914C160.719 7.12305 160.633 7.3418 160.461 7.52539C160.289 7.70508 160.082 7.79492 159.84 7.79492C159.602 7.79492 159.396 7.70508 159.225 7.52539C159.057 7.3418 158.973 7.12305 158.973 6.86914C158.973 6.61914 159.055 6.41016 159.219 6.24219C159.387 6.07422 159.594 5.99023 159.84 5.99023ZM173.07 2.57422C173.945 2.57422 174.617 2.95117 175.086 3.70508C175.559 4.45508 175.795 5.50977 175.795 6.86914C175.795 8.18555 175.566 9.23047 175.109 10.0039C174.652 10.7734 173.973 11.1582 173.07 11.1582C172.199 11.1582 171.527 10.7832 171.055 10.0332C170.582 9.2832 170.346 8.22852 170.346 6.86914C170.346 5.54883 170.574 4.50391 171.031 3.73438C171.492 2.96094 172.172 2.57422 173.07 2.57422ZM173.07 10.3145C173.648 10.3145 174.076 10.041 174.354 9.49414C174.635 8.94336 174.775 8.06836 174.775 6.86914C174.775 5.66602 174.635 4.79297 174.354 4.25C174.076 3.70313 173.648 3.42969 173.07 3.42969C172.5 3.42969 172.074 3.70898 171.793 4.26758C171.512 4.82617 171.371 5.69336 171.371 6.86914C171.371 8.06055 171.51 8.93359 171.787 9.48828C172.068 10.0391 172.496 10.3145 173.07 10.3145ZM173.047 5.99023C173.293 5.99023 173.5 6.07617 173.668 6.24805C173.84 6.41602 173.926 6.62305 173.926 6.86914C173.926 7.12305 173.84 7.3418 173.668 7.52539C173.496 7.70508 173.289 7.79492 173.047 7.79492C172.809 7.79492 172.604 7.70508 172.432 7.52539C172.264 7.3418 172.18 7.12305 172.18 6.86914C172.18 6.61914 172.262 6.41016 172.426 6.24219C172.594 6.07422 172.801 5.99023 173.047 5.99023ZM186.277 2.57422C187.152 2.57422 187.824 2.95117 188.293 3.70508C188.766 4.45508 189.002 5.50977 189.002 6.86914C189.002 8.18555 188.773 9.23047 188.316 10.0039C187.859 10.7734 187.18 11.1582 186.277 11.1582C185.406 11.1582 184.734 10.7832 184.262 10.0332C183.789 9.2832 183.553 8.22852 183.553 6.86914C183.553 5.54883 183.781 4.50391 184.238 3.73438C184.699 2.96094 185.379 2.57422 186.277 2.57422ZM186.277 10.3145C186.855 10.3145 187.283 10.041 187.561 9.49414C187.842 8.94336 187.982 8.06836 187.982 6.86914C187.982 5.66602 187.842 4.79297 187.561 4.25C187.283 3.70313 186.855 3.42969 186.277 3.42969C185.707 3.42969 185.281 3.70898 185 4.26758C184.719 4.82617 184.578 5.69336 184.578 6.86914C184.578 8.06055 184.717 8.93359 184.994 9.48828C185.275 10.0391 185.703 10.3145 186.277 10.3145ZM186.254 5.99023C186.5 5.99023 186.707 6.07617 186.875 6.24805C187.047 6.41602 187.133 6.62305 187.133 6.86914C187.133 7.12305 187.047 7.3418 186.875 7.52539C186.703 7.70508 186.496 7.79492 186.254 7.79492C186.016 7.79492 185.811 7.70508 185.639 7.52539C185.471 7.3418 185.387 7.12305 185.387 6.86914C185.387 6.61914 185.469 6.41016 185.633 6.24219C185.801 6.07422 186.008 5.99023 186.254 5.99023ZM199.484 2.57422C200.359 2.57422 201.031 2.95117 201.5 3.70508C201.973 4.45508 202.209 5.50977 202.209 6.86914C202.209 8.18555 201.98 9.23047 201.523 10.0039C201.066 10.7734 200.387 11.1582 199.484 11.1582C198.613 11.1582 197.941 10.7832 197.469 10.0332C196.996 9.2832 196.76 8.22852 196.76 6.86914C196.76 5.54883 196.988 4.50391 197.445 3.73438C197.906 2.96094 198.586 2.57422 199.484 2.57422ZM199.484 10.3145C200.062 10.3145 200.49 10.041 200.768 9.49414C201.049 8.94336 201.189 8.06836 201.189 6.86914C201.189 5.66602 201.049 4.79297 200.768 4.25C200.49 3.70313 200.062 3.42969 199.484 3.42969C198.914 3.42969 198.488 3.70898 198.207 4.26758C197.926 4.82617 197.785 5.69336 197.785 6.86914C197.785 8.06055 197.924 8.93359 198.201 9.48828C198.482 10.0391 198.91 10.3145 199.484 10.3145ZM199.461 5.99023C199.707 5.99023 199.914 6.07617 200.082 6.24805C200.254 6.41602 200.34 6.62305 200.34 6.86914C200.34 7.12305 200.254 7.3418 200.082 7.52539C199.91 7.70508 199.703 7.79492 199.461 7.79492C199.223 7.79492 199.018 7.70508 198.846 7.52539C198.678 7.3418 198.594 7.12305 198.594 6.86914C198.594 6.61914 198.676 6.41016 198.84 6.24219C199.008 6.07422 199.215 5.99023 199.461 5.99023ZM212.691 2.57422C213.566 2.57422 214.238 2.95117 214.707 3.70508C215.18 4.45508 215.416 5.50977 215.416 6.86914C215.416 8.18555 215.188 9.23047 214.73 10.0039C214.273 10.7734 213.594 11.1582 212.691 11.1582C211.82 11.1582 211.148 10.7832 210.676 10.0332C210.203 9.2832 209.967 8.22852 209.967 6.86914C209.967 5.54883 210.195 4.50391 210.652 3.73438C211.113 2.96094 211.793 2.57422 212.691 2.57422ZM212.691 10.3145C213.27 10.3145 213.697 10.041 213.975 9.49414C214.256 8.94336 214.396 8.06836 214.396 6.86914C214.396 5.66602 214.256 4.79297 213.975 4.25C213.697 3.70313 213.27 3.42969 212.691 3.42969C212.121 3.42969 211.695 3.70898 211.414 4.26758C211.133 4.82617 210.992 5.69336 210.992 6.86914C210.992 8.06055 211.131 8.93359 211.408 9.48828C211.689 10.0391 212.117 10.3145 212.691 10.3145ZM212.668 5.99023C212.914 5.99023 213.121 6.07617 213.289 6.24805C213.461 6.41602 213.547 6.62305 213.547 6.86914C213.547 7.12305 213.461 7.3418 213.289 7.52539C213.117 7.70508 212.91 7.79492 212.668 7.79492C212.43 7.79492 212.225 7.70508 212.053 7.52539C211.885 7.3418 211.801 7.12305 211.801 6.86914C211.801 6.61914 211.883 6.41016 212.047 6.24219C212.215 6.07422 212.422 5.99023 212.668 5.99023ZM225.898 2.57422C226.773 2.57422 227.445 2.95117 227.914 3.70508C228.387 4.45508 228.623 5.50977 228.623 6.86914C228.623 8.18555 228.395 9.23047 227.938 10.0039C227.48 10.7734 226.801 11.1582 225.898 11.1582C225.027 11.1582 224.355 10.7832 223.883 10.0332C223.41 9.2832 223.174 8.22852 223.174 6.86914C223.174 5.54883 223.402 4.50391 223.859 3.73438C224.32 2.96094 225 2.57422 225.898 2.57422ZM225.898 10.3145C226.477 10.3145 226.904 10.041 227.182 9.49414C227.463 8.94336 227.604 8.06836 227.604 6.86914C227.604 5.66602 227.463 4.79297 227.182 4.25C226.904 3.70313 226.477 3.42969 225.898 3.42969C225.328 3.42969 224.902 3.70898 224.621 4.26758C224.34 4.82617 224.199 5.69336 224.199 6.86914C224.199 8.06055 224.338 8.93359 224.615 9.48828C224.896 10.0391 225.324 10.3145 225.898 10.3145ZM225.875 5.99023C226.121 5.99023 226.328 6.07617 226.496 6.24805C226.668 6.41602 226.754 6.62305 226.754 6.86914C226.754 7.12305 226.668 7.3418 226.496 7.52539C226.324 7.70508 226.117 7.79492 225.875 7.79492C225.637 7.79492 225.432 7.70508 225.26 7.52539C225.092 7.3418 225.008 7.12305 225.008 6.86914C225.008 6.61914 225.09 6.41016 225.254 6.24219C225.422 6.07422 225.629 5.99023 225.875 5.99023ZM239.105 2.57422C239.98 2.57422 240.652 2.95117 241.121 3.70508C241.594 4.45508 241.83 5.50977 241.83 6.86914C241.83 8.18555 241.602 9.23047 241.145 10.0039C240.688 10.7734 240.008 11.1582 239.105 11.1582C238.234 11.1582 237.562 10.7832 237.09 10.0332C236.617 9.2832 236.381 8.22852 236.381 6.86914C236.381 5.54883 236.609 4.50391 237.066 3.73438C237.527 2.96094 238.207 2.57422 239.105 2.57422ZM239.105 10.3145C239.684 10.3145 240.111 10.041 240.389 9.49414C240.67 8.94336 240.811 8.06836 240.811 6.86914C240.811 5.66602 240.67 4.79297 240.389 4.25C240.111 3.70313 239.684 3.42969 239.105 3.42969C238.535 3.42969 238.109 3.70898 237.828 4.26758C237.547 4.82617 237.406 5.69336 237.406 6.86914C237.406 8.06055 237.545 8.93359 237.822 9.48828C238.104 10.0391 238.531 10.3145 239.105 10.3145ZM239.082 5.99023C239.328 5.99023 239.535 6.07617 239.703 6.24805C239.875 6.41602 239.961 6.62305 239.961 6.86914C239.961 7.12305 239.875 7.3418 239.703 7.52539C239.531 7.70508 239.324 7.79492 239.082 7.79492C238.844 7.79492 238.639 7.70508 238.467 7.52539C238.299 7.3418 238.215 7.12305 238.215 6.86914C238.215 6.61914 238.297 6.41016 238.461 6.24219C238.629 6.07422 238.836 5.99023 239.082 5.99023ZM252.336 11.1582C252.133 11.1348 251.965 11.0508 251.832 10.9062C251.699 10.7617 251.633 10.5977 251.633 10.4141C251.633 10.2148 251.697 10.0469 251.826 9.91016C251.955 9.77344 252.117 9.70508 252.312 9.70508C252.531 9.70508 252.721 9.79492 252.881 9.97461C253.041 10.1504 253.121 10.3633 253.121 10.6133C253.121 11.3789 252.695 11.9766 251.844 12.4062L251.621 11.9844C252.098 11.75 252.336 11.4746 252.336 11.1582ZM265.543 11.1582C265.34 11.1348 265.172 11.0508 265.039 10.9062C264.906 10.7617 264.84 10.5977 264.84 10.4141C264.84 10.2148 264.904 10.0469 265.033 9.91016C265.162 9.77344 265.324 9.70508 265.52 9.70508C265.738 9.70508 265.928 9.79492 266.088 9.97461C266.248 10.1504 266.328 10.3633 266.328 10.6133C266.328 11.3789 265.902 11.9766 265.051 12.4062L264.828 11.9844C265.305 11.75 265.543 11.4746 265.543 11.1582ZM278.703 9.6582C278.91 9.6582 279.084 9.72852 279.225 9.86914C279.365 10.0098 279.436 10.1836 279.436 10.3906C279.436 10.6016 279.363 10.7832 279.219 10.9355C279.078 11.084 278.906 11.1582 278.703 11.1582C278.504 11.1582 278.334 11.084 278.193 10.9355C278.053 10.7832 277.982 10.6016 277.982 10.3906C277.982 10.1797 278.051 10.0059 278.188 9.86914C278.328 9.72852 278.5 9.6582 278.703 9.6582ZM291.91 9.6582C292.117 9.6582 292.291 9.72852 292.432 9.86914C292.572 10.0098 292.643 10.1836 292.643 10.3906C292.643 10.6016 292.57 10.7832 292.426 10.9355C292.285 11.084 292.113 11.1582 291.91 11.1582C291.711 11.1582 291.541 11.084 291.4 10.9355C291.26 10.7832 291.189 10.6016 291.189 10.3906C291.189 10.1797 291.258 10.0059 291.395 9.86914C291.535 9.72852 291.707 9.6582 291.91 9.6582ZM305.117 9.6582C305.324 9.6582 305.498 9.72852 305.639 9.86914C305.779 10.0098 305.85 10.1836 305.85 10.3906C305.85 10.6016 305.777 10.7832 305.633 10.9355C305.492 11.084 305.32 11.1582 305.117 11.1582C304.918 11.1582 304.748 11.084 304.607 10.9355C304.467 10.7832 304.396 10.6016 304.396 10.3906C304.396 10.1797 304.465 10.0059 304.602 9.86914C304.742 9.72852 304.914 9.6582 305.117 9.6582ZM318.324 9.6582C318.531 9.6582 318.705 9.72852 318.846 9.86914C318.986 10.0098 319.057 10.1836 319.057 10.3906C319.057 10.6016 318.984 10.7832 318.84 10.9355C318.699 11.084 318.527 11.1582 318.324 11.1582C318.125 11.1582 317.955 11.084 317.814 10.9355C317.674 10.7832 317.604 10.6016 317.604 10.3906C317.604 10.1797 317.672 10.0059 317.809 9.86914C317.949 9.72852 318.121 9.6582 318.324 9.6582ZM331.531 9.6582C331.738 9.6582 331.912 9.72852 332.053 9.86914C332.193 10.0098 332.264 10.1836 332.264 10.3906C332.264 10.6016 332.191 10.7832 332.047 10.9355C331.906 11.084 331.734 11.1582 331.531 11.1582C331.332 11.1582 331.162 11.084 331.021 10.9355C330.881 10.7832 330.811 10.6016 330.811 10.3906C330.811 10.1797 330.879 10.0059 331.016 9.86914C331.156 9.72852 331.328 9.6582 331.531 9.6582Z" fill="#3BFFCF"/>
<path d="M3.5625 53.6582C3.76953 53.6582 3.94336 53.7285 4.08398 53.8691C4.22461 54.0098 4.29492 54.1836 4.29492 54.3906C4.29492 54.6016 4.22266 54.7832 4.07812 54.9355C3.9375 55.084 3.76562 55.1582 3.5625 55.1582C3.36328 55.1582 3.19336 55.084 3.05273 54.9355C2.91211 54.7832 2.8418 54.6016 2.8418 54.3906C2.8418 54.1797 2.91016 54.0059 3.04688 53.8691C3.1875 53.7285 3.35938 53.6582 3.5625 53.6582ZM16.7695 53.6582C16.9766 53.6582 17.1504 53.7285 17.291 53.8691C17.4316 54.0098 17.502 54.1836 17.502 54.3906C17.502 54.6016 17.4297 54.7832 17.2852 54.9355C17.1445 55.084 16.9727 55.1582 16.7695 55.1582C16.5703 55.1582 16.4004 55.084 16.2598 54.9355C16.1191 54.7832 16.0488 54.6016 16.0488 54.3906C16.0488 54.1797 16.1172 54.0059 16.2539 53.8691C16.3945 53.7285 16.5664 53.6582 16.7695 53.6582ZM29.9766 53.6582C30.1836 53.6582 30.3574 53.7285 30.498 53.8691C30.6387 54.0098 30.709 54.1836 30.709 54.3906C30.709 54.6016 30.6367 54.7832 30.4922 54.9355C30.3516 55.084 30.1797 55.1582 29.9766 55.1582C29.7773 55.1582 29.6074 55.084 29.4668 54.9355C29.3262 54.7832 29.2559 54.6016 29.2559 54.3906C29.2559 54.1797 29.3242 54.0059 29.4609 53.8691C29.6016 53.7285 29.7734 53.6582 29.9766 53.6582ZM43.1836 53.6582C43.3906 53.6582 43.5645 53.7285 43.7051 53.8691C43.8457 54.0098 43.916 54.1836 43.916 54.3906C43.916 54.6016 43.8438 54.7832 43.6992 54.9355C43.5586 55.084 43.3867 55.1582 43.1836 55.1582C42.9844 55.1582 42.8145 55.084 42.6738 54.9355C42.5332 54.7832 42.4629 54.6016 42.4629 54.3906C42.4629 54.1797 42.5312 54.0059 42.668 53.8691C42.8086 53.7285 42.9805 53.6582 43.1836 53.6582ZM56.3906 53.6582C56.5977 53.6582 56.7715 53.7285 56.9121 53.8691C57.0527 54.0098 57.123 54.1836 57.123 54.3906C57.123 54.6016 57.0508 54.7832 56.9062 54.9355C56.7656 55.084 56.5938 55.1582 56.3906 55.1582C56.1914 55.1582 56.0215 55.084 55.8809 54.9355C55.7402 54.7832 55.6699 54.6016 55.6699 54.3906C55.6699 54.1797 55.7383 54.0059 55.875 53.8691C56.0156 53.7285 56.1875 53.6582 56.3906 53.6582ZM69.5977 53.6582C69.8047 53.6582 69.9785 53.7285 70.1191 53.8691C70.2598 54.0098 70.3301 54.1836 70.3301 54.3906C70.3301 54.6016 70.2578 54.7832 70.1133 54.9355C69.9727 55.084 69.8008 55.1582 69.5977 55.1582C69.3984 55.1582 69.2285 55.084 69.0879 54.9355C68.9473 54.7832 68.877 54.6016 68.877 54.3906C68.877 54.1797 68.9453 54.0059 69.082 53.8691C69.2227 53.7285 69.3945 53.6582 69.5977 53.6582ZM82.8047 53.6582C83.0117 53.6582 83.1855 53.7285 83.3262 53.8691C83.4668 54.0098 83.5371 54.1836 83.5371 54.3906C83.5371 54.6016 83.4648 54.7832 83.3203 54.9355C83.1797 55.084 83.0078 55.1582 82.8047 55.1582C82.6055 55.1582 82.4355 55.084 82.2949 54.9355C82.1543 54.7832 82.084 54.6016 82.084 54.3906C82.084 54.1797 82.1523 54.0059 82.2891 53.8691C82.4297 53.7285 82.6016 53.6582 82.8047 53.6582ZM96.0117 53.6582C96.2188 53.6582 96.3926 53.7285 96.5332 53.8691C96.6738 54.0098 96.7441 54.1836 96.7441 54.3906C96.7441 54.6016 96.6719 54.7832 96.5273 54.9355C96.3867 55.084 96.2148 55.1582 96.0117 55.1582C95.8125 55.1582 95.6426 55.084 95.502 54.9355C95.3613 54.7832 95.291 54.6016 95.291 54.3906C95.291 54.1797 95.3594 54.0059 95.4961 53.8691C95.6367 53.7285 95.8086 53.6582 96.0117 53.6582ZM109.219 53.6582C109.426 53.6582 109.6 53.7285 109.74 53.8691C109.881 54.0098 109.951 54.1836 109.951 54.3906C109.951 54.6016 109.879 54.7832 109.734 54.9355C109.594 55.084 109.422 55.1582 109.219 55.1582C109.02 55.1582 108.85 55.084 108.709 54.9355C108.568 54.7832 108.498 54.6016 108.498 54.3906C108.498 54.1797 108.566 54.0059 108.703 53.8691C108.844 53.7285 109.016 53.6582 109.219 53.6582ZM122.473 55.1582C122.27 55.1348 122.102 55.0508 121.969 54.9062C121.836 54.7617 121.77 54.5977 121.77 54.4141C121.77 54.2148 121.834 54.0469 121.963 53.9102C122.092 53.7734 122.254 53.7051 122.449 53.7051C122.668 53.7051 122.857 53.7949 123.018 53.9746C123.178 54.1504 123.258 54.3633 123.258 54.6133C123.258 55.3789 122.832 55.9766 121.98 56.4062L121.758 55.9844C122.234 55.75 122.473 55.4746 122.473 55.1582ZM138.012 51.1094L133.629 53.7402V52.8789L137.145 50.7871L133.629 48.6426V47.7988L138.012 50.4062V51.1094ZM151.219 51.1094L146.836 53.7402V52.8789L150.352 50.7871L146.836 48.6426V47.7988L151.219 50.4062V51.1094ZM164.426 51.1094L160.043 53.7402V52.8789L163.559 50.7871L160.043 48.6426V47.7988L164.426 50.4062V51.1094ZM177.404 53.7402L173.021 51.1094V50.4062L177.404 47.7988V48.6426L173.889 50.7871L177.404 52.8789V53.7402ZM190.611 46.5742L187.02 55.1582H186.158L189.732 46.5742H190.611ZM203.818 46.5742L200.227 55.1582H199.365L202.939 46.5742H203.818ZM217.025 46.5742L213.434 55.1582H212.572L216.146 46.5742H217.025ZM230.232 46.5742L226.641 55.1582H225.779L229.354 46.5742H230.232ZM243.439 46.5742L239.848 55.1582H238.986L242.561 46.5742H243.439ZM256.646 46.5742L253.055 55.1582H252.193L255.768 46.5742H256.646ZM269.854 46.5742L266.262 55.1582H265.4L268.975 46.5742H269.854Z" fill="#3BFFCF"/>
</svg>
