<svg width="476" height="74" viewBox="0 0 476 74" fill="none" xmlns="http://www.w3.org/2000/svg">
<path d="M49.6777 11.457C49.0879 11.7852 48.4512 11.9492 47.7676 11.9492C46.8223 11.9492 46.0527 11.5645 45.459 10.7949C44.8691 10.0215 44.5742 8.98242 44.5742 7.67773C44.5742 6.11133 44.8652 4.87695 45.4473 3.97461C46.0332 3.07227 46.7988 2.62109 47.7441 2.62109C48.6191 2.62109 49.332 2.97852 49.8828 3.69336C50.4336 4.4043 50.709 5.36328 50.709 6.57031C50.709 7.47266 50.5273 8.21875 50.1641 8.80859C49.8047 9.39844 49.3379 9.69336 48.7637 9.69336C48.3691 9.69336 48.1172 9.46094 48.0078 8.99609C47.7852 9.46094 47.4688 9.69336 47.0586 9.69336C46.7617 9.69336 46.5137 9.53711 46.3145 9.22461C46.1152 8.91211 46.0156 8.50391 46.0156 8C46.0156 7.21094 46.1836 6.55273 46.5195 6.02539C46.8594 5.49414 47.2793 5.22852 47.7793 5.22852C47.9746 5.22852 48.1758 5.30078 48.3828 5.44531L48.4062 5.29883H49.1387C48.9043 7.4043 48.7871 8.5332 48.7871 8.68555C48.7871 8.79102 48.8086 8.87891 48.8516 8.94922C48.8984 9.01953 48.957 9.05469 49.0273 9.05469C49.2891 9.05469 49.5273 8.82227 49.7422 8.35742C49.9609 7.88867 50.0703 7.29297 50.0703 6.57031C50.0703 5.53906 49.8594 4.72461 49.4375 4.12695C49.0156 3.52539 48.4512 3.22461 47.7441 3.22461C46.9863 3.22461 46.375 3.62109 45.9102 4.41406C45.4453 5.20703 45.2129 6.29492 45.2129 7.67773C45.2129 8.78711 45.4473 9.67383 45.916 10.3379C46.3887 11.002 47.0059 11.334 47.7676 11.334C48.3965 11.334 48.9883 11.1992 49.543 10.9297L49.6777 11.457ZM48.2949 6.07812C48.1777 5.93359 48.0176 5.86133 47.8145 5.86133C47.4941 5.86133 47.2383 6.04883 47.0469 6.42383C46.8555 6.79883 46.7598 7.29688 46.7598 7.91797C46.7598 8.27344 46.8086 8.55273 46.9062 8.75586C47.0039 8.95508 47.127 9.05469 47.2754 9.05469C47.498 9.05469 47.6816 8.94727 47.8262 8.73242C47.9707 8.51758 48.0469 8.36523 48.0547 8.27539L48.2949 6.07812ZM62.8848 11.457C62.2949 11.7852 61.6582 11.9492 60.9746 11.9492C60.0293 11.9492 59.2598 11.5645 58.666 10.7949C58.0762 10.0215 57.7812 8.98242 57.7812 7.67773C57.7812 6.11133 58.0723 4.87695 58.6543 3.97461C59.2402 3.07227 60.0059 2.62109 60.9512 2.62109C61.8262 2.62109 62.5391 2.97852 63.0898 3.69336C63.6406 4.4043 63.916 5.36328 63.916 6.57031C63.916 7.47266 63.7344 8.21875 63.3711 8.80859C63.0117 9.39844 62.5449 9.69336 61.9707 9.69336C61.5762 9.69336 61.3242 9.46094 61.2148 8.99609C60.9922 9.46094 60.6758 9.69336 60.2656 9.69336C59.9688 9.69336 59.7207 9.53711 59.5215 9.22461C59.3223 8.91211 59.2227 8.50391 59.2227 8C59.2227 7.21094 59.3906 6.55273 59.7266 6.02539C60.0664 5.49414 60.4863 5.22852 60.9863 5.22852C61.1816 5.22852 61.3828 5.30078 61.5898 5.44531L61.6133 5.29883H62.3457C62.1113 7.4043 61.9941 8.5332 61.9941 8.68555C61.9941 8.79102 62.0156 8.87891 62.0586 8.94922C62.1055 9.01953 62.1641 9.05469 62.2344 9.05469C62.4961 9.05469 62.7344 8.82227 62.9492 8.35742C63.168 7.88867 63.2773 7.29297 63.2773 6.57031C63.2773 5.53906 63.0664 4.72461 62.6445 4.12695C62.2227 3.52539 61.6582 3.22461 60.9512 3.22461C60.1934 3.22461 59.582 3.62109 59.1172 4.41406C58.6523 5.20703 58.4199 6.29492 58.4199 7.67773C58.4199 8.78711 58.6543 9.67383 59.123 10.3379C59.5957 11.002 60.2129 11.334 60.9746 11.334C61.6035 11.334 62.1953 11.1992 62.75 10.9297L62.8848 11.457ZM61.502 6.07812C61.3848 5.93359 61.2246 5.86133 61.0215 5.86133C60.7012 5.86133 60.4453 6.04883 60.2539 6.42383C60.0625 6.79883 59.9668 7.29688 59.9668 7.91797C59.9668 8.27344 60.0156 8.55273 60.1133 8.75586C60.2109 8.95508 60.334 9.05469 60.4824 9.05469C60.7051 9.05469 60.8887 8.94727 61.0332 8.73242C61.1777 8.51758 61.2539 8.36523 61.2617 8.27539L61.502 6.07812ZM76.0918 11.457C75.502 11.7852 74.8652 11.9492 74.1816 11.9492C73.2363 11.9492 72.4668 11.5645 71.873 10.7949C71.2832 10.0215 70.9883 8.98242 70.9883 7.67773C70.9883 6.11133 71.2793 4.87695 71.8613 3.97461C72.4473 3.07227 73.2129 2.62109 74.1582 2.62109C75.0332 2.62109 75.7461 2.97852 76.2969 3.69336C76.8477 4.4043 77.123 5.36328 77.123 6.57031C77.123 7.47266 76.9414 8.21875 76.5781 8.80859C76.2188 9.39844 75.752 9.69336 75.1777 9.69336C74.7832 9.69336 74.5312 9.46094 74.4219 8.99609C74.1992 9.46094 73.8828 9.69336 73.4727 9.69336C73.1758 9.69336 72.9277 9.53711 72.7285 9.22461C72.5293 8.91211 72.4297 8.50391 72.4297 8C72.4297 7.21094 72.5977 6.55273 72.9336 6.02539C73.2734 5.49414 73.6934 5.22852 74.1934 5.22852C74.3887 5.22852 74.5898 5.30078 74.7969 5.44531L74.8203 5.29883H75.5527C75.3184 7.4043 75.2012 8.5332 75.2012 8.68555C75.2012 8.79102 75.2227 8.87891 75.2656 8.94922C75.3125 9.01953 75.3711 9.05469 75.4414 9.05469C75.7031 9.05469 75.9414 8.82227 76.1562 8.35742C76.375 7.88867 76.4844 7.29297 76.4844 6.57031C76.4844 5.53906 76.2734 4.72461 75.8516 4.12695C75.4297 3.52539 74.8652 3.22461 74.1582 3.22461C73.4004 3.22461 72.7891 3.62109 72.3242 4.41406C71.8594 5.20703 71.627 6.29492 71.627 7.67773C71.627 8.78711 71.8613 9.67383 72.3301 10.3379C72.8027 11.002 73.4199 11.334 74.1816 11.334C74.8105 11.334 75.4023 11.1992 75.957 10.9297L76.0918 11.457ZM74.709 6.07812C74.5918 5.93359 74.4316 5.86133 74.2285 5.86133C73.9082 5.86133 73.6523 6.04883 73.4609 6.42383C73.2695 6.79883 73.1738 7.29688 73.1738 7.91797C73.1738 8.27344 73.2227 8.55273 73.3203 8.75586C73.418 8.95508 73.541 9.05469 73.6895 9.05469C73.9121 9.05469 74.0957 8.94727 74.2402 8.73242C74.3848 8.51758 74.4609 8.36523 74.4688 8.27539L74.709 6.07812ZM89.2988 11.457C88.709 11.7852 88.0723 11.9492 87.3887 11.9492C86.4434 11.9492 85.6738 11.5645 85.0801 10.7949C84.4902 10.0215 84.1953 8.98242 84.1953 7.67773C84.1953 6.11133 84.4863 4.87695 85.0684 3.97461C85.6543 3.07227 86.4199 2.62109 87.3652 2.62109C88.2402 2.62109 88.9531 2.97852 89.5039 3.69336C90.0547 4.4043 90.3301 5.36328 90.3301 6.57031C90.3301 7.47266 90.1484 8.21875 89.7852 8.80859C89.4258 9.39844 88.959 9.69336 88.3848 9.69336C87.9902 9.69336 87.7383 9.46094 87.6289 8.99609C87.4062 9.46094 87.0898 9.69336 86.6797 9.69336C86.3828 9.69336 86.1348 9.53711 85.9355 9.22461C85.7363 8.91211 85.6367 8.50391 85.6367 8C85.6367 7.21094 85.8047 6.55273 86.1406 6.02539C86.4805 5.49414 86.9004 5.22852 87.4004 5.22852C87.5957 5.22852 87.7969 5.30078 88.0039 5.44531L88.0273 5.29883H88.7598C88.5254 7.4043 88.4082 8.5332 88.4082 8.68555C88.4082 8.79102 88.4297 8.87891 88.4727 8.94922C88.5195 9.01953 88.5781 9.05469 88.6484 9.05469C88.9102 9.05469 89.1484 8.82227 89.3633 8.35742C89.582 7.88867 89.6914 7.29297 89.6914 6.57031C89.6914 5.53906 89.4805 4.72461 89.0586 4.12695C88.6367 3.52539 88.0723 3.22461 87.3652 3.22461C86.6074 3.22461 85.9961 3.62109 85.5312 4.41406C85.0664 5.20703 84.834 6.29492 84.834 7.67773C84.834 8.78711 85.0684 9.67383 85.5371 10.3379C86.0098 11.002 86.627 11.334 87.3887 11.334C88.0176 11.334 88.6094 11.1992 89.1641 10.9297L89.2988 11.457ZM87.916 6.07812C87.7988 5.93359 87.6387 5.86133 87.4355 5.86133C87.1152 5.86133 86.8594 6.04883 86.668 6.42383C86.4766 6.79883 86.3809 7.29688 86.3809 7.91797C86.3809 8.27344 86.4297 8.55273 86.5273 8.75586C86.625 8.95508 86.748 9.05469 86.8965 9.05469C87.1191 9.05469 87.3027 8.94727 87.4473 8.73242C87.5918 8.51758 87.668 8.36523 87.6758 8.27539L87.916 6.07812ZM102.506 11.457C101.916 11.7852 101.279 11.9492 100.596 11.9492C99.6504 11.9492 98.8809 11.5645 98.2871 10.7949C97.6973 10.0215 97.4023 8.98242 97.4023 7.67773C97.4023 6.11133 97.6934 4.87695 98.2754 3.97461C98.8613 3.07227 99.627 2.62109 100.572 2.62109C101.447 2.62109 102.16 2.97852 102.711 3.69336C103.262 4.4043 103.537 5.36328 103.537 6.57031C103.537 7.47266 103.355 8.21875 102.992 8.80859C102.633 9.39844 102.166 9.69336 101.592 9.69336C101.197 9.69336 100.945 9.46094 100.836 8.99609C100.613 9.46094 100.297 9.69336 99.8867 9.69336C99.5898 9.69336 99.3418 9.53711 99.1426 9.22461C98.9434 8.91211 98.8438 8.50391 98.8438 8C98.8438 7.21094 99.0117 6.55273 99.3477 6.02539C99.6875 5.49414 100.107 5.22852 100.607 5.22852C100.803 5.22852 101.004 5.30078 101.211 5.44531L101.234 5.29883H101.967C101.732 7.4043 101.615 8.5332 101.615 8.68555C101.615 8.79102 101.637 8.87891 101.68 8.94922C101.727 9.01953 101.785 9.05469 101.855 9.05469C102.117 9.05469 102.355 8.82227 102.57 8.35742C102.789 7.88867 102.898 7.29297 102.898 6.57031C102.898 5.53906 102.688 4.72461 102.266 4.12695C101.844 3.52539 101.279 3.22461 100.572 3.22461C99.8145 3.22461 99.2031 3.62109 98.7383 4.41406C98.2734 5.20703 98.041 6.29492 98.041 7.67773C98.041 8.78711 98.2754 9.67383 98.7441 10.3379C99.2168 11.002 99.834 11.334 100.596 11.334C101.225 11.334 101.816 11.1992 102.371 10.9297L102.506 11.457ZM101.123 6.07812C101.006 5.93359 100.846 5.86133 100.643 5.86133C100.322 5.86133 100.066 6.04883 99.875 6.42383C99.6836 6.79883 99.5879 7.29688 99.5879 7.91797C99.5879 8.27344 99.6367 8.55273 99.7344 8.75586C99.832 8.95508 99.9551 9.05469 100.104 9.05469C100.326 9.05469 100.51 8.94727 100.654 8.73242C100.799 8.51758 100.875 8.36523 100.883 8.27539L101.123 6.07812ZM114.031 6.25977C114.77 6.57617 115.285 6.92773 115.578 7.31445C115.875 7.69727 116.023 8.13281 116.023 8.62109C116.023 9.23828 115.846 9.76367 115.49 10.1973C115.139 10.627 114.652 10.918 114.031 11.0703V11.8262H113.346V11.1582H113.299C112.588 11.1582 111.965 11.0176 111.43 10.7363L111.629 9.91016C112.258 10.1953 112.807 10.3379 113.275 10.3379H113.346V6.92188C112.506 6.5625 111.965 6.20898 111.723 5.86133C111.484 5.50977 111.365 5.13867 111.365 4.74805C111.365 4.19336 111.539 3.72852 111.887 3.35352C112.234 2.97852 112.721 2.73437 113.346 2.62109V2H114.031V2.57422C114.566 2.57422 115.094 2.6582 115.613 2.82617L115.396 3.64648C114.92 3.47852 114.465 3.39453 114.031 3.39453V6.25977ZM113.346 5.9375V3.47656C112.65 3.66016 112.303 4.07227 112.303 4.71289C112.303 5.18555 112.65 5.59375 113.346 5.9375ZM114.031 10.2324C114.734 9.97852 115.086 9.48242 115.086 8.74414C115.086 8.41602 115.002 8.13672 114.834 7.90625C114.67 7.67578 114.402 7.45898 114.031 7.25586V10.2324ZM129.963 8.67383H128.1L127.607 11H126.781L127.273 8.67383H125.703L125.211 11H124.385L124.877 8.67383H123.758V7.90625H125.041L125.486 5.80273H123.758V5.03516H125.645L126.137 2.73242H126.963L126.471 5.03516H128.041L128.533 2.73242H129.359L128.873 5.03516H129.963V5.80273H128.715L128.27 7.90625H129.963V8.67383ZM127.889 5.80273H126.312L125.873 7.90625H127.443L127.889 5.80273ZM138.383 2.57422C138.902 2.57422 139.307 2.75586 139.596 3.11914C139.889 3.48242 140.035 3.95312 140.035 4.53125C140.035 5.10938 139.889 5.58008 139.596 5.94336C139.303 6.30664 138.898 6.48828 138.383 6.48828C137.871 6.48828 137.467 6.30664 137.17 5.94336C136.873 5.57617 136.725 5.10547 136.725 4.53125C136.725 3.96875 136.873 3.50195 137.17 3.13086C137.471 2.75977 137.875 2.57422 138.383 2.57422ZM138.383 5.7793C138.926 5.7793 139.197 5.36328 139.197 4.53125C139.197 3.69922 138.926 3.2832 138.383 3.2832C137.836 3.2832 137.562 3.69922 137.562 4.53125C137.562 5.36328 137.836 5.7793 138.383 5.7793ZM142.619 2.73242L138.248 11H137.434L141.799 2.73242H142.619ZM141.705 7.24414C142.225 7.24414 142.631 7.42578 142.924 7.78906C143.217 8.14844 143.363 8.61914 143.363 9.20117C143.363 9.77539 143.215 10.2461 142.918 10.6133C142.625 10.9766 142.221 11.1582 141.705 11.1582C141.193 11.1582 140.789 10.9746 140.492 10.6074C140.195 10.2402 140.047 9.77148 140.047 9.20117C140.047 8.63477 140.195 8.16797 140.492 7.80078C140.793 7.42969 141.197 7.24414 141.705 7.24414ZM141.705 10.4492C142.248 10.4492 142.52 10.0332 142.52 9.20117C142.52 8.36914 142.248 7.95312 141.705 7.95312C141.162 7.95312 140.891 8.36914 140.891 9.20117C140.891 10.0332 141.162 10.4492 141.705 10.4492ZM151.59 2.57422C152.109 2.57422 152.514 2.75586 152.803 3.11914C153.096 3.48242 153.242 3.95312 153.242 4.53125C153.242 5.10938 153.096 5.58008 152.803 5.94336C152.51 6.30664 152.105 6.48828 151.59 6.48828C151.078 6.48828 150.674 6.30664 150.377 5.94336C150.08 5.57617 149.932 5.10547 149.932 4.53125C149.932 3.96875 150.08 3.50195 150.377 3.13086C150.678 2.75977 151.082 2.57422 151.59 2.57422ZM151.59 5.7793C152.133 5.7793 152.404 5.36328 152.404 4.53125C152.404 3.69922 152.133 3.2832 151.59 3.2832C151.043 3.2832 150.77 3.69922 150.77 4.53125C150.77 5.36328 151.043 5.7793 151.59 5.7793ZM155.826 2.73242L151.455 11H150.641L155.006 2.73242H155.826ZM154.912 7.24414C155.432 7.24414 155.838 7.42578 156.131 7.78906C156.424 8.14844 156.57 8.61914 156.57 9.20117C156.57 9.77539 156.422 10.2461 156.125 10.6133C155.832 10.9766 155.428 11.1582 154.912 11.1582C154.4 11.1582 153.996 10.9746 153.699 10.6074C153.402 10.2402 153.254 9.77148 153.254 9.20117C153.254 8.63477 153.402 8.16797 153.699 7.80078C154 7.42969 154.404 7.24414 154.912 7.24414ZM154.912 10.4492C155.455 10.4492 155.727 10.0332 155.727 9.20117C155.727 8.36914 155.455 7.95312 154.912 7.95312C154.369 7.95312 154.098 8.36914 154.098 9.20117C154.098 10.0332 154.369 10.4492 154.912 10.4492ZM164.797 2.57422C165.316 2.57422 165.721 2.75586 166.01 3.11914C166.303 3.48242 166.449 3.95312 166.449 4.53125C166.449 5.10938 166.303 5.58008 166.01 5.94336C165.717 6.30664 165.312 6.48828 164.797 6.48828C164.285 6.48828 163.881 6.30664 163.584 5.94336C163.287 5.57617 163.139 5.10547 163.139 4.53125C163.139 3.96875 163.287 3.50195 163.584 3.13086C163.885 2.75977 164.289 2.57422 164.797 2.57422ZM164.797 5.7793C165.34 5.7793 165.611 5.36328 165.611 4.53125C165.611 3.69922 165.34 3.2832 164.797 3.2832C164.25 3.2832 163.977 3.69922 163.977 4.53125C163.977 5.36328 164.25 5.7793 164.797 5.7793ZM169.033 2.73242L164.662 11H163.848L168.213 2.73242H169.033ZM168.119 7.24414C168.639 7.24414 169.045 7.42578 169.338 7.78906C169.631 8.14844 169.777 8.61914 169.777 9.20117C169.777 9.77539 169.629 10.2461 169.332 10.6133C169.039 10.9766 168.635 11.1582 168.119 11.1582C167.607 11.1582 167.203 10.9746 166.906 10.6074C166.609 10.2402 166.461 9.77148 166.461 9.20117C166.461 8.63477 166.609 8.16797 166.906 7.80078C167.207 7.42969 167.611 7.24414 168.119 7.24414ZM168.119 10.4492C168.662 10.4492 168.934 10.0332 168.934 9.20117C168.934 8.36914 168.662 7.95312 168.119 7.95312C167.576 7.95312 167.305 8.36914 167.305 9.20117C167.305 10.0332 167.576 10.4492 168.119 10.4492ZM177.295 2.73242H178.924C180.006 2.73242 180.873 3.10156 181.525 3.83984C182.178 4.57422 182.504 5.58398 182.504 6.86914C182.504 8.18164 182.172 9.19922 181.508 9.92188C180.848 10.6406 180 11 178.965 11H177.295V2.73242ZM178.256 10.1621H178.936C179.721 10.1621 180.342 9.87109 180.799 9.28906C181.256 8.70703 181.484 7.90039 181.484 6.86914C181.484 5.8457 181.254 5.04102 180.793 4.45508C180.336 3.86523 179.717 3.57031 178.936 3.57031H178.256V10.1621ZM196.156 11H194.955L192.529 7.24414H191.463V11H190.502V2.73242H192.84C193.625 2.73242 194.244 2.92383 194.697 3.30664C195.154 3.68555 195.383 4.21484 195.383 4.89453C195.383 5.39844 195.217 5.84766 194.885 6.24219C194.553 6.63281 194.096 6.89844 193.514 7.03906L196.156 11ZM191.463 6.40625H192.676C193.184 6.40625 193.596 6.26953 193.912 5.99609C194.229 5.71875 194.387 5.37109 194.387 4.95312C194.387 4.03125 193.824 3.57031 192.699 3.57031H191.463V6.40625ZM209.363 11H208.162L205.736 7.24414H204.67V11H203.709V2.73242H206.047C206.832 2.73242 207.451 2.92383 207.904 3.30664C208.361 3.68555 208.59 4.21484 208.59 4.89453C208.59 5.39844 208.424 5.84766 208.092 6.24219C207.76 6.63281 207.303 6.89844 206.721 7.03906L209.363 11ZM204.67 6.40625H205.883C206.391 6.40625 206.803 6.26953 207.119 5.99609C207.436 5.71875 207.594 5.37109 207.594 4.95312C207.594 4.03125 207.031 3.57031 205.906 3.57031H204.67V6.40625ZM221.51 11H217.191V2.73242H221.475V3.57031H218.152V6.13086H221.346V6.96875H218.152V10.1621H221.51V11ZM235.619 8.67383H233.756L233.264 11H232.438L232.93 8.67383H231.359L230.867 11H230.041L230.533 8.67383H229.414V7.90625H230.697L231.143 5.80273H229.414V5.03516H231.301L231.793 2.73242H232.619L232.127 5.03516H233.697L234.189 2.73242H235.016L234.529 5.03516H235.619V5.80273H234.371L233.926 7.90625H235.619V8.67383ZM233.545 5.80273H231.969L231.529 7.90625H233.1L233.545 5.80273ZM244.039 2.57422C244.559 2.57422 244.963 2.75586 245.252 3.11914C245.545 3.48242 245.691 3.95312 245.691 4.53125C245.691 5.10938 245.545 5.58008 245.252 5.94336C244.959 6.30664 244.555 6.48828 244.039 6.48828C243.527 6.48828 243.123 6.30664 242.826 5.94336C242.529 5.57617 242.381 5.10547 242.381 4.53125C242.381 3.96875 242.529 3.50195 242.826 3.13086C243.127 2.75977 243.531 2.57422 244.039 2.57422ZM244.039 5.7793C244.582 5.7793 244.854 5.36328 244.854 4.53125C244.854 3.69922 244.582 3.2832 244.039 3.2832C243.492 3.2832 243.219 3.69922 243.219 4.53125C243.219 5.36328 243.492 5.7793 244.039 5.7793ZM248.275 2.73242L243.904 11H243.09L247.455 2.73242H248.275ZM247.361 7.24414C247.881 7.24414 248.287 7.42578 248.58 7.78906C248.873 8.14844 249.02 8.61914 249.02 9.20117C249.02 9.77539 248.871 10.2461 248.574 10.6133C248.281 10.9766 247.877 11.1582 247.361 11.1582C246.85 11.1582 246.445 10.9746 246.148 10.6074C245.852 10.2402 245.703 9.77148 245.703 9.20117C245.703 8.63477 245.852 8.16797 246.148 7.80078C246.449 7.42969 246.854 7.24414 247.361 7.24414ZM247.361 10.4492C247.904 10.4492 248.176 10.0332 248.176 9.20117C248.176 8.36914 247.904 7.95312 247.361 7.95312C246.818 7.95312 246.547 8.36914 246.547 9.20117C246.547 10.0332 246.818 10.4492 247.361 10.4492ZM257.246 2.57422C257.766 2.57422 258.17 2.75586 258.459 3.11914C258.752 3.48242 258.898 3.95312 258.898 4.53125C258.898 5.10938 258.752 5.58008 258.459 5.94336C258.166 6.30664 257.762 6.48828 257.246 6.48828C256.734 6.48828 256.33 6.30664 256.033 5.94336C255.736 5.57617 255.588 5.10547 255.588 4.53125C255.588 3.96875 255.736 3.50195 256.033 3.13086C256.334 2.75977 256.738 2.57422 257.246 2.57422ZM257.246 5.7793C257.789 5.7793 258.061 5.36328 258.061 4.53125C258.061 3.69922 257.789 3.2832 257.246 3.2832C256.699 3.2832 256.426 3.69922 256.426 4.53125C256.426 5.36328 256.699 5.7793 257.246 5.7793ZM261.482 2.73242L257.111 11H256.297L260.662 2.73242H261.482ZM260.568 7.24414C261.088 7.24414 261.494 7.42578 261.787 7.78906C262.08 8.14844 262.227 8.61914 262.227 9.20117C262.227 9.77539 262.078 10.2461 261.781 10.6133C261.488 10.9766 261.084 11.1582 260.568 11.1582C260.057 11.1582 259.652 10.9746 259.355 10.6074C259.059 10.2402 258.91 9.77148 258.91 9.20117C258.91 8.63477 259.059 8.16797 259.355 7.80078C259.656 7.42969 260.061 7.24414 260.568 7.24414ZM260.568 10.4492C261.111 10.4492 261.383 10.0332 261.383 9.20117C261.383 8.36914 261.111 7.95312 260.568 7.95312C260.025 7.95312 259.754 8.36914 259.754 9.20117C259.754 10.0332 260.025 10.4492 260.568 10.4492ZM270.453 2.57422C270.973 2.57422 271.377 2.75586 271.666 3.11914C271.959 3.48242 272.105 3.95312 272.105 4.53125C272.105 5.10938 271.959 5.58008 271.666 5.94336C271.373 6.30664 270.969 6.48828 270.453 6.48828C269.941 6.48828 269.537 6.30664 269.24 5.94336C268.943 5.57617 268.795 5.10547 268.795 4.53125C268.795 3.96875 268.943 3.50195 269.24 3.13086C269.541 2.75977 269.945 2.57422 270.453 2.57422ZM270.453 5.7793C270.996 5.7793 271.268 5.36328 271.268 4.53125C271.268 3.69922 270.996 3.2832 270.453 3.2832C269.906 3.2832 269.633 3.69922 269.633 4.53125C269.633 5.36328 269.906 5.7793 270.453 5.7793ZM274.689 2.73242L270.318 11H269.504L273.869 2.73242H274.689ZM273.775 7.24414C274.295 7.24414 274.701 7.42578 274.994 7.78906C275.287 8.14844 275.434 8.61914 275.434 9.20117C275.434 9.77539 275.285 10.2461 274.988 10.6133C274.695 10.9766 274.291 11.1582 273.775 11.1582C273.264 11.1582 272.859 10.9746 272.562 10.6074C272.266 10.2402 272.117 9.77148 272.117 9.20117C272.117 8.63477 272.266 8.16797 272.562 7.80078C272.863 7.42969 273.268 7.24414 273.775 7.24414ZM273.775 10.4492C274.318 10.4492 274.59 10.0332 274.59 9.20117C274.59 8.36914 274.318 7.95312 273.775 7.95312C273.232 7.95312 272.961 8.36914 272.961 9.20117C272.961 10.0332 273.232 10.4492 273.775 10.4492ZM283.66 2.57422C284.18 2.57422 284.584 2.75586 284.873 3.11914C285.166 3.48242 285.312 3.95312 285.312 4.53125C285.312 5.10938 285.166 5.58008 284.873 5.94336C284.58 6.30664 284.176 6.48828 283.66 6.48828C283.148 6.48828 282.744 6.30664 282.447 5.94336C282.15 5.57617 282.002 5.10547 282.002 4.53125C282.002 3.96875 282.15 3.50195 282.447 3.13086C282.748 2.75977 283.152 2.57422 283.66 2.57422ZM283.66 5.7793C284.203 5.7793 284.475 5.36328 284.475 4.53125C284.475 3.69922 284.203 3.2832 283.66 3.2832C283.113 3.2832 282.84 3.69922 282.84 4.53125C282.84 5.36328 283.113 5.7793 283.66 5.7793ZM287.896 2.73242L283.525 11H282.711L287.076 2.73242H287.896ZM286.982 7.24414C287.502 7.24414 287.908 7.42578 288.201 7.78906C288.494 8.14844 288.641 8.61914 288.641 9.20117C288.641 9.77539 288.492 10.2461 288.195 10.6133C287.902 10.9766 287.498 11.1582 286.982 11.1582C286.471 11.1582 286.066 10.9746 285.77 10.6074C285.473 10.2402 285.324 9.77148 285.324 9.20117C285.324 8.63477 285.473 8.16797 285.77 7.80078C286.07 7.42969 286.475 7.24414 286.982 7.24414ZM286.982 10.4492C287.525 10.4492 287.797 10.0332 287.797 9.20117C287.797 8.36914 287.525 7.95312 286.982 7.95312C286.439 7.95312 286.168 8.36914 286.168 9.20117C286.168 10.0332 286.439 10.4492 286.982 10.4492ZM296.867 2.57422C297.387 2.57422 297.791 2.75586 298.08 3.11914C298.373 3.48242 298.52 3.95312 298.52 4.53125C298.52 5.10938 298.373 5.58008 298.08 5.94336C297.787 6.30664 297.383 6.48828 296.867 6.48828C296.355 6.48828 295.951 6.30664 295.654 5.94336C295.357 5.57617 295.209 5.10547 295.209 4.53125C295.209 3.96875 295.357 3.50195 295.654 3.13086C295.955 2.75977 296.359 2.57422 296.867 2.57422ZM296.867 5.7793C297.41 5.7793 297.682 5.36328 297.682 4.53125C297.682 3.69922 297.41 3.2832 296.867 3.2832C296.32 3.2832 296.047 3.69922 296.047 4.53125C296.047 5.36328 296.32 5.7793 296.867 5.7793ZM301.104 2.73242L296.732 11H295.918L300.283 2.73242H301.104ZM300.189 7.24414C300.709 7.24414 301.115 7.42578 301.408 7.78906C301.701 8.14844 301.848 8.61914 301.848 9.20117C301.848 9.77539 301.699 10.2461 301.402 10.6133C301.109 10.9766 300.705 11.1582 300.189 11.1582C299.678 11.1582 299.273 10.9746 298.977 10.6074C298.68 10.2402 298.531 9.77148 298.531 9.20117C298.531 8.63477 298.68 8.16797 298.977 7.80078C299.277 7.42969 299.682 7.24414 300.189 7.24414ZM300.189 10.4492C300.732 10.4492 301.004 10.0332 301.004 9.20117C301.004 8.36914 300.732 7.95312 300.189 7.95312C299.646 7.95312 299.375 8.36914 299.375 9.20117C299.375 10.0332 299.646 10.4492 300.189 10.4492ZM310.074 2.57422C310.594 2.57422 310.998 2.75586 311.287 3.11914C311.58 3.48242 311.727 3.95312 311.727 4.53125C311.727 5.10938 311.58 5.58008 311.287 5.94336C310.994 6.30664 310.59 6.48828 310.074 6.48828C309.562 6.48828 309.158 6.30664 308.861 5.94336C308.564 5.57617 308.416 5.10547 308.416 4.53125C308.416 3.96875 308.564 3.50195 308.861 3.13086C309.162 2.75977 309.566 2.57422 310.074 2.57422ZM310.074 5.7793C310.617 5.7793 310.889 5.36328 310.889 4.53125C310.889 3.69922 310.617 3.2832 310.074 3.2832C309.527 3.2832 309.254 3.69922 309.254 4.53125C309.254 5.36328 309.527 5.7793 310.074 5.7793ZM314.311 2.73242L309.939 11H309.125L313.49 2.73242H314.311ZM313.396 7.24414C313.916 7.24414 314.322 7.42578 314.615 7.78906C314.908 8.14844 315.055 8.61914 315.055 9.20117C315.055 9.77539 314.906 10.2461 314.609 10.6133C314.316 10.9766 313.912 11.1582 313.396 11.1582C312.885 11.1582 312.48 10.9746 312.184 10.6074C311.887 10.2402 311.738 9.77148 311.738 9.20117C311.738 8.63477 311.887 8.16797 312.184 7.80078C312.484 7.42969 312.889 7.24414 313.396 7.24414ZM313.396 10.4492C313.939 10.4492 314.211 10.0332 314.211 9.20117C314.211 8.36914 313.939 7.95312 313.396 7.95312C312.854 7.95312 312.582 8.36914 312.582 9.20117C312.582 10.0332 312.854 10.4492 313.396 10.4492Z" fill="#3BFFCF"/>
<path d="M2.17383 23.6855C2.37695 23.4043 2.65039 23.1777 2.99414 23.0059C3.3418 22.834 3.70703 22.748 4.08984 22.748C4.79297 22.748 5.34375 23.0391 5.74219 23.6211C6.14453 24.1992 6.3457 24.9531 6.3457 25.8828C6.3457 26.8203 6.13477 27.6016 5.71289 28.2266C5.29492 28.8477 4.73047 29.1582 4.01953 29.1582C3.64062 29.1582 3.28516 29.0645 2.95312 28.877C2.625 28.6855 2.36523 28.4336 2.17383 28.1211V31.4141H1.25977V22.8945H2.17383V23.6855ZM2.17383 24.5938V27.1309C2.3457 27.4746 2.57812 27.7617 2.87109 27.9922C3.16406 28.2227 3.4668 28.3379 3.7793 28.3379C4.27148 28.3379 4.66211 28.1074 4.95117 27.6465C5.24414 27.1855 5.39062 26.6133 5.39062 25.9297C5.39062 25.2266 5.25195 24.6523 4.97461 24.207C4.69727 23.7617 4.31055 23.5391 3.81445 23.5391C3.16992 23.5391 2.62305 23.8906 2.17383 24.5938ZM15.3809 23.6855C15.584 23.4043 15.8574 23.1777 16.2012 23.0059C16.5488 22.834 16.9141 22.748 17.2969 22.748C18 22.748 18.5508 23.0391 18.9492 23.6211C19.3516 24.1992 19.5527 24.9531 19.5527 25.8828C19.5527 26.8203 19.3418 27.6016 18.9199 28.2266C18.502 28.8477 17.9375 29.1582 17.2266 29.1582C16.8477 29.1582 16.4922 29.0645 16.1602 28.877C15.832 28.6855 15.5723 28.4336 15.3809 28.1211V31.4141H14.4668V22.8945H15.3809V23.6855ZM15.3809 24.5938V27.1309C15.5527 27.4746 15.7852 27.7617 16.0781 27.9922C16.3711 28.2227 16.6738 28.3379 16.9863 28.3379C17.4785 28.3379 17.8691 28.1074 18.1582 27.6465C18.4512 27.1855 18.5977 26.6133 18.5977 25.9297C18.5977 25.2266 18.459 24.6523 18.1816 24.207C17.9043 23.7617 17.5176 23.5391 17.0215 23.5391C16.377 23.5391 15.8301 23.8906 15.3809 24.5938ZM28.5879 23.6855C28.791 23.4043 29.0645 23.1777 29.4082 23.0059C29.7559 22.834 30.1211 22.748 30.5039 22.748C31.207 22.748 31.7578 23.0391 32.1562 23.6211C32.5586 24.1992 32.7598 24.9531 32.7598 25.8828C32.7598 26.8203 32.5488 27.6016 32.127 28.2266C31.709 28.8477 31.1445 29.1582 30.4336 29.1582C30.0547 29.1582 29.6992 29.0645 29.3672 28.877C29.0391 28.6855 28.7793 28.4336 28.5879 28.1211V31.4141H27.6738V22.8945H28.5879V23.6855ZM28.5879 24.5938V27.1309C28.7598 27.4746 28.9922 27.7617 29.2852 27.9922C29.5781 28.2227 29.8809 28.3379 30.1934 28.3379C30.6855 28.3379 31.0762 28.1074 31.3652 27.6465C31.6582 27.1855 31.8047 26.6133 31.8047 25.9297C31.8047 25.2266 31.666 24.6523 31.3887 24.207C31.1113 23.7617 30.7246 23.5391 30.2285 23.5391C29.584 23.5391 29.0371 23.8906 28.5879 24.5938ZM41.7949 23.6855C41.998 23.4043 42.2715 23.1777 42.6152 23.0059C42.9629 22.834 43.3281 22.748 43.7109 22.748C44.4141 22.748 44.9648 23.0391 45.3633 23.6211C45.7656 24.1992 45.9668 24.9531 45.9668 25.8828C45.9668 26.8203 45.7559 27.6016 45.334 28.2266C44.916 28.8477 44.3516 29.1582 43.6406 29.1582C43.2617 29.1582 42.9062 29.0645 42.5742 28.877C42.2461 28.6855 41.9863 28.4336 41.7949 28.1211V31.4141H40.8809V22.8945H41.7949V23.6855ZM41.7949 24.5938V27.1309C41.9668 27.4746 42.1992 27.7617 42.4922 27.9922C42.7852 28.2227 43.0879 28.3379 43.4004 28.3379C43.8926 28.3379 44.2832 28.1074 44.5723 27.6465C44.8652 27.1855 45.0117 26.6133 45.0117 25.9297C45.0117 25.2266 44.873 24.6523 44.5957 24.207C44.3184 23.7617 43.9316 23.5391 43.4355 23.5391C42.791 23.5391 42.2441 23.8906 41.7949 24.5938ZM60.0293 31.6133H52.8281V30.8457H60.0293V31.6133ZM73.2363 31.6133H66.0352V30.8457H73.2363V31.6133ZM85.6113 25.1504H83.2383V27.5469H82.4707V25.1504H80.0684V24.3828H82.4707V21.9805H83.2383V24.3828H85.6113V25.1504ZM99.6504 31.6133H92.4492V30.8457H99.6504V31.6133ZM112.025 25.1504H109.652V27.5469H108.885V25.1504H106.482V24.3828H108.885V21.9805H109.652V24.3828H112.025V25.1504ZM126.064 31.6133H118.863V30.8457H126.064V31.6133ZM139.271 31.6133H132.07V30.8457H139.271V31.6133ZM150.557 26.1465H147.076V25.2559H150.557V26.1465ZM164.854 23.9727H159.311V23.2051H164.854V23.9727ZM164.854 26.3223H159.311V25.5547H164.854V26.3223ZM178.061 23.9727H172.518V23.2051H178.061V23.9727ZM178.061 26.3223H172.518V25.5547H178.061V26.3223ZM191.268 23.9727H185.725V23.2051H191.268V23.9727ZM191.268 26.3223H185.725V25.5547H191.268V26.3223ZM204.475 23.9727H198.932V23.2051H204.475V23.9727ZM204.475 26.3223H198.932V25.5547H204.475V26.3223ZM217.682 23.9727H212.139V23.2051H217.682V23.9727ZM217.682 26.3223H212.139V25.5547H217.682V26.3223ZM230.889 23.9727H225.346V23.2051H230.889V23.9727ZM230.889 26.3223H225.346V25.5547H230.889V26.3223ZM241.723 24.2598C242.461 24.5762 242.977 24.9277 243.27 25.3145C243.566 25.6973 243.715 26.1328 243.715 26.6211C243.715 27.2383 243.537 27.7637 243.182 28.1973C242.83 28.627 242.344 28.918 241.723 29.0703V29.8262H241.037V29.1582H240.99C240.279 29.1582 239.656 29.0176 239.121 28.7363L239.32 27.9102C239.949 28.1953 240.498 28.3379 240.967 28.3379H241.037V24.9219C240.197 24.5625 239.656 24.209 239.414 23.8613C239.176 23.5098 239.057 23.1387 239.057 22.748C239.057 22.1934 239.23 21.7285 239.578 21.3535C239.926 20.9785 240.412 20.7344 241.037 20.6211V20H241.723V20.5742C242.258 20.5742 242.785 20.6582 243.305 20.8262L243.088 21.6465C242.611 21.4785 242.156 21.3945 241.723 21.3945V24.2598ZM241.037 23.9375V21.4766C240.342 21.6602 239.994 22.0723 239.994 22.7129C239.994 23.1855 240.342 23.5938 241.037 23.9375ZM241.723 28.2324C242.426 27.9785 242.777 27.4824 242.777 26.7441C242.777 26.416 242.693 26.1367 242.525 25.9062C242.361 25.6758 242.094 25.459 241.723 25.2559V28.2324ZM254.93 24.2598C255.668 24.5762 256.184 24.9277 256.477 25.3145C256.773 25.6973 256.922 26.1328 256.922 26.6211C256.922 27.2383 256.744 27.7637 256.389 28.1973C256.037 28.627 255.551 28.918 254.93 29.0703V29.8262H254.244V29.1582H254.197C253.486 29.1582 252.863 29.0176 252.328 28.7363L252.527 27.9102C253.156 28.1953 253.705 28.3379 254.174 28.3379H254.244V24.9219C253.404 24.5625 252.863 24.209 252.621 23.8613C252.383 23.5098 252.264 23.1387 252.264 22.748C252.264 22.1934 252.438 21.7285 252.785 21.3535C253.133 20.9785 253.619 20.7344 254.244 20.6211V20H254.93V20.5742C255.465 20.5742 255.992 20.6582 256.512 20.8262L256.295 21.6465C255.818 21.4785 255.363 21.3945 254.93 21.3945V24.2598ZM254.244 23.9375V21.4766C253.549 21.6602 253.201 22.0723 253.201 22.7129C253.201 23.1855 253.549 23.5938 254.244 23.9375ZM254.93 28.2324C255.633 27.9785 255.984 27.4824 255.984 26.7441C255.984 26.416 255.9 26.1367 255.732 25.9062C255.568 25.6758 255.301 25.459 254.93 25.2559V28.2324ZM268.137 24.2598C268.875 24.5762 269.391 24.9277 269.684 25.3145C269.98 25.6973 270.129 26.1328 270.129 26.6211C270.129 27.2383 269.951 27.7637 269.596 28.1973C269.244 28.627 268.758 28.918 268.137 29.0703V29.8262H267.451V29.1582H267.404C266.693 29.1582 266.07 29.0176 265.535 28.7363L265.734 27.9102C266.363 28.1953 266.912 28.3379 267.381 28.3379H267.451V24.9219C266.611 24.5625 266.07 24.209 265.828 23.8613C265.59 23.5098 265.471 23.1387 265.471 22.748C265.471 22.1934 265.645 21.7285 265.992 21.3535C266.34 20.9785 266.826 20.7344 267.451 20.6211V20H268.137V20.5742C268.672 20.5742 269.199 20.6582 269.719 20.8262L269.502 21.6465C269.025 21.4785 268.57 21.3945 268.137 21.3945V24.2598ZM267.451 23.9375V21.4766C266.756 21.6602 266.408 22.0723 266.408 22.7129C266.408 23.1855 266.756 23.5938 267.451 23.9375ZM268.137 28.2324C268.84 27.9785 269.191 27.4824 269.191 26.7441C269.191 26.416 269.107 26.1367 268.939 25.9062C268.775 25.6758 268.508 25.459 268.137 25.2559V28.2324ZM279.281 20.5742C279.801 20.5742 280.205 20.7559 280.494 21.1191C280.787 21.4824 280.934 21.9531 280.934 22.5312C280.934 23.1094 280.787 23.5801 280.494 23.9434C280.201 24.3066 279.797 24.4883 279.281 24.4883C278.77 24.4883 278.365 24.3066 278.068 23.9434C277.771 23.5762 277.623 23.1055 277.623 22.5312C277.623 21.9688 277.771 21.502 278.068 21.1309C278.369 20.7598 278.773 20.5742 279.281 20.5742ZM279.281 23.7793C279.824 23.7793 280.096 23.3633 280.096 22.5312C280.096 21.6992 279.824 21.2832 279.281 21.2832C278.734 21.2832 278.461 21.6992 278.461 22.5312C278.461 23.3633 278.734 23.7793 279.281 23.7793ZM283.518 20.7324L279.146 29H278.332L282.697 20.7324H283.518ZM282.604 25.2441C283.123 25.2441 283.529 25.4258 283.822 25.7891C284.115 26.1484 284.262 26.6191 284.262 27.2012C284.262 27.7754 284.113 28.2461 283.816 28.6133C283.523 28.9766 283.119 29.1582 282.604 29.1582C282.092 29.1582 281.688 28.9746 281.391 28.6074C281.094 28.2402 280.945 27.7715 280.945 27.2012C280.945 26.6348 281.094 26.168 281.391 25.8008C281.691 25.4297 282.096 25.2441 282.604 25.2441ZM282.604 28.4492C283.146 28.4492 283.418 28.0332 283.418 27.2012C283.418 26.3691 283.146 25.9531 282.604 25.9531C282.061 25.9531 281.789 26.3691 281.789 27.2012C281.789 28.0332 282.061 28.4492 282.604 28.4492ZM292.488 20.5742C293.008 20.5742 293.412 20.7559 293.701 21.1191C293.994 21.4824 294.141 21.9531 294.141 22.5312C294.141 23.1094 293.994 23.5801 293.701 23.9434C293.408 24.3066 293.004 24.4883 292.488 24.4883C291.977 24.4883 291.572 24.3066 291.275 23.9434C290.979 23.5762 290.83 23.1055 290.83 22.5312C290.83 21.9688 290.979 21.502 291.275 21.1309C291.576 20.7598 291.98 20.5742 292.488 20.5742ZM292.488 23.7793C293.031 23.7793 293.303 23.3633 293.303 22.5312C293.303 21.6992 293.031 21.2832 292.488 21.2832C291.941 21.2832 291.668 21.6992 291.668 22.5312C291.668 23.3633 291.941 23.7793 292.488 23.7793ZM296.725 20.7324L292.354 29H291.539L295.904 20.7324H296.725ZM295.811 25.2441C296.33 25.2441 296.736 25.4258 297.029 25.7891C297.322 26.1484 297.469 26.6191 297.469 27.2012C297.469 27.7754 297.32 28.2461 297.023 28.6133C296.73 28.9766 296.326 29.1582 295.811 29.1582C295.299 29.1582 294.895 28.9746 294.598 28.6074C294.301 28.2402 294.152 27.7715 294.152 27.2012C294.152 26.6348 294.301 26.168 294.598 25.8008C294.898 25.4297 295.303 25.2441 295.811 25.2441ZM295.811 28.4492C296.354 28.4492 296.625 28.0332 296.625 27.2012C296.625 26.3691 296.354 25.9531 295.811 25.9531C295.268 25.9531 294.996 26.3691 294.996 27.2012C294.996 28.0332 295.268 28.4492 295.811 28.4492ZM305.695 20.5742C306.215 20.5742 306.619 20.7559 306.908 21.1191C307.201 21.4824 307.348 21.9531 307.348 22.5312C307.348 23.1094 307.201 23.5801 306.908 23.9434C306.615 24.3066 306.211 24.4883 305.695 24.4883C305.184 24.4883 304.779 24.3066 304.482 23.9434C304.186 23.5762 304.037 23.1055 304.037 22.5312C304.037 21.9688 304.186 21.502 304.482 21.1309C304.783 20.7598 305.188 20.5742 305.695 20.5742ZM305.695 23.7793C306.238 23.7793 306.51 23.3633 306.51 22.5312C306.51 21.6992 306.238 21.2832 305.695 21.2832C305.148 21.2832 304.875 21.6992 304.875 22.5312C304.875 23.3633 305.148 23.7793 305.695 23.7793ZM309.932 20.7324L305.561 29H304.746L309.111 20.7324H309.932ZM309.018 25.2441C309.537 25.2441 309.943 25.4258 310.236 25.7891C310.529 26.1484 310.676 26.6191 310.676 27.2012C310.676 27.7754 310.527 28.2461 310.23 28.6133C309.938 28.9766 309.533 29.1582 309.018 29.1582C308.506 29.1582 308.102 28.9746 307.805 28.6074C307.508 28.2402 307.359 27.7715 307.359 27.2012C307.359 26.6348 307.508 26.168 307.805 25.8008C308.105 25.4297 308.51 25.2441 309.018 25.2441ZM309.018 28.4492C309.561 28.4492 309.832 28.0332 309.832 27.2012C309.832 26.3691 309.561 25.9531 309.018 25.9531C308.475 25.9531 308.203 26.3691 308.203 27.2012C308.203 28.0332 308.475 28.4492 309.018 28.4492Z" fill="#3BFFCF"/>
<path d="M117.678 50.457C117.088 50.7852 116.451 50.9492 115.768 50.9492C114.822 50.9492 114.053 50.5645 113.459 49.7949C112.869 49.0215 112.574 47.9824 112.574 46.6777C112.574 45.1113 112.865 43.877 113.447 42.9746C114.033 42.0723 114.799 41.6211 115.744 41.6211C116.619 41.6211 117.332 41.9785 117.883 42.6934C118.434 43.4043 118.709 44.3633 118.709 45.5703C118.709 46.4727 118.527 47.2188 118.164 47.8086C117.805 48.3984 117.338 48.6934 116.764 48.6934C116.369 48.6934 116.117 48.4609 116.008 47.9961C115.785 48.4609 115.469 48.6934 115.059 48.6934C114.762 48.6934 114.514 48.5371 114.314 48.2246C114.115 47.9121 114.016 47.5039 114.016 47C114.016 46.2109 114.184 45.5527 114.52 45.0254C114.859 44.4941 115.279 44.2285 115.779 44.2285C115.975 44.2285 116.176 44.3008 116.383 44.4453L116.406 44.2988H117.139C116.904 46.4043 116.787 47.5332 116.787 47.6855C116.787 47.791 116.809 47.8789 116.852 47.9492C116.898 48.0195 116.957 48.0547 117.027 48.0547C117.289 48.0547 117.527 47.8223 117.742 47.3574C117.961 46.8887 118.07 46.293 118.07 45.5703C118.07 44.5391 117.859 43.7246 117.438 43.127C117.016 42.5254 116.451 42.2246 115.744 42.2246C114.986 42.2246 114.375 42.6211 113.91 43.4141C113.445 44.207 113.213 45.2949 113.213 46.6777C113.213 47.7871 113.447 48.6738 113.916 49.3379C114.389 50.002 115.006 50.334 115.768 50.334C116.396 50.334 116.988 50.1992 117.543 49.9297L117.678 50.457ZM116.295 45.0781C116.178 44.9336 116.018 44.8613 115.814 44.8613C115.494 44.8613 115.238 45.0488 115.047 45.4238C114.855 45.7988 114.76 46.2969 114.76 46.918C114.76 47.2734 114.809 47.5527 114.906 47.7559C115.004 47.9551 115.127 48.0547 115.275 48.0547C115.498 48.0547 115.682 47.9473 115.826 47.7324C115.971 47.5176 116.047 47.3652 116.055 47.2754L116.295 45.0781ZM130.885 50.457C130.295 50.7852 129.658 50.9492 128.975 50.9492C128.029 50.9492 127.26 50.5645 126.666 49.7949C126.076 49.0215 125.781 47.9824 125.781 46.6777C125.781 45.1113 126.072 43.877 126.654 42.9746C127.24 42.0723 128.006 41.6211 128.951 41.6211C129.826 41.6211 130.539 41.9785 131.09 42.6934C131.641 43.4043 131.916 44.3633 131.916 45.5703C131.916 46.4727 131.734 47.2188 131.371 47.8086C131.012 48.3984 130.545 48.6934 129.971 48.6934C129.576 48.6934 129.324 48.4609 129.215 47.9961C128.992 48.4609 128.676 48.6934 128.266 48.6934C127.969 48.6934 127.721 48.5371 127.521 48.2246C127.322 47.9121 127.223 47.5039 127.223 47C127.223 46.2109 127.391 45.5527 127.727 45.0254C128.066 44.4941 128.486 44.2285 128.986 44.2285C129.182 44.2285 129.383 44.3008 129.59 44.4453L129.613 44.2988H130.346C130.111 46.4043 129.994 47.5332 129.994 47.6855C129.994 47.791 130.016 47.8789 130.059 47.9492C130.105 48.0195 130.164 48.0547 130.234 48.0547C130.496 48.0547 130.734 47.8223 130.949 47.3574C131.168 46.8887 131.277 46.293 131.277 45.5703C131.277 44.5391 131.066 43.7246 130.645 43.127C130.223 42.5254 129.658 42.2246 128.951 42.2246C128.193 42.2246 127.582 42.6211 127.117 43.4141C126.652 44.207 126.42 45.2949 126.42 46.6777C126.42 47.7871 126.654 48.6738 127.123 49.3379C127.596 50.002 128.213 50.334 128.975 50.334C129.604 50.334 130.195 50.1992 130.75 49.9297L130.885 50.457ZM129.502 45.0781C129.385 44.9336 129.225 44.8613 129.021 44.8613C128.701 44.8613 128.445 45.0488 128.254 45.4238C128.062 45.7988 127.967 46.2969 127.967 46.918C127.967 47.2734 128.016 47.5527 128.113 47.7559C128.211 47.9551 128.334 48.0547 128.482 48.0547C128.705 48.0547 128.889 47.9473 129.033 47.7324C129.178 47.5176 129.254 47.3652 129.262 47.2754L129.502 45.0781ZM144.092 50.457C143.502 50.7852 142.865 50.9492 142.182 50.9492C141.236 50.9492 140.467 50.5645 139.873 49.7949C139.283 49.0215 138.988 47.9824 138.988 46.6777C138.988 45.1113 139.279 43.877 139.861 42.9746C140.447 42.0723 141.213 41.6211 142.158 41.6211C143.033 41.6211 143.746 41.9785 144.297 42.6934C144.848 43.4043 145.123 44.3633 145.123 45.5703C145.123 46.4727 144.941 47.2188 144.578 47.8086C144.219 48.3984 143.752 48.6934 143.178 48.6934C142.783 48.6934 142.531 48.4609 142.422 47.9961C142.199 48.4609 141.883 48.6934 141.473 48.6934C141.176 48.6934 140.928 48.5371 140.729 48.2246C140.529 47.9121 140.43 47.5039 140.43 47C140.43 46.2109 140.598 45.5527 140.934 45.0254C141.273 44.4941 141.693 44.2285 142.193 44.2285C142.389 44.2285 142.59 44.3008 142.797 44.4453L142.82 44.2988H143.553C143.318 46.4043 143.201 47.5332 143.201 47.6855C143.201 47.791 143.223 47.8789 143.266 47.9492C143.312 48.0195 143.371 48.0547 143.441 48.0547C143.703 48.0547 143.941 47.8223 144.156 47.3574C144.375 46.8887 144.484 46.293 144.484 45.5703C144.484 44.5391 144.273 43.7246 143.852 43.127C143.43 42.5254 142.865 42.2246 142.158 42.2246C141.4 42.2246 140.789 42.6211 140.324 43.4141C139.859 44.207 139.627 45.2949 139.627 46.6777C139.627 47.7871 139.861 48.6738 140.33 49.3379C140.803 50.002 141.42 50.334 142.182 50.334C142.811 50.334 143.402 50.1992 143.957 49.9297L144.092 50.457ZM142.709 45.0781C142.592 44.9336 142.432 44.8613 142.229 44.8613C141.908 44.8613 141.652 45.0488 141.461 45.4238C141.27 45.7988 141.174 46.2969 141.174 46.918C141.174 47.2734 141.223 47.5527 141.32 47.7559C141.418 47.9551 141.541 48.0547 141.689 48.0547C141.912 48.0547 142.096 47.9473 142.24 47.7324C142.385 47.5176 142.461 47.3652 142.469 47.2754L142.709 45.0781ZM155.652 44.4219L155.377 47.5156H154.873L154.598 44.4219V41.7324H155.652V44.4219ZM155.148 48.6582C155.355 48.6582 155.529 48.7285 155.67 48.8691C155.811 49.0098 155.881 49.1836 155.881 49.3906C155.881 49.5977 155.809 49.7773 155.664 49.9297C155.523 50.082 155.352 50.1582 155.148 50.1582C154.949 50.1582 154.779 50.084 154.639 49.9355C154.498 49.7832 154.428 49.6016 154.428 49.3906C154.428 49.1797 154.496 49.0059 154.633 48.8691C154.773 48.7285 154.945 48.6582 155.148 48.6582ZM168.859 44.4219L168.584 47.5156H168.08L167.805 44.4219V41.7324H168.859V44.4219ZM168.355 48.6582C168.562 48.6582 168.736 48.7285 168.877 48.8691C169.018 49.0098 169.088 49.1836 169.088 49.3906C169.088 49.5977 169.016 49.7773 168.871 49.9297C168.73 50.082 168.559 50.1582 168.355 50.1582C168.156 50.1582 167.986 50.084 167.846 49.9355C167.705 49.7832 167.635 49.6016 167.635 49.3906C167.635 49.1797 167.703 49.0059 167.84 48.8691C167.98 48.7285 168.152 48.6582 168.355 48.6582ZM182.066 44.4219L181.791 47.5156H181.287L181.012 44.4219V41.7324H182.066V44.4219ZM181.562 48.6582C181.77 48.6582 181.943 48.7285 182.084 48.8691C182.225 49.0098 182.295 49.1836 182.295 49.3906C182.295 49.5977 182.223 49.7773 182.078 49.9297C181.938 50.082 181.766 50.1582 181.562 50.1582C181.363 50.1582 181.193 50.084 181.053 49.9355C180.912 49.7832 180.842 49.6016 180.842 49.3906C180.842 49.1797 180.91 49.0059 181.047 48.8691C181.188 48.7285 181.359 48.6582 181.562 48.6582ZM195.273 44.4219L194.998 47.5156H194.494L194.219 44.4219V41.7324H195.273V44.4219ZM194.77 48.6582C194.977 48.6582 195.15 48.7285 195.291 48.8691C195.432 49.0098 195.502 49.1836 195.502 49.3906C195.502 49.5977 195.43 49.7773 195.285 49.9297C195.145 50.082 194.973 50.1582 194.77 50.1582C194.57 50.1582 194.4 50.084 194.26 49.9355C194.119 49.7832 194.049 49.6016 194.049 49.3906C194.049 49.1797 194.117 49.0059 194.254 48.8691C194.395 48.7285 194.566 48.6582 194.77 48.6582ZM208.48 44.4219L208.205 47.5156H207.701L207.426 44.4219V41.7324H208.48V44.4219ZM207.977 48.6582C208.184 48.6582 208.357 48.7285 208.498 48.8691C208.639 49.0098 208.709 49.1836 208.709 49.3906C208.709 49.5977 208.637 49.7773 208.492 49.9297C208.352 50.082 208.18 50.1582 207.977 50.1582C207.777 50.1582 207.607 50.084 207.467 49.9355C207.326 49.7832 207.256 49.6016 207.256 49.3906C207.256 49.1797 207.324 49.0059 207.461 48.8691C207.602 48.7285 207.773 48.6582 207.977 48.6582ZM224.377 47.6738H222.514L222.021 50H221.195L221.688 47.6738H220.117L219.625 50H218.799L219.291 47.6738H218.172V46.9062H219.455L219.9 44.8027H218.172V44.0352H220.059L220.551 41.7324H221.377L220.885 44.0352H222.455L222.947 41.7324H223.773L223.287 44.0352H224.377V44.8027H223.129L222.684 46.9062H224.377V47.6738ZM222.303 44.8027H220.727L220.287 46.9062H221.857L222.303 44.8027ZM234.859 45.2598C235.598 45.5762 236.113 45.9277 236.406 46.3145C236.703 46.6973 236.852 47.1328 236.852 47.6211C236.852 48.2383 236.674 48.7637 236.318 49.1973C235.967 49.627 235.48 49.918 234.859 50.0703V50.8262H234.174V50.1582H234.127C233.416 50.1582 232.793 50.0176 232.258 49.7363L232.457 48.9102C233.086 49.1953 233.635 49.3379 234.104 49.3379H234.174V45.9219C233.334 45.5625 232.793 45.209 232.551 44.8613C232.312 44.5098 232.193 44.1387 232.193 43.748C232.193 43.1934 232.367 42.7285 232.715 42.3535C233.062 41.9785 233.549 41.7344 234.174 41.6211V41H234.859V41.5742C235.395 41.5742 235.922 41.6582 236.441 41.8262L236.225 42.6465C235.748 42.4785 235.293 42.3945 234.859 42.3945V45.2598ZM234.174 44.9375V42.4766C233.479 42.6602 233.131 43.0723 233.131 43.7129C233.131 44.1855 233.479 44.5938 234.174 44.9375ZM234.859 49.2324C235.562 48.9785 235.914 48.4824 235.914 47.7441C235.914 47.416 235.83 47.1367 235.662 46.9062C235.498 46.6758 235.23 46.459 234.859 46.2559V49.2324ZM248.066 45.2598C248.805 45.5762 249.32 45.9277 249.613 46.3145C249.91 46.6973 250.059 47.1328 250.059 47.6211C250.059 48.2383 249.881 48.7637 249.525 49.1973C249.174 49.627 248.688 49.918 248.066 50.0703V50.8262H247.381V50.1582H247.334C246.623 50.1582 246 50.0176 245.465 49.7363L245.664 48.9102C246.293 49.1953 246.842 49.3379 247.311 49.3379H247.381V45.9219C246.541 45.5625 246 45.209 245.758 44.8613C245.52 44.5098 245.4 44.1387 245.4 43.748C245.4 43.1934 245.574 42.7285 245.922 42.3535C246.27 41.9785 246.756 41.7344 247.381 41.6211V41H248.066V41.5742C248.602 41.5742 249.129 41.6582 249.648 41.8262L249.432 42.6465C248.955 42.4785 248.5 42.3945 248.066 42.3945V45.2598ZM247.381 44.9375V42.4766C246.686 42.6602 246.338 43.0723 246.338 43.7129C246.338 44.1855 246.686 44.5938 247.381 44.9375ZM248.066 49.2324C248.77 48.9785 249.121 48.4824 249.121 47.7441C249.121 47.416 249.037 47.1367 248.869 46.9062C248.705 46.6758 248.438 46.459 248.066 46.2559V49.2324ZM262.955 50.457C262.365 50.7852 261.729 50.9492 261.045 50.9492C260.1 50.9492 259.33 50.5645 258.736 49.7949C258.146 49.0215 257.852 47.9824 257.852 46.6777C257.852 45.1113 258.143 43.877 258.725 42.9746C259.311 42.0723 260.076 41.6211 261.021 41.6211C261.896 41.6211 262.609 41.9785 263.16 42.6934C263.711 43.4043 263.986 44.3633 263.986 45.5703C263.986 46.4727 263.805 47.2188 263.441 47.8086C263.082 48.3984 262.615 48.6934 262.041 48.6934C261.646 48.6934 261.395 48.4609 261.285 47.9961C261.062 48.4609 260.746 48.6934 260.336 48.6934C260.039 48.6934 259.791 48.5371 259.592 48.2246C259.393 47.9121 259.293 47.5039 259.293 47C259.293 46.2109 259.461 45.5527 259.797 45.0254C260.137 44.4941 260.557 44.2285 261.057 44.2285C261.252 44.2285 261.453 44.3008 261.66 44.4453L261.684 44.2988H262.416C262.182 46.4043 262.064 47.5332 262.064 47.6855C262.064 47.791 262.086 47.8789 262.129 47.9492C262.176 48.0195 262.234 48.0547 262.305 48.0547C262.566 48.0547 262.805 47.8223 263.02 47.3574C263.238 46.8887 263.348 46.293 263.348 45.5703C263.348 44.5391 263.137 43.7246 262.715 43.127C262.293 42.5254 261.729 42.2246 261.021 42.2246C260.264 42.2246 259.652 42.6211 259.188 43.4141C258.723 44.207 258.49 45.2949 258.49 46.6777C258.49 47.7871 258.725 48.6738 259.193 49.3379C259.666 50.002 260.283 50.334 261.045 50.334C261.674 50.334 262.266 50.1992 262.82 49.9297L262.955 50.457ZM261.572 45.0781C261.455 44.9336 261.295 44.8613 261.092 44.8613C260.771 44.8613 260.516 45.0488 260.324 45.4238C260.133 45.7988 260.037 46.2969 260.037 46.918C260.037 47.2734 260.086 47.5527 260.184 47.7559C260.281 47.9551 260.404 48.0547 260.553 48.0547C260.775 48.0547 260.959 47.9473 261.104 47.7324C261.248 47.5176 261.324 47.3652 261.332 47.2754L261.572 45.0781ZM277.205 47.6738H275.342L274.85 50H274.023L274.516 47.6738H272.945L272.453 50H271.627L272.119 47.6738H271V46.9062H272.283L272.729 44.8027H271V44.0352H272.887L273.379 41.7324H274.205L273.713 44.0352H275.283L275.775 41.7324H276.602L276.115 44.0352H277.205V44.8027H275.957L275.512 46.9062H277.205V47.6738ZM275.131 44.8027H273.555L273.115 46.9062H274.686L275.131 44.8027ZM284.916 41.7324H286.545C287.627 41.7324 288.494 42.1016 289.146 42.8398C289.799 43.5742 290.125 44.584 290.125 45.8691C290.125 47.1816 289.793 48.1992 289.129 48.9219C288.469 49.6406 287.621 50 286.586 50H284.916V41.7324ZM285.877 49.1621H286.557C287.342 49.1621 287.963 48.8711 288.42 48.2891C288.877 47.707 289.105 46.9004 289.105 45.8691C289.105 44.8457 288.875 44.041 288.414 43.4551C287.957 42.8652 287.338 42.5703 286.557 42.5703H285.877V49.1621ZM298.123 41.7324H299.752C300.834 41.7324 301.701 42.1016 302.354 42.8398C303.006 43.5742 303.332 44.584 303.332 45.8691C303.332 47.1816 303 48.1992 302.336 48.9219C301.676 49.6406 300.828 50 299.793 50H298.123V41.7324ZM299.084 49.1621H299.764C300.549 49.1621 301.17 48.8711 301.627 48.2891C302.084 47.707 302.312 46.9004 302.312 45.8691C302.312 44.8457 302.082 44.041 301.621 43.4551C301.164 42.8652 300.545 42.5703 299.764 42.5703H299.084V49.1621ZM311.33 41.7324H312.959C314.041 41.7324 314.908 42.1016 315.561 42.8398C316.213 43.5742 316.539 44.584 316.539 45.8691C316.539 47.1816 316.207 48.1992 315.543 48.9219C314.883 49.6406 314.035 50 313 50H311.33V41.7324ZM312.291 49.1621H312.971C313.756 49.1621 314.377 48.8711 314.834 48.2891C315.291 47.707 315.52 46.9004 315.52 45.8691C315.52 44.8457 315.289 44.041 314.828 43.4551C314.371 42.8652 313.752 42.5703 312.971 42.5703H312.291V49.1621ZM330.262 41.7324L329.207 50H328.316L326.91 45.3418L325.51 50H324.596L323.564 41.7324H324.514L325.211 48.4531L326.43 44.3867H327.391L328.615 48.4648L329.324 41.7324H330.262ZM342.197 50.457C341.607 50.7852 340.971 50.9492 340.287 50.9492C339.342 50.9492 338.572 50.5645 337.979 49.7949C337.389 49.0215 337.094 47.9824 337.094 46.6777C337.094 45.1113 337.385 43.877 337.967 42.9746C338.553 42.0723 339.318 41.6211 340.264 41.6211C341.139 41.6211 341.852 41.9785 342.402 42.6934C342.953 43.4043 343.229 44.3633 343.229 45.5703C343.229 46.4727 343.047 47.2188 342.684 47.8086C342.324 48.3984 341.857 48.6934 341.283 48.6934C340.889 48.6934 340.637 48.4609 340.527 47.9961C340.305 48.4609 339.988 48.6934 339.578 48.6934C339.281 48.6934 339.033 48.5371 338.834 48.2246C338.635 47.9121 338.535 47.5039 338.535 47C338.535 46.2109 338.703 45.5527 339.039 45.0254C339.379 44.4941 339.799 44.2285 340.299 44.2285C340.494 44.2285 340.695 44.3008 340.902 44.4453L340.926 44.2988H341.658C341.424 46.4043 341.307 47.5332 341.307 47.6855C341.307 47.791 341.328 47.8789 341.371 47.9492C341.418 48.0195 341.477 48.0547 341.547 48.0547C341.809 48.0547 342.047 47.8223 342.262 47.3574C342.48 46.8887 342.59 46.293 342.59 45.5703C342.59 44.5391 342.379 43.7246 341.957 43.127C341.535 42.5254 340.971 42.2246 340.264 42.2246C339.506 42.2246 338.895 42.6211 338.43 43.4141C337.965 44.207 337.732 45.2949 337.732 46.6777C337.732 47.7871 337.967 48.6738 338.436 49.3379C338.908 50.002 339.525 50.334 340.287 50.334C340.916 50.334 341.508 50.1992 342.062 49.9297L342.197 50.457ZM340.814 45.0781C340.697 44.9336 340.537 44.8613 340.334 44.8613C340.014 44.8613 339.758 45.0488 339.566 45.4238C339.375 45.7988 339.279 46.2969 339.279 46.918C339.279 47.2734 339.328 47.5527 339.426 47.7559C339.523 47.9551 339.646 48.0547 339.795 48.0547C340.018 48.0547 340.201 47.9473 340.346 47.7324C340.49 47.5176 340.566 47.3652 340.574 47.2754L340.814 45.0781ZM356.447 47.6738H354.584L354.092 50H353.266L353.758 47.6738H352.188L351.695 50H350.869L351.361 47.6738H350.242V46.9062H351.525L351.971 44.8027H350.242V44.0352H352.129L352.621 41.7324H353.447L352.955 44.0352H354.525L355.018 41.7324H355.844L355.357 44.0352H356.447V44.8027H355.199L354.754 46.9062H356.447V47.6738ZM354.373 44.8027H352.797L352.357 46.9062H353.928L354.373 44.8027ZM366.93 45.2598C367.668 45.5762 368.184 45.9277 368.477 46.3145C368.773 46.6973 368.922 47.1328 368.922 47.6211C368.922 48.2383 368.744 48.7637 368.389 49.1973C368.037 49.627 367.551 49.918 366.93 50.0703V50.8262H366.244V50.1582H366.197C365.486 50.1582 364.863 50.0176 364.328 49.7363L364.527 48.9102C365.156 49.1953 365.705 49.3379 366.174 49.3379H366.244V45.9219C365.404 45.5625 364.863 45.209 364.621 44.8613C364.383 44.5098 364.264 44.1387 364.264 43.748C364.264 43.1934 364.438 42.7285 364.785 42.3535C365.133 41.9785 365.619 41.7344 366.244 41.6211V41H366.93V41.5742C367.465 41.5742 367.992 41.6582 368.512 41.8262L368.295 42.6465C367.818 42.4785 367.363 42.3945 366.93 42.3945V45.2598ZM366.244 44.9375V42.4766C365.549 42.6602 365.201 43.0723 365.201 43.7129C365.201 44.1855 365.549 44.5938 366.244 44.9375ZM366.93 49.2324C367.633 48.9785 367.984 48.4824 367.984 47.7441C367.984 47.416 367.9 47.1367 367.732 46.9062C367.568 46.6758 367.301 46.459 366.93 46.2559V49.2324ZM382.023 42.5703H378.602V45.2715H381.719V46.1094H378.602V50H377.641V41.7324H382.023V42.5703ZM395.23 42.5703H391.809V45.2715H394.926V46.1094H391.809V50H390.848V41.7324H395.23V42.5703ZM408.818 49.4141C408.143 49.9102 407.395 50.1582 406.574 50.1582C405.5 50.1582 404.686 49.7949 404.131 49.0684C403.576 48.3379 403.299 47.2715 403.299 45.8691C403.299 44.5137 403.566 43.459 404.102 42.7051C404.641 41.9512 405.465 41.5742 406.574 41.5742C406.973 41.5742 407.367 41.625 407.758 41.7266C408.148 41.8281 408.463 41.9629 408.701 42.1309L408.385 42.8867C407.834 42.5742 407.23 42.418 406.574 42.418C405.816 42.418 405.25 42.6953 404.875 43.25C404.504 43.8047 404.318 44.6777 404.318 45.8691C404.318 48.166 405.07 49.3145 406.574 49.3145C407.141 49.3145 407.568 49.1953 407.857 48.957V46.918H406.369V46.0859H408.818V49.4141ZM421.439 50.457C420.85 50.7852 420.213 50.9492 419.529 50.9492C418.584 50.9492 417.814 50.5645 417.221 49.7949C416.631 49.0215 416.336 47.9824 416.336 46.6777C416.336 45.1113 416.627 43.877 417.209 42.9746C417.795 42.0723 418.561 41.6211 419.506 41.6211C420.381 41.6211 421.094 41.9785 421.645 42.6934C422.195 43.4043 422.471 44.3633 422.471 45.5703C422.471 46.4727 422.289 47.2188 421.926 47.8086C421.566 48.3984 421.1 48.6934 420.525 48.6934C420.131 48.6934 419.879 48.4609 419.77 47.9961C419.547 48.4609 419.23 48.6934 418.82 48.6934C418.523 48.6934 418.275 48.5371 418.076 48.2246C417.877 47.9121 417.777 47.5039 417.777 47C417.777 46.2109 417.945 45.5527 418.281 45.0254C418.621 44.4941 419.041 44.2285 419.541 44.2285C419.736 44.2285 419.938 44.3008 420.145 44.4453L420.168 44.2988H420.9C420.666 46.4043 420.549 47.5332 420.549 47.6855C420.549 47.791 420.57 47.8789 420.613 47.9492C420.66 48.0195 420.719 48.0547 420.789 48.0547C421.051 48.0547 421.289 47.8223 421.504 47.3574C421.723 46.8887 421.832 46.293 421.832 45.5703C421.832 44.5391 421.621 43.7246 421.199 43.127C420.777 42.5254 420.213 42.2246 419.506 42.2246C418.748 42.2246 418.137 42.6211 417.672 43.4141C417.207 44.207 416.975 45.2949 416.975 46.6777C416.975 47.7871 417.209 48.6738 417.678 49.3379C418.15 50.002 418.768 50.334 419.529 50.334C420.158 50.334 420.75 50.1992 421.305 49.9297L421.439 50.457ZM420.057 45.0781C419.939 44.9336 419.779 44.8613 419.576 44.8613C419.256 44.8613 419 45.0488 418.809 45.4238C418.617 45.7988 418.521 46.2969 418.521 46.918C418.521 47.2734 418.57 47.5527 418.668 47.7559C418.766 47.9551 418.889 48.0547 419.037 48.0547C419.26 48.0547 419.443 47.9473 419.588 47.7324C419.732 47.5176 419.809 47.3652 419.816 47.2754L420.057 45.0781ZM435.689 47.6738H433.826L433.334 50H432.508L433 47.6738H431.43L430.938 50H430.111L430.604 47.6738H429.484V46.9062H430.768L431.213 44.8027H429.484V44.0352H431.371L431.863 41.7324H432.689L432.197 44.0352H433.768L434.26 41.7324H435.086L434.6 44.0352H435.689V44.8027H434.441L433.996 46.9062H435.689V47.6738ZM433.615 44.8027H432.039L431.6 46.9062H433.17L433.615 44.8027ZM448.896 47.6738H447.033L446.541 50H445.715L446.207 47.6738H444.637L444.145 50H443.318L443.811 47.6738H442.691V46.9062H443.975L444.42 44.8027H442.691V44.0352H444.578L445.07 41.7324H445.896L445.404 44.0352H446.975L447.467 41.7324H448.293L447.807 44.0352H448.896V44.8027H447.648L447.203 46.9062H448.896V47.6738ZM446.822 44.8027H445.246L444.807 46.9062H446.377L446.822 44.8027ZM462.104 47.6738H460.24L459.748 50H458.922L459.414 47.6738H457.844L457.352 50H456.525L457.018 47.6738H455.898V46.9062H457.182L457.627 44.8027H455.898V44.0352H457.785L458.277 41.7324H459.104L458.611 44.0352H460.182L460.674 41.7324H461.5L461.014 44.0352H462.104V44.8027H460.855L460.41 46.9062H462.104V47.6738ZM460.029 44.8027H458.453L458.014 46.9062H459.584L460.029 44.8027ZM475.311 47.6738H473.447L472.955 50H472.129L472.621 47.6738H471.051L470.559 50H469.732L470.225 47.6738H469.105V46.9062H470.389L470.834 44.8027H469.105V44.0352H470.992L471.484 41.7324H472.311L471.818 44.0352H473.389L473.881 41.7324H474.707L474.221 44.0352H475.311V44.8027H474.062L473.617 46.9062H475.311V47.6738ZM473.236 44.8027H471.66L471.221 46.9062H472.791L473.236 44.8027Z" fill="#3BFFCF"/>
<path d="M49.7129 69.7402L45.3301 67.1094V66.4062L49.7129 63.7988V64.6426L46.1973 66.7871L49.7129 68.8789V69.7402ZM62.9199 69.7402L58.5371 67.1094V66.4062L62.9199 63.7988V64.6426L59.4043 66.7871L62.9199 68.8789V69.7402ZM76.127 69.7402L71.7441 67.1094V66.4062L76.127 63.7988V64.6426L72.6113 66.7871L76.127 68.8789V69.7402ZM89.5625 67.1094L85.1797 69.7402V68.8789L88.6953 66.7871L85.1797 64.6426V63.7988L89.5625 66.4062V67.1094ZM102.541 69.7402L98.1582 67.1094V66.4062L102.541 63.7988V64.6426L99.0254 66.7871L102.541 68.8789V69.7402ZM115.977 67.1094L111.594 69.7402V68.8789L115.109 66.7871L111.594 64.6426V63.7988L115.977 66.4062V67.1094ZM124.648 63.043C125.34 62.7305 125.959 62.5742 126.506 62.5742C127.244 62.5742 127.814 62.7402 128.217 63.0723C128.619 63.4043 128.82 63.8945 128.82 64.543C128.82 65.2148 128.385 65.9121 127.514 66.6348C127.135 66.9473 126.902 67.1562 126.816 67.2617C126.734 67.3633 126.668 67.4883 126.617 67.6367C126.566 67.7852 126.541 67.9707 126.541 68.1934V68.5156H125.738V68.1816C125.738 67.502 125.955 66.9727 126.389 66.5938L127.162 65.9141C127.412 65.7031 127.596 65.4902 127.713 65.2754C127.83 65.0566 127.889 64.8242 127.889 64.5781C127.889 64.1719 127.76 63.8613 127.502 63.6465C127.244 63.4277 126.893 63.3184 126.447 63.3184C126.045 63.3184 125.537 63.4629 124.924 63.752L124.648 63.043ZM126.242 69.6582C126.449 69.6582 126.623 69.7285 126.764 69.8691C126.904 70.0098 126.975 70.1836 126.975 70.3906C126.975 70.6016 126.902 70.7832 126.758 70.9355C126.617 71.084 126.445 71.1582 126.242 71.1582C126.043 71.1582 125.873 71.084 125.732 70.9355C125.592 70.7832 125.521 70.6016 125.521 70.3906C125.521 70.1797 125.59 70.0059 125.727 69.8691C125.867 69.7285 126.039 69.6582 126.242 69.6582ZM137.855 63.043C138.547 62.7305 139.166 62.5742 139.713 62.5742C140.451 62.5742 141.021 62.7402 141.424 63.0723C141.826 63.4043 142.027 63.8945 142.027 64.543C142.027 65.2148 141.592 65.9121 140.721 66.6348C140.342 66.9473 140.109 67.1562 140.023 67.2617C139.941 67.3633 139.875 67.4883 139.824 67.6367C139.773 67.7852 139.748 67.9707 139.748 68.1934V68.5156H138.945V68.1816C138.945 67.502 139.162 66.9727 139.596 66.5938L140.369 65.9141C140.619 65.7031 140.803 65.4902 140.92 65.2754C141.037 65.0566 141.096 64.8242 141.096 64.5781C141.096 64.1719 140.967 63.8613 140.709 63.6465C140.451 63.4277 140.1 63.3184 139.654 63.3184C139.252 63.3184 138.744 63.4629 138.131 63.752L137.855 63.043ZM139.449 69.6582C139.656 69.6582 139.83 69.7285 139.971 69.8691C140.111 70.0098 140.182 70.1836 140.182 70.3906C140.182 70.6016 140.109 70.7832 139.965 70.9355C139.824 71.084 139.652 71.1582 139.449 71.1582C139.25 71.1582 139.08 71.084 138.939 70.9355C138.799 70.7832 138.729 70.6016 138.729 70.3906C138.729 70.1797 138.797 70.0059 138.934 69.8691C139.074 69.7285 139.246 69.6582 139.449 69.6582ZM151.062 63.043C151.754 62.7305 152.373 62.5742 152.92 62.5742C153.658 62.5742 154.229 62.7402 154.631 63.0723C155.033 63.4043 155.234 63.8945 155.234 64.543C155.234 65.2148 154.799 65.9121 153.928 66.6348C153.549 66.9473 153.316 67.1562 153.23 67.2617C153.148 67.3633 153.082 67.4883 153.031 67.6367C152.98 67.7852 152.955 67.9707 152.955 68.1934V68.5156H152.152V68.1816C152.152 67.502 152.369 66.9727 152.803 66.5938L153.576 65.9141C153.826 65.7031 154.01 65.4902 154.127 65.2754C154.244 65.0566 154.303 64.8242 154.303 64.5781C154.303 64.1719 154.174 63.8613 153.916 63.6465C153.658 63.4277 153.307 63.3184 152.861 63.3184C152.459 63.3184 151.951 63.4629 151.338 63.752L151.062 63.043ZM152.656 69.6582C152.863 69.6582 153.037 69.7285 153.178 69.8691C153.318 70.0098 153.389 70.1836 153.389 70.3906C153.389 70.6016 153.316 70.7832 153.172 70.9355C153.031 71.084 152.859 71.1582 152.656 71.1582C152.457 71.1582 152.287 71.084 152.146 70.9355C152.006 70.7832 151.936 70.6016 151.936 70.3906C151.936 70.1797 152.004 70.0059 152.141 69.8691C152.281 69.7285 152.453 69.6582 152.656 69.6582ZM164.27 63.043C164.961 62.7305 165.58 62.5742 166.127 62.5742C166.865 62.5742 167.436 62.7402 167.838 63.0723C168.24 63.4043 168.441 63.8945 168.441 64.543C168.441 65.2148 168.006 65.9121 167.135 66.6348C166.756 66.9473 166.523 67.1562 166.438 67.2617C166.355 67.3633 166.289 67.4883 166.238 67.6367C166.188 67.7852 166.162 67.9707 166.162 68.1934V68.5156H165.359V68.1816C165.359 67.502 165.576 66.9727 166.01 66.5938L166.783 65.9141C167.033 65.7031 167.217 65.4902 167.334 65.2754C167.451 65.0566 167.51 64.8242 167.51 64.5781C167.51 64.1719 167.381 63.8613 167.123 63.6465C166.865 63.4277 166.514 63.3184 166.068 63.3184C165.666 63.3184 165.158 63.4629 164.545 63.752L164.27 63.043ZM165.863 69.6582C166.07 69.6582 166.244 69.7285 166.385 69.8691C166.525 70.0098 166.596 70.1836 166.596 70.3906C166.596 70.6016 166.523 70.7832 166.379 70.9355C166.238 71.084 166.066 71.1582 165.863 71.1582C165.664 71.1582 165.494 71.084 165.354 70.9355C165.213 70.7832 165.143 70.6016 165.143 70.3906C165.143 70.1797 165.211 70.0059 165.348 69.8691C165.488 69.7285 165.66 69.6582 165.863 69.6582ZM177.477 63.043C178.168 62.7305 178.787 62.5742 179.334 62.5742C180.072 62.5742 180.643 62.7402 181.045 63.0723C181.447 63.4043 181.648 63.8945 181.648 64.543C181.648 65.2148 181.213 65.9121 180.342 66.6348C179.963 66.9473 179.73 67.1562 179.645 67.2617C179.562 67.3633 179.496 67.4883 179.445 67.6367C179.395 67.7852 179.369 67.9707 179.369 68.1934V68.5156H178.566V68.1816C178.566 67.502 178.783 66.9727 179.217 66.5938L179.99 65.9141C180.24 65.7031 180.424 65.4902 180.541 65.2754C180.658 65.0566 180.717 64.8242 180.717 64.5781C180.717 64.1719 180.588 63.8613 180.33 63.6465C180.072 63.4277 179.721 63.3184 179.275 63.3184C178.873 63.3184 178.365 63.4629 177.752 63.752L177.477 63.043ZM179.07 69.6582C179.277 69.6582 179.451 69.7285 179.592 69.8691C179.732 70.0098 179.803 70.1836 179.803 70.3906C179.803 70.6016 179.73 70.7832 179.586 70.9355C179.445 71.084 179.273 71.1582 179.07 71.1582C178.871 71.1582 178.701 71.084 178.561 70.9355C178.42 70.7832 178.35 70.6016 178.35 70.3906C178.35 70.1797 178.418 70.0059 178.555 69.8691C178.695 69.7285 178.867 69.6582 179.07 69.6582ZM190.684 63.043C191.375 62.7305 191.994 62.5742 192.541 62.5742C193.279 62.5742 193.85 62.7402 194.252 63.0723C194.654 63.4043 194.855 63.8945 194.855 64.543C194.855 65.2148 194.42 65.9121 193.549 66.6348C193.17 66.9473 192.938 67.1562 192.852 67.2617C192.77 67.3633 192.703 67.4883 192.652 67.6367C192.602 67.7852 192.576 67.9707 192.576 68.1934V68.5156H191.773V68.1816C191.773 67.502 191.99 66.9727 192.424 66.5938L193.197 65.9141C193.447 65.7031 193.631 65.4902 193.748 65.2754C193.865 65.0566 193.924 64.8242 193.924 64.5781C193.924 64.1719 193.795 63.8613 193.537 63.6465C193.279 63.4277 192.928 63.3184 192.482 63.3184C192.08 63.3184 191.572 63.4629 190.959 63.752L190.684 63.043ZM192.277 69.6582C192.484 69.6582 192.658 69.7285 192.799 69.8691C192.939 70.0098 193.01 70.1836 193.01 70.3906C193.01 70.6016 192.938 70.7832 192.793 70.9355C192.652 71.084 192.48 71.1582 192.277 71.1582C192.078 71.1582 191.908 71.084 191.768 70.9355C191.627 70.7832 191.557 70.6016 191.557 70.3906C191.557 70.1797 191.625 70.0059 191.762 69.8691C191.902 69.7285 192.074 69.6582 192.277 69.6582ZM206.516 65.4219L206.24 68.5156H205.736L205.461 65.4219V62.7324H206.516V65.4219ZM206.012 69.6582C206.219 69.6582 206.393 69.7285 206.533 69.8691C206.674 70.0098 206.744 70.1836 206.744 70.3906C206.744 70.5977 206.672 70.7773 206.527 70.9297C206.387 71.082 206.215 71.1582 206.012 71.1582C205.812 71.1582 205.643 71.084 205.502 70.9355C205.361 70.7832 205.291 70.6016 205.291 70.3906C205.291 70.1797 205.359 70.0059 205.496 69.8691C205.637 69.7285 205.809 69.6582 206.012 69.6582ZM219.723 65.4219L219.447 68.5156H218.943L218.668 65.4219V62.7324H219.723V65.4219ZM219.219 69.6582C219.426 69.6582 219.6 69.7285 219.74 69.8691C219.881 70.0098 219.951 70.1836 219.951 70.3906C219.951 70.5977 219.879 70.7773 219.734 70.9297C219.594 71.082 219.422 71.1582 219.219 71.1582C219.02 71.1582 218.85 71.084 218.709 70.9355C218.568 70.7832 218.498 70.6016 218.498 70.3906C218.498 70.1797 218.566 70.0059 218.703 69.8691C218.844 69.7285 219.016 69.6582 219.219 69.6582ZM232.93 65.4219L232.654 68.5156H232.15L231.875 65.4219V62.7324H232.93V65.4219ZM232.426 69.6582C232.633 69.6582 232.807 69.7285 232.947 69.8691C233.088 70.0098 233.158 70.1836 233.158 70.3906C233.158 70.5977 233.086 70.7773 232.941 70.9297C232.801 71.082 232.629 71.1582 232.426 71.1582C232.227 71.1582 232.057 71.084 231.916 70.9355C231.775 70.7832 231.705 70.6016 231.705 70.3906C231.705 70.1797 231.773 70.0059 231.91 69.8691C232.051 69.7285 232.223 69.6582 232.426 69.6582ZM247.783 71.457C247.193 71.7852 246.557 71.9492 245.873 71.9492C244.928 71.9492 244.158 71.5645 243.564 70.7949C242.975 70.0215 242.68 68.9824 242.68 67.6777C242.68 66.1113 242.971 64.877 243.553 63.9746C244.139 63.0723 244.904 62.6211 245.85 62.6211C246.725 62.6211 247.438 62.9785 247.988 63.6934C248.539 64.4043 248.814 65.3633 248.814 66.5703C248.814 67.4727 248.633 68.2188 248.27 68.8086C247.91 69.3984 247.443 69.6934 246.869 69.6934C246.475 69.6934 246.223 69.4609 246.113 68.9961C245.891 69.4609 245.574 69.6934 245.164 69.6934C244.867 69.6934 244.619 69.5371 244.42 69.2246C244.221 68.9121 244.121 68.5039 244.121 68C244.121 67.2109 244.289 66.5527 244.625 66.0254C244.965 65.4941 245.385 65.2285 245.885 65.2285C246.08 65.2285 246.281 65.3008 246.488 65.4453L246.512 65.2988H247.244C247.01 67.4043 246.893 68.5332 246.893 68.6855C246.893 68.791 246.914 68.8789 246.957 68.9492C247.004 69.0195 247.062 69.0547 247.133 69.0547C247.395 69.0547 247.633 68.8223 247.848 68.3574C248.066 67.8887 248.176 67.293 248.176 66.5703C248.176 65.5391 247.965 64.7246 247.543 64.127C247.121 63.5254 246.557 63.2246 245.85 63.2246C245.092 63.2246 244.48 63.6211 244.016 64.4141C243.551 65.207 243.318 66.2949 243.318 67.6777C243.318 68.7871 243.553 69.6738 244.021 70.3379C244.494 71.002 245.111 71.334 245.873 71.334C246.502 71.334 247.094 71.1992 247.648 70.9297L247.783 71.457ZM246.4 66.0781C246.283 65.9336 246.123 65.8613 245.92 65.8613C245.6 65.8613 245.344 66.0488 245.152 66.4238C244.961 66.7988 244.865 67.2969 244.865 67.918C244.865 68.2734 244.914 68.5527 245.012 68.7559C245.109 68.9551 245.232 69.0547 245.381 69.0547C245.604 69.0547 245.787 68.9473 245.932 68.7324C246.076 68.5176 246.152 68.3652 246.16 68.2754L246.4 66.0781ZM260.99 71.457C260.4 71.7852 259.764 71.9492 259.08 71.9492C258.135 71.9492 257.365 71.5645 256.771 70.7949C256.182 70.0215 255.887 68.9824 255.887 67.6777C255.887 66.1113 256.178 64.877 256.76 63.9746C257.346 63.0723 258.111 62.6211 259.057 62.6211C259.932 62.6211 260.645 62.9785 261.195 63.6934C261.746 64.4043 262.021 65.3633 262.021 66.5703C262.021 67.4727 261.84 68.2188 261.477 68.8086C261.117 69.3984 260.65 69.6934 260.076 69.6934C259.682 69.6934 259.43 69.4609 259.32 68.9961C259.098 69.4609 258.781 69.6934 258.371 69.6934C258.074 69.6934 257.826 69.5371 257.627 69.2246C257.428 68.9121 257.328 68.5039 257.328 68C257.328 67.2109 257.496 66.5527 257.832 66.0254C258.172 65.4941 258.592 65.2285 259.092 65.2285C259.287 65.2285 259.488 65.3008 259.695 65.4453L259.719 65.2988H260.451C260.217 67.4043 260.1 68.5332 260.1 68.6855C260.1 68.791 260.121 68.8789 260.164 68.9492C260.211 69.0195 260.27 69.0547 260.34 69.0547C260.602 69.0547 260.84 68.8223 261.055 68.3574C261.273 67.8887 261.383 67.293 261.383 66.5703C261.383 65.5391 261.172 64.7246 260.75 64.127C260.328 63.5254 259.764 63.2246 259.057 63.2246C258.299 63.2246 257.688 63.6211 257.223 64.4141C256.758 65.207 256.525 66.2949 256.525 67.6777C256.525 68.7871 256.76 69.6738 257.229 70.3379C257.701 71.002 258.318 71.334 259.08 71.334C259.709 71.334 260.301 71.1992 260.855 70.9297L260.99 71.457ZM259.607 66.0781C259.49 65.9336 259.33 65.8613 259.127 65.8613C258.807 65.8613 258.551 66.0488 258.359 66.4238C258.168 66.7988 258.072 67.2969 258.072 67.918C258.072 68.2734 258.121 68.5527 258.219 68.7559C258.316 68.9551 258.439 69.0547 258.588 69.0547C258.811 69.0547 258.994 68.9473 259.139 68.7324C259.283 68.5176 259.359 68.3652 259.367 68.2754L259.607 66.0781ZM274.232 69.7402L269.85 67.1094V66.4062L274.232 63.7988V64.6426L270.717 66.7871L274.232 68.8789V69.7402ZM287.088 63.6465C286.596 63.4785 286.129 63.3945 285.688 63.3945C285.188 63.3945 284.779 63.5098 284.463 63.7402C284.15 63.9668 283.994 64.291 283.994 64.7129C283.994 65.2129 284.406 65.6523 285.23 66.0312C285.84 66.3125 286.242 66.5078 286.438 66.6172C286.637 66.7266 286.838 66.877 287.041 67.0684C287.244 67.2598 287.406 67.4863 287.527 67.748C287.652 68.0059 287.715 68.2969 287.715 68.6211C287.715 69.4258 287.443 70.0508 286.9 70.4961C286.361 70.9375 285.725 71.1582 284.99 71.1582C284.279 71.1582 283.656 71.0176 283.121 70.7363L283.32 69.9102C283.949 70.1953 284.498 70.3379 284.967 70.3379C285.514 70.3379 285.951 70.1973 286.279 69.916C286.611 69.6309 286.777 69.2402 286.777 68.7441C286.777 68.377 286.67 68.0664 286.455 67.8125C286.24 67.5547 285.844 67.293 285.266 67.0273C284.672 66.7539 284.287 66.5684 284.111 66.4707C283.939 66.3691 283.768 66.2305 283.596 66.0547C283.424 65.8789 283.291 65.6816 283.197 65.4629C283.104 65.2441 283.057 65.0059 283.057 64.748C283.057 64.0645 283.303 63.5312 283.795 63.1484C284.287 62.7656 284.91 62.5742 285.664 62.5742C286.215 62.5742 286.762 62.6582 287.305 62.8262L287.088 63.6465ZM296.158 62.7324H297.787C298.869 62.7324 299.736 63.1016 300.389 63.8398C301.041 64.5742 301.367 65.584 301.367 66.8691C301.367 68.1816 301.035 69.1992 300.371 69.9219C299.711 70.6406 298.863 71 297.828 71H296.158V62.7324ZM297.119 70.1621H297.799C298.584 70.1621 299.205 69.8711 299.662 69.2891C300.119 68.707 300.348 67.9004 300.348 66.8691C300.348 65.8457 300.117 65.041 299.656 64.4551C299.199 63.8652 298.58 63.5703 297.799 63.5703H297.119V70.1621ZM313.959 71H309.641V62.7324H313.924V63.5703H310.602V66.1309H313.795V66.9688H310.602V70.1621H313.959V71ZM327.166 71H322.848V62.7324H327.131V63.5703H323.809V66.1309H327.002V66.9688H323.809V70.1621H327.166V71ZM340.701 67.9766H336.512C336.512 68.668 336.711 69.2383 337.109 69.6875C337.512 70.1367 338.004 70.3613 338.586 70.3613C339.141 70.3613 339.713 70.2617 340.303 70.0625L340.461 70.7949C339.922 71.0371 339.293 71.1582 338.574 71.1582C337.668 71.1582 336.938 70.8672 336.383 70.2852C335.828 69.7031 335.551 68.918 335.551 67.9297C335.551 66.9609 335.799 66.1895 336.295 65.6152C336.795 65.0371 337.439 64.748 338.229 64.748C338.932 64.748 339.52 65.0156 339.992 65.5508C340.465 66.0859 340.701 66.7988 340.701 67.6895V67.9766ZM339.705 67.2324C339.705 66.7559 339.557 66.3555 339.26 66.0312C338.963 65.7031 338.631 65.5391 338.264 65.5391C337.791 65.5391 337.398 65.6953 337.086 66.0078C336.777 66.3203 336.605 66.7285 336.57 67.2324H339.705ZM351.793 65.4219L351.518 68.5156H351.014L350.738 65.4219V62.7324H351.793V65.4219ZM351.289 69.6582C351.496 69.6582 351.67 69.7285 351.811 69.8691C351.951 70.0098 352.021 70.1836 352.021 70.3906C352.021 70.5977 351.949 70.7773 351.805 70.9297C351.664 71.082 351.492 71.1582 351.289 71.1582C351.09 71.1582 350.92 71.084 350.779 70.9355C350.639 70.7832 350.568 70.6016 350.568 70.3906C350.568 70.1797 350.637 70.0059 350.773 69.8691C350.914 69.7285 351.086 69.6582 351.289 69.6582ZM365 65.4219L364.725 68.5156H364.221L363.945 65.4219V62.7324H365V65.4219ZM364.496 69.6582C364.703 69.6582 364.877 69.7285 365.018 69.8691C365.158 70.0098 365.229 70.1836 365.229 70.3906C365.229 70.5977 365.156 70.7773 365.012 70.9297C364.871 71.082 364.699 71.1582 364.496 71.1582C364.297 71.1582 364.127 71.084 363.986 70.9355C363.846 70.7832 363.775 70.6016 363.775 70.3906C363.775 70.1797 363.844 70.0059 363.98 69.8691C364.121 69.7285 364.293 69.6582 364.496 69.6582ZM378.207 65.4219L377.932 68.5156H377.428L377.152 65.4219V62.7324H378.207V65.4219ZM377.703 69.6582C377.91 69.6582 378.084 69.7285 378.225 69.8691C378.365 70.0098 378.436 70.1836 378.436 70.3906C378.436 70.5977 378.363 70.7773 378.219 70.9297C378.078 71.082 377.906 71.1582 377.703 71.1582C377.504 71.1582 377.334 71.084 377.193 70.9355C377.053 70.7832 376.982 70.6016 376.982 70.3906C376.982 70.1797 377.051 70.0059 377.188 69.8691C377.328 69.7285 377.5 69.6582 377.703 69.6582ZM394.332 62.7324L393.277 71H392.387L390.98 66.3418L389.58 71H388.666L387.635 62.7324H388.584L389.281 69.4531L390.5 65.3867H391.461L392.686 69.4648L393.395 62.7324H394.332ZM405.951 63.6465C405.459 63.4785 404.992 63.3945 404.551 63.3945C404.051 63.3945 403.643 63.5098 403.326 63.7402C403.014 63.9668 402.857 64.291 402.857 64.7129C402.857 65.2129 403.27 65.6523 404.094 66.0312C404.703 66.3125 405.105 66.5078 405.301 66.6172C405.5 66.7266 405.701 66.877 405.904 67.0684C406.107 67.2598 406.27 67.4863 406.391 67.748C406.516 68.0059 406.578 68.2969 406.578 68.6211C406.578 69.4258 406.307 70.0508 405.764 70.4961C405.225 70.9375 404.588 71.1582 403.854 71.1582C403.143 71.1582 402.52 71.0176 401.984 70.7363L402.184 69.9102C402.812 70.1953 403.361 70.3379 403.83 70.3379C404.377 70.3379 404.814 70.1973 405.143 69.916C405.475 69.6309 405.641 69.2402 405.641 68.7441C405.641 68.377 405.533 68.0664 405.318 67.8125C405.104 67.5547 404.707 67.293 404.129 67.0273C403.535 66.7539 403.15 66.5684 402.975 66.4707C402.803 66.3691 402.631 66.2305 402.459 66.0547C402.287 65.8789 402.154 65.6816 402.061 65.4629C401.967 65.2441 401.92 65.0059 401.92 64.748C401.92 64.0645 402.166 63.5312 402.658 63.1484C403.15 62.7656 403.773 62.5742 404.527 62.5742C405.078 62.5742 405.625 62.6582 406.168 62.8262L405.951 63.6465ZM417.816 73.2441H416.914V62.7324H417.816V73.2441ZM431.023 73.2441H430.121V62.7324H431.023V73.2441ZM444.23 73.2441H443.328V62.7324H444.23V73.2441Z" fill="#3BFFCF"/>
</svg>
