<svg width="510" height="98" viewBox="0 0 510 98" fill="none" xmlns="http://www.w3.org/2000/svg">
<path d="M58.6777 11.457C58.0879 11.7852 57.4512 11.9492 56.7676 11.9492C55.8223 11.9492 55.0527 11.5645 54.459 10.7949C53.8691 10.0215 53.5742 8.98242 53.5742 7.67773C53.5742 6.11133 53.8652 4.87695 54.4473 3.97461C55.0332 3.07227 55.7988 2.62109 56.7441 2.62109C57.6191 2.62109 58.332 2.97852 58.8828 3.69336C59.4336 4.4043 59.709 5.36328 59.709 6.57031C59.709 7.47266 59.5273 8.21875 59.1641 8.80859C58.8047 9.39844 58.3379 9.69336 57.7637 9.69336C57.3691 9.69336 57.1172 9.46094 57.0078 8.99609C56.7852 9.46094 56.4688 9.69336 56.0586 9.69336C55.7617 9.69336 55.5137 9.53711 55.3145 9.22461C55.1152 8.91211 55.0156 8.50391 55.0156 8C55.0156 7.21094 55.1836 6.55273 55.5195 6.02539C55.8594 5.49414 56.2793 5.22852 56.7793 5.22852C56.9746 5.22852 57.1758 5.30078 57.3828 5.44531L57.4062 5.29883H58.1387C57.9043 7.4043 57.7871 8.5332 57.7871 8.68555C57.7871 8.79102 57.8086 8.87891 57.8516 8.94922C57.8984 9.01953 57.957 9.05469 58.0273 9.05469C58.2891 9.05469 58.5273 8.82227 58.7422 8.35742C58.9609 7.88867 59.0703 7.29297 59.0703 6.57031C59.0703 5.53906 58.8594 4.72461 58.4375 4.12695C58.0156 3.52539 57.4512 3.22461 56.7441 3.22461C55.9863 3.22461 55.375 3.62109 54.9102 4.41406C54.4453 5.20703 54.2129 6.29492 54.2129 7.67773C54.2129 8.78711 54.4473 9.67383 54.916 10.3379C55.3887 11.002 56.0059 11.334 56.7676 11.334C57.3965 11.334 57.9883 11.1992 58.543 10.9297L58.6777 11.457ZM57.2949 6.07812C57.1777 5.93359 57.0176 5.86133 56.8145 5.86133C56.4941 5.86133 56.2383 6.04883 56.0469 6.42383C55.8555 6.79883 55.7598 7.29688 55.7598 7.91797C55.7598 8.27344 55.8086 8.55273 55.9062 8.75586C56.0039 8.95508 56.127 9.05469 56.2754 9.05469C56.498 9.05469 56.6816 8.94727 56.8262 8.73242C56.9707 8.51758 57.0469 8.36523 57.0547 8.27539L57.2949 6.07812ZM71.8848 11.457C71.2949 11.7852 70.6582 11.9492 69.9746 11.9492C69.0293 11.9492 68.2598 11.5645 67.666 10.7949C67.0762 10.0215 66.7812 8.98242 66.7812 7.67773C66.7812 6.11133 67.0723 4.87695 67.6543 3.97461C68.2402 3.07227 69.0059 2.62109 69.9512 2.62109C70.8262 2.62109 71.5391 2.97852 72.0898 3.69336C72.6406 4.4043 72.916 5.36328 72.916 6.57031C72.916 7.47266 72.7344 8.21875 72.3711 8.80859C72.0117 9.39844 71.5449 9.69336 70.9707 9.69336C70.5762 9.69336 70.3242 9.46094 70.2148 8.99609C69.9922 9.46094 69.6758 9.69336 69.2656 9.69336C68.9688 9.69336 68.7207 9.53711 68.5215 9.22461C68.3223 8.91211 68.2227 8.50391 68.2227 8C68.2227 7.21094 68.3906 6.55273 68.7266 6.02539C69.0664 5.49414 69.4863 5.22852 69.9863 5.22852C70.1816 5.22852 70.3828 5.30078 70.5898 5.44531L70.6133 5.29883H71.3457C71.1113 7.4043 70.9941 8.5332 70.9941 8.68555C70.9941 8.79102 71.0156 8.87891 71.0586 8.94922C71.1055 9.01953 71.1641 9.05469 71.2344 9.05469C71.4961 9.05469 71.7344 8.82227 71.9492 8.35742C72.168 7.88867 72.2773 7.29297 72.2773 6.57031C72.2773 5.53906 72.0664 4.72461 71.6445 4.12695C71.2227 3.52539 70.6582 3.22461 69.9512 3.22461C69.1934 3.22461 68.582 3.62109 68.1172 4.41406C67.6523 5.20703 67.4199 6.29492 67.4199 7.67773C67.4199 8.78711 67.6543 9.67383 68.123 10.3379C68.5957 11.002 69.2129 11.334 69.9746 11.334C70.6035 11.334 71.1953 11.1992 71.75 10.9297L71.8848 11.457ZM70.502 6.07812C70.3848 5.93359 70.2246 5.86133 70.0215 5.86133C69.7012 5.86133 69.4453 6.04883 69.2539 6.42383C69.0625 6.79883 68.9668 7.29688 68.9668 7.91797C68.9668 8.27344 69.0156 8.55273 69.1133 8.75586C69.2109 8.95508 69.334 9.05469 69.4824 9.05469C69.7051 9.05469 69.8887 8.94727 70.0332 8.73242C70.1777 8.51758 70.2539 8.36523 70.2617 8.27539L70.502 6.07812ZM85.0918 11.457C84.502 11.7852 83.8652 11.9492 83.1816 11.9492C82.2363 11.9492 81.4668 11.5645 80.873 10.7949C80.2832 10.0215 79.9883 8.98242 79.9883 7.67773C79.9883 6.11133 80.2793 4.87695 80.8613 3.97461C81.4473 3.07227 82.2129 2.62109 83.1582 2.62109C84.0332 2.62109 84.7461 2.97852 85.2969 3.69336C85.8477 4.4043 86.123 5.36328 86.123 6.57031C86.123 7.47266 85.9414 8.21875 85.5781 8.80859C85.2188 9.39844 84.752 9.69336 84.1777 9.69336C83.7832 9.69336 83.5312 9.46094 83.4219 8.99609C83.1992 9.46094 82.8828 9.69336 82.4727 9.69336C82.1758 9.69336 81.9277 9.53711 81.7285 9.22461C81.5293 8.91211 81.4297 8.50391 81.4297 8C81.4297 7.21094 81.5977 6.55273 81.9336 6.02539C82.2734 5.49414 82.6934 5.22852 83.1934 5.22852C83.3887 5.22852 83.5898 5.30078 83.7969 5.44531L83.8203 5.29883H84.5527C84.3184 7.4043 84.2012 8.5332 84.2012 8.68555C84.2012 8.79102 84.2227 8.87891 84.2656 8.94922C84.3125 9.01953 84.3711 9.05469 84.4414 9.05469C84.7031 9.05469 84.9414 8.82227 85.1562 8.35742C85.375 7.88867 85.4844 7.29297 85.4844 6.57031C85.4844 5.53906 85.2734 4.72461 84.8516 4.12695C84.4297 3.52539 83.8652 3.22461 83.1582 3.22461C82.4004 3.22461 81.7891 3.62109 81.3242 4.41406C80.8594 5.20703 80.627 6.29492 80.627 7.67773C80.627 8.78711 80.8613 9.67383 81.3301 10.3379C81.8027 11.002 82.4199 11.334 83.1816 11.334C83.8105 11.334 84.4023 11.1992 84.957 10.9297L85.0918 11.457ZM83.709 6.07812C83.5918 5.93359 83.4316 5.86133 83.2285 5.86133C82.9082 5.86133 82.6523 6.04883 82.4609 6.42383C82.2695 6.79883 82.1738 7.29688 82.1738 7.91797C82.1738 8.27344 82.2227 8.55273 82.3203 8.75586C82.418 8.95508 82.541 9.05469 82.6895 9.05469C82.9121 9.05469 83.0957 8.94727 83.2402 8.73242C83.3848 8.51758 83.4609 8.36523 83.4688 8.27539L83.709 6.07812ZM98.2988 11.457C97.709 11.7852 97.0723 11.9492 96.3887 11.9492C95.4434 11.9492 94.6738 11.5645 94.0801 10.7949C93.4902 10.0215 93.1953 8.98242 93.1953 7.67773C93.1953 6.11133 93.4863 4.87695 94.0684 3.97461C94.6543 3.07227 95.4199 2.62109 96.3652 2.62109C97.2402 2.62109 97.9531 2.97852 98.5039 3.69336C99.0547 4.4043 99.3301 5.36328 99.3301 6.57031C99.3301 7.47266 99.1484 8.21875 98.7852 8.80859C98.4258 9.39844 97.959 9.69336 97.3848 9.69336C96.9902 9.69336 96.7383 9.46094 96.6289 8.99609C96.4062 9.46094 96.0898 9.69336 95.6797 9.69336C95.3828 9.69336 95.1348 9.53711 94.9355 9.22461C94.7363 8.91211 94.6367 8.50391 94.6367 8C94.6367 7.21094 94.8047 6.55273 95.1406 6.02539C95.4805 5.49414 95.9004 5.22852 96.4004 5.22852C96.5957 5.22852 96.7969 5.30078 97.0039 5.44531L97.0273 5.29883H97.7598C97.5254 7.4043 97.4082 8.5332 97.4082 8.68555C97.4082 8.79102 97.4297 8.87891 97.4727 8.94922C97.5195 9.01953 97.5781 9.05469 97.6484 9.05469C97.9102 9.05469 98.1484 8.82227 98.3633 8.35742C98.582 7.88867 98.6914 7.29297 98.6914 6.57031C98.6914 5.53906 98.4805 4.72461 98.0586 4.12695C97.6367 3.52539 97.0723 3.22461 96.3652 3.22461C95.6074 3.22461 94.9961 3.62109 94.5312 4.41406C94.0664 5.20703 93.834 6.29492 93.834 7.67773C93.834 8.78711 94.0684 9.67383 94.5371 10.3379C95.0098 11.002 95.627 11.334 96.3887 11.334C97.0176 11.334 97.6094 11.1992 98.1641 10.9297L98.2988 11.457ZM96.916 6.07812C96.7988 5.93359 96.6387 5.86133 96.4355 5.86133C96.1152 5.86133 95.8594 6.04883 95.668 6.42383C95.4766 6.79883 95.3809 7.29688 95.3809 7.91797C95.3809 8.27344 95.4297 8.55273 95.5273 8.75586C95.625 8.95508 95.748 9.05469 95.8965 9.05469C96.1191 9.05469 96.3027 8.94727 96.4473 8.73242C96.5918 8.51758 96.668 8.36523 96.6758 8.27539L96.916 6.07812ZM111.506 11.457C110.916 11.7852 110.279 11.9492 109.596 11.9492C108.65 11.9492 107.881 11.5645 107.287 10.7949C106.697 10.0215 106.402 8.98242 106.402 7.67773C106.402 6.11133 106.693 4.87695 107.275 3.97461C107.861 3.07227 108.627 2.62109 109.572 2.62109C110.447 2.62109 111.16 2.97852 111.711 3.69336C112.262 4.4043 112.537 5.36328 112.537 6.57031C112.537 7.47266 112.355 8.21875 111.992 8.80859C111.633 9.39844 111.166 9.69336 110.592 9.69336C110.197 9.69336 109.945 9.46094 109.836 8.99609C109.613 9.46094 109.297 9.69336 108.887 9.69336C108.59 9.69336 108.342 9.53711 108.143 9.22461C107.943 8.91211 107.844 8.50391 107.844 8C107.844 7.21094 108.012 6.55273 108.348 6.02539C108.688 5.49414 109.107 5.22852 109.607 5.22852C109.803 5.22852 110.004 5.30078 110.211 5.44531L110.234 5.29883H110.967C110.732 7.4043 110.615 8.5332 110.615 8.68555C110.615 8.79102 110.637 8.87891 110.68 8.94922C110.727 9.01953 110.785 9.05469 110.855 9.05469C111.117 9.05469 111.355 8.82227 111.57 8.35742C111.789 7.88867 111.898 7.29297 111.898 6.57031C111.898 5.53906 111.688 4.72461 111.266 4.12695C110.844 3.52539 110.279 3.22461 109.572 3.22461C108.814 3.22461 108.203 3.62109 107.738 4.41406C107.273 5.20703 107.041 6.29492 107.041 7.67773C107.041 8.78711 107.275 9.67383 107.744 10.3379C108.217 11.002 108.834 11.334 109.596 11.334C110.225 11.334 110.816 11.1992 111.371 10.9297L111.506 11.457ZM110.123 6.07812C110.006 5.93359 109.846 5.86133 109.643 5.86133C109.322 5.86133 109.066 6.04883 108.875 6.42383C108.684 6.79883 108.588 7.29688 108.588 7.91797C108.588 8.27344 108.637 8.55273 108.734 8.75586C108.832 8.95508 108.955 9.05469 109.104 9.05469C109.326 9.05469 109.51 8.94727 109.654 8.73242C109.799 8.51758 109.875 8.36523 109.883 8.27539L110.123 6.07812ZM123.031 6.25977C123.77 6.57617 124.285 6.92773 124.578 7.31445C124.875 7.69727 125.023 8.13281 125.023 8.62109C125.023 9.23828 124.846 9.76367 124.49 10.1973C124.139 10.627 123.652 10.918 123.031 11.0703V11.8262H122.346V11.1582H122.299C121.588 11.1582 120.965 11.0176 120.43 10.7363L120.629 9.91016C121.258 10.1953 121.807 10.3379 122.275 10.3379H122.346V6.92188C121.506 6.5625 120.965 6.20898 120.723 5.86133C120.484 5.50977 120.365 5.13867 120.365 4.74805C120.365 4.19336 120.539 3.72852 120.887 3.35352C121.234 2.97852 121.721 2.73437 122.346 2.62109V2H123.031V2.57422C123.566 2.57422 124.094 2.6582 124.613 2.82617L124.396 3.64648C123.92 3.47852 123.465 3.39453 123.031 3.39453V6.25977ZM122.346 5.9375V3.47656C121.65 3.66016 121.303 4.07227 121.303 4.71289C121.303 5.18555 121.65 5.59375 122.346 5.9375ZM123.031 10.2324C123.734 9.97852 124.086 9.48242 124.086 8.74414C124.086 8.41602 124.002 8.13672 123.834 7.90625C123.67 7.67578 123.402 7.45898 123.031 7.25586V10.2324ZM138.963 8.67383H137.1L136.607 11H135.781L136.273 8.67383H134.703L134.211 11H133.385L133.877 8.67383H132.758V7.90625H134.041L134.486 5.80273H132.758V5.03516H134.645L135.137 2.73242H135.963L135.471 5.03516H137.041L137.533 2.73242H138.359L137.873 5.03516H138.963V5.80273H137.715L137.27 7.90625H138.963V8.67383ZM136.889 5.80273H135.312L134.873 7.90625H136.443L136.889 5.80273ZM147.383 2.57422C147.902 2.57422 148.307 2.75586 148.596 3.11914C148.889 3.48242 149.035 3.95312 149.035 4.53125C149.035 5.10938 148.889 5.58008 148.596 5.94336C148.303 6.30664 147.898 6.48828 147.383 6.48828C146.871 6.48828 146.467 6.30664 146.17 5.94336C145.873 5.57617 145.725 5.10547 145.725 4.53125C145.725 3.96875 145.873 3.50195 146.17 3.13086C146.471 2.75977 146.875 2.57422 147.383 2.57422ZM147.383 5.7793C147.926 5.7793 148.197 5.36328 148.197 4.53125C148.197 3.69922 147.926 3.2832 147.383 3.2832C146.836 3.2832 146.562 3.69922 146.562 4.53125C146.562 5.36328 146.836 5.7793 147.383 5.7793ZM151.619 2.73242L147.248 11H146.434L150.799 2.73242H151.619ZM150.705 7.24414C151.225 7.24414 151.631 7.42578 151.924 7.78906C152.217 8.14844 152.363 8.61914 152.363 9.20117C152.363 9.77539 152.215 10.2461 151.918 10.6133C151.625 10.9766 151.221 11.1582 150.705 11.1582C150.193 11.1582 149.789 10.9746 149.492 10.6074C149.195 10.2402 149.047 9.77148 149.047 9.20117C149.047 8.63477 149.195 8.16797 149.492 7.80078C149.793 7.42969 150.197 7.24414 150.705 7.24414ZM150.705 10.4492C151.248 10.4492 151.52 10.0332 151.52 9.20117C151.52 8.36914 151.248 7.95312 150.705 7.95312C150.162 7.95312 149.891 8.36914 149.891 9.20117C149.891 10.0332 150.162 10.4492 150.705 10.4492ZM160.59 2.57422C161.109 2.57422 161.514 2.75586 161.803 3.11914C162.096 3.48242 162.242 3.95312 162.242 4.53125C162.242 5.10938 162.096 5.58008 161.803 5.94336C161.51 6.30664 161.105 6.48828 160.59 6.48828C160.078 6.48828 159.674 6.30664 159.377 5.94336C159.08 5.57617 158.932 5.10547 158.932 4.53125C158.932 3.96875 159.08 3.50195 159.377 3.13086C159.678 2.75977 160.082 2.57422 160.59 2.57422ZM160.59 5.7793C161.133 5.7793 161.404 5.36328 161.404 4.53125C161.404 3.69922 161.133 3.2832 160.59 3.2832C160.043 3.2832 159.77 3.69922 159.77 4.53125C159.77 5.36328 160.043 5.7793 160.59 5.7793ZM164.826 2.73242L160.455 11H159.641L164.006 2.73242H164.826ZM163.912 7.24414C164.432 7.24414 164.838 7.42578 165.131 7.78906C165.424 8.14844 165.57 8.61914 165.57 9.20117C165.57 9.77539 165.422 10.2461 165.125 10.6133C164.832 10.9766 164.428 11.1582 163.912 11.1582C163.4 11.1582 162.996 10.9746 162.699 10.6074C162.402 10.2402 162.254 9.77148 162.254 9.20117C162.254 8.63477 162.402 8.16797 162.699 7.80078C163 7.42969 163.404 7.24414 163.912 7.24414ZM163.912 10.4492C164.455 10.4492 164.727 10.0332 164.727 9.20117C164.727 8.36914 164.455 7.95312 163.912 7.95312C163.369 7.95312 163.098 8.36914 163.098 9.20117C163.098 10.0332 163.369 10.4492 163.912 10.4492ZM173.797 2.57422C174.316 2.57422 174.721 2.75586 175.01 3.11914C175.303 3.48242 175.449 3.95312 175.449 4.53125C175.449 5.10938 175.303 5.58008 175.01 5.94336C174.717 6.30664 174.312 6.48828 173.797 6.48828C173.285 6.48828 172.881 6.30664 172.584 5.94336C172.287 5.57617 172.139 5.10547 172.139 4.53125C172.139 3.96875 172.287 3.50195 172.584 3.13086C172.885 2.75977 173.289 2.57422 173.797 2.57422ZM173.797 5.7793C174.34 5.7793 174.611 5.36328 174.611 4.53125C174.611 3.69922 174.34 3.2832 173.797 3.2832C173.25 3.2832 172.977 3.69922 172.977 4.53125C172.977 5.36328 173.25 5.7793 173.797 5.7793ZM178.033 2.73242L173.662 11H172.848L177.213 2.73242H178.033ZM177.119 7.24414C177.639 7.24414 178.045 7.42578 178.338 7.78906C178.631 8.14844 178.777 8.61914 178.777 9.20117C178.777 9.77539 178.629 10.2461 178.332 10.6133C178.039 10.9766 177.635 11.1582 177.119 11.1582C176.607 11.1582 176.203 10.9746 175.906 10.6074C175.609 10.2402 175.461 9.77148 175.461 9.20117C175.461 8.63477 175.609 8.16797 175.906 7.80078C176.207 7.42969 176.611 7.24414 177.119 7.24414ZM177.119 10.4492C177.662 10.4492 177.934 10.0332 177.934 9.20117C177.934 8.36914 177.662 7.95312 177.119 7.95312C176.576 7.95312 176.305 8.36914 176.305 9.20117C176.305 10.0332 176.576 10.4492 177.119 10.4492ZM186.295 2.73242H187.924C189.006 2.73242 189.873 3.10156 190.525 3.83984C191.178 4.57422 191.504 5.58398 191.504 6.86914C191.504 8.18164 191.172 9.19922 190.508 9.92188C189.848 10.6406 189 11 187.965 11H186.295V2.73242ZM187.256 10.1621H187.936C188.721 10.1621 189.342 9.87109 189.799 9.28906C190.256 8.70703 190.484 7.90039 190.484 6.86914C190.484 5.8457 190.254 5.04102 189.793 4.45508C189.336 3.86523 188.717 3.57031 187.936 3.57031H187.256V10.1621ZM205.156 11H203.955L201.529 7.24414H200.463V11H199.502V2.73242H201.84C202.625 2.73242 203.244 2.92383 203.697 3.30664C204.154 3.68555 204.383 4.21484 204.383 4.89453C204.383 5.39844 204.217 5.84766 203.885 6.24219C203.553 6.63281 203.096 6.89844 202.514 7.03906L205.156 11ZM200.463 6.40625H201.676C202.184 6.40625 202.596 6.26953 202.912 5.99609C203.229 5.71875 203.387 5.37109 203.387 4.95312C203.387 4.03125 202.824 3.57031 201.699 3.57031H200.463V6.40625ZM218.363 11H217.162L214.736 7.24414H213.67V11H212.709V2.73242H215.047C215.832 2.73242 216.451 2.92383 216.904 3.30664C217.361 3.68555 217.59 4.21484 217.59 4.89453C217.59 5.39844 217.424 5.84766 217.092 6.24219C216.76 6.63281 216.303 6.89844 215.721 7.03906L218.363 11ZM213.67 6.40625H214.883C215.391 6.40625 215.803 6.26953 216.119 5.99609C216.436 5.71875 216.594 5.37109 216.594 4.95312C216.594 4.03125 216.031 3.57031 214.906 3.57031H213.67V6.40625ZM230.51 11H226.191V2.73242H230.475V3.57031H227.152V6.13086H230.346V6.96875H227.152V10.1621H230.51V11ZM244.619 8.67383H242.756L242.264 11H241.438L241.93 8.67383H240.359L239.867 11H239.041L239.533 8.67383H238.414V7.90625H239.697L240.143 5.80273H238.414V5.03516H240.301L240.793 2.73242H241.619L241.127 5.03516H242.697L243.189 2.73242H244.016L243.529 5.03516H244.619V5.80273H243.371L242.926 7.90625H244.619V8.67383ZM242.545 5.80273H240.969L240.529 7.90625H242.1L242.545 5.80273ZM253.039 2.57422C253.559 2.57422 253.963 2.75586 254.252 3.11914C254.545 3.48242 254.691 3.95312 254.691 4.53125C254.691 5.10938 254.545 5.58008 254.252 5.94336C253.959 6.30664 253.555 6.48828 253.039 6.48828C252.527 6.48828 252.123 6.30664 251.826 5.94336C251.529 5.57617 251.381 5.10547 251.381 4.53125C251.381 3.96875 251.529 3.50195 251.826 3.13086C252.127 2.75977 252.531 2.57422 253.039 2.57422ZM253.039 5.7793C253.582 5.7793 253.854 5.36328 253.854 4.53125C253.854 3.69922 253.582 3.2832 253.039 3.2832C252.492 3.2832 252.219 3.69922 252.219 4.53125C252.219 5.36328 252.492 5.7793 253.039 5.7793ZM257.275 2.73242L252.904 11H252.09L256.455 2.73242H257.275ZM256.361 7.24414C256.881 7.24414 257.287 7.42578 257.58 7.78906C257.873 8.14844 258.02 8.61914 258.02 9.20117C258.02 9.77539 257.871 10.2461 257.574 10.6133C257.281 10.9766 256.877 11.1582 256.361 11.1582C255.85 11.1582 255.445 10.9746 255.148 10.6074C254.852 10.2402 254.703 9.77148 254.703 9.20117C254.703 8.63477 254.852 8.16797 255.148 7.80078C255.449 7.42969 255.854 7.24414 256.361 7.24414ZM256.361 10.4492C256.904 10.4492 257.176 10.0332 257.176 9.20117C257.176 8.36914 256.904 7.95312 256.361 7.95312C255.818 7.95312 255.547 8.36914 255.547 9.20117C255.547 10.0332 255.818 10.4492 256.361 10.4492ZM266.246 2.57422C266.766 2.57422 267.17 2.75586 267.459 3.11914C267.752 3.48242 267.898 3.95312 267.898 4.53125C267.898 5.10938 267.752 5.58008 267.459 5.94336C267.166 6.30664 266.762 6.48828 266.246 6.48828C265.734 6.48828 265.33 6.30664 265.033 5.94336C264.736 5.57617 264.588 5.10547 264.588 4.53125C264.588 3.96875 264.736 3.50195 265.033 3.13086C265.334 2.75977 265.738 2.57422 266.246 2.57422ZM266.246 5.7793C266.789 5.7793 267.061 5.36328 267.061 4.53125C267.061 3.69922 266.789 3.2832 266.246 3.2832C265.699 3.2832 265.426 3.69922 265.426 4.53125C265.426 5.36328 265.699 5.7793 266.246 5.7793ZM270.482 2.73242L266.111 11H265.297L269.662 2.73242H270.482ZM269.568 7.24414C270.088 7.24414 270.494 7.42578 270.787 7.78906C271.08 8.14844 271.227 8.61914 271.227 9.20117C271.227 9.77539 271.078 10.2461 270.781 10.6133C270.488 10.9766 270.084 11.1582 269.568 11.1582C269.057 11.1582 268.652 10.9746 268.355 10.6074C268.059 10.2402 267.91 9.77148 267.91 9.20117C267.91 8.63477 268.059 8.16797 268.355 7.80078C268.656 7.42969 269.061 7.24414 269.568 7.24414ZM269.568 10.4492C270.111 10.4492 270.383 10.0332 270.383 9.20117C270.383 8.36914 270.111 7.95312 269.568 7.95312C269.025 7.95312 268.754 8.36914 268.754 9.20117C268.754 10.0332 269.025 10.4492 269.568 10.4492ZM279.453 2.57422C279.973 2.57422 280.377 2.75586 280.666 3.11914C280.959 3.48242 281.105 3.95312 281.105 4.53125C281.105 5.10938 280.959 5.58008 280.666 5.94336C280.373 6.30664 279.969 6.48828 279.453 6.48828C278.941 6.48828 278.537 6.30664 278.24 5.94336C277.943 5.57617 277.795 5.10547 277.795 4.53125C277.795 3.96875 277.943 3.50195 278.24 3.13086C278.541 2.75977 278.945 2.57422 279.453 2.57422ZM279.453 5.7793C279.996 5.7793 280.268 5.36328 280.268 4.53125C280.268 3.69922 279.996 3.2832 279.453 3.2832C278.906 3.2832 278.633 3.69922 278.633 4.53125C278.633 5.36328 278.906 5.7793 279.453 5.7793ZM283.689 2.73242L279.318 11H278.504L282.869 2.73242H283.689ZM282.775 7.24414C283.295 7.24414 283.701 7.42578 283.994 7.78906C284.287 8.14844 284.434 8.61914 284.434 9.20117C284.434 9.77539 284.285 10.2461 283.988 10.6133C283.695 10.9766 283.291 11.1582 282.775 11.1582C282.264 11.1582 281.859 10.9746 281.562 10.6074C281.266 10.2402 281.117 9.77148 281.117 9.20117C281.117 8.63477 281.266 8.16797 281.562 7.80078C281.863 7.42969 282.268 7.24414 282.775 7.24414ZM282.775 10.4492C283.318 10.4492 283.59 10.0332 283.59 9.20117C283.59 8.36914 283.318 7.95312 282.775 7.95312C282.232 7.95312 281.961 8.36914 281.961 9.20117C281.961 10.0332 282.232 10.4492 282.775 10.4492ZM292.66 2.57422C293.18 2.57422 293.584 2.75586 293.873 3.11914C294.166 3.48242 294.312 3.95312 294.312 4.53125C294.312 5.10938 294.166 5.58008 293.873 5.94336C293.58 6.30664 293.176 6.48828 292.66 6.48828C292.148 6.48828 291.744 6.30664 291.447 5.94336C291.15 5.57617 291.002 5.10547 291.002 4.53125C291.002 3.96875 291.15 3.50195 291.447 3.13086C291.748 2.75977 292.152 2.57422 292.66 2.57422ZM292.66 5.7793C293.203 5.7793 293.475 5.36328 293.475 4.53125C293.475 3.69922 293.203 3.2832 292.66 3.2832C292.113 3.2832 291.84 3.69922 291.84 4.53125C291.84 5.36328 292.113 5.7793 292.66 5.7793ZM296.896 2.73242L292.525 11H291.711L296.076 2.73242H296.896ZM295.982 7.24414C296.502 7.24414 296.908 7.42578 297.201 7.78906C297.494 8.14844 297.641 8.61914 297.641 9.20117C297.641 9.77539 297.492 10.2461 297.195 10.6133C296.902 10.9766 296.498 11.1582 295.982 11.1582C295.471 11.1582 295.066 10.9746 294.77 10.6074C294.473 10.2402 294.324 9.77148 294.324 9.20117C294.324 8.63477 294.473 8.16797 294.77 7.80078C295.07 7.42969 295.475 7.24414 295.982 7.24414ZM295.982 10.4492C296.525 10.4492 296.797 10.0332 296.797 9.20117C296.797 8.36914 296.525 7.95312 295.982 7.95312C295.439 7.95312 295.168 8.36914 295.168 9.20117C295.168 10.0332 295.439 10.4492 295.982 10.4492ZM305.867 2.57422C306.387 2.57422 306.791 2.75586 307.08 3.11914C307.373 3.48242 307.52 3.95312 307.52 4.53125C307.52 5.10938 307.373 5.58008 307.08 5.94336C306.787 6.30664 306.383 6.48828 305.867 6.48828C305.355 6.48828 304.951 6.30664 304.654 5.94336C304.357 5.57617 304.209 5.10547 304.209 4.53125C304.209 3.96875 304.357 3.50195 304.654 3.13086C304.955 2.75977 305.359 2.57422 305.867 2.57422ZM305.867 5.7793C306.41 5.7793 306.682 5.36328 306.682 4.53125C306.682 3.69922 306.41 3.2832 305.867 3.2832C305.32 3.2832 305.047 3.69922 305.047 4.53125C305.047 5.36328 305.32 5.7793 305.867 5.7793ZM310.104 2.73242L305.732 11H304.918L309.283 2.73242H310.104ZM309.189 7.24414C309.709 7.24414 310.115 7.42578 310.408 7.78906C310.701 8.14844 310.848 8.61914 310.848 9.20117C310.848 9.77539 310.699 10.2461 310.402 10.6133C310.109 10.9766 309.705 11.1582 309.189 11.1582C308.678 11.1582 308.273 10.9746 307.977 10.6074C307.68 10.2402 307.531 9.77148 307.531 9.20117C307.531 8.63477 307.68 8.16797 307.977 7.80078C308.277 7.42969 308.682 7.24414 309.189 7.24414ZM309.189 10.4492C309.732 10.4492 310.004 10.0332 310.004 9.20117C310.004 8.36914 309.732 7.95312 309.189 7.95312C308.646 7.95312 308.375 8.36914 308.375 9.20117C308.375 10.0332 308.646 10.4492 309.189 10.4492ZM319.074 2.57422C319.594 2.57422 319.998 2.75586 320.287 3.11914C320.58 3.48242 320.727 3.95312 320.727 4.53125C320.727 5.10938 320.58 5.58008 320.287 5.94336C319.994 6.30664 319.59 6.48828 319.074 6.48828C318.562 6.48828 318.158 6.30664 317.861 5.94336C317.564 5.57617 317.416 5.10547 317.416 4.53125C317.416 3.96875 317.564 3.50195 317.861 3.13086C318.162 2.75977 318.566 2.57422 319.074 2.57422ZM319.074 5.7793C319.617 5.7793 319.889 5.36328 319.889 4.53125C319.889 3.69922 319.617 3.2832 319.074 3.2832C318.527 3.2832 318.254 3.69922 318.254 4.53125C318.254 5.36328 318.527 5.7793 319.074 5.7793ZM323.311 2.73242L318.939 11H318.125L322.49 2.73242H323.311ZM322.396 7.24414C322.916 7.24414 323.322 7.42578 323.615 7.78906C323.908 8.14844 324.055 8.61914 324.055 9.20117C324.055 9.77539 323.906 10.2461 323.609 10.6133C323.316 10.9766 322.912 11.1582 322.396 11.1582C321.885 11.1582 321.48 10.9746 321.184 10.6074C320.887 10.2402 320.738 9.77148 320.738 9.20117C320.738 8.63477 320.887 8.16797 321.184 7.80078C321.484 7.42969 321.889 7.24414 322.396 7.24414ZM322.396 10.4492C322.939 10.4492 323.211 10.0332 323.211 9.20117C323.211 8.36914 322.939 7.95312 322.396 7.95312C321.854 7.95312 321.582 8.36914 321.582 9.20117C321.582 10.0332 321.854 10.4492 322.396 10.4492Z" fill="#3BFFCF"/>
<path d="M141.361 55.0039H140.898C140.336 55.0039 139.93 54.8516 139.68 54.5469C139.434 54.2461 139.311 53.6855 139.311 52.8652V52.3027C139.311 51.5723 139.215 51.0645 139.023 50.7793C138.832 50.4902 138.523 50.3457 138.098 50.3457V49.3906C138.523 49.3906 138.832 49.248 139.023 48.9629C139.215 48.6738 139.311 48.1641 139.311 47.4336V46.8652C139.311 46.0488 139.434 45.4902 139.68 45.1895C139.93 44.8848 140.336 44.7324 140.898 44.7324H141.361V45.5H141.186C140.822 45.5 140.568 45.5781 140.424 45.7344C140.283 45.8906 140.213 46.2637 140.213 46.8535V47.2285C140.213 48.0371 140.119 48.6328 139.932 49.0156C139.744 49.3984 139.426 49.6816 138.977 49.8652C139.426 50.0527 139.744 50.3379 139.932 50.7207C140.119 51.1035 140.213 51.6992 140.213 52.5078V52.8828C140.213 53.4727 140.283 53.8457 140.424 54.002C140.568 54.1582 140.822 54.2363 141.186 54.2363H141.361V55.0039ZM154.281 50.3457C153.859 50.3457 153.551 50.4902 153.355 50.7793C153.164 51.0645 153.068 51.5723 153.068 52.3027V52.8652C153.068 53.6855 152.945 54.2461 152.699 54.5469C152.453 54.8516 152.049 55.0039 151.486 55.0039H151.018V54.2363H151.199C151.562 54.2363 151.814 54.1582 151.955 54.002C152.1 53.8457 152.172 53.4727 152.172 52.8828V52.5078C152.172 51.6992 152.266 51.1035 152.453 50.7207C152.641 50.3379 152.959 50.0527 153.408 49.8652C152.959 49.6816 152.641 49.3984 152.453 49.0156C152.266 48.6328 152.172 48.0371 152.172 47.2285V46.8535C152.172 46.2637 152.1 45.8906 151.955 45.7344C151.814 45.5781 151.562 45.5 151.199 45.5H151.018V44.7324H151.486C152.049 44.7324 152.453 44.8848 152.699 45.1895C152.945 45.4902 153.068 46.0488 153.068 46.8652V47.4336C153.068 48.0938 153.154 48.5859 153.326 48.9102C153.498 49.2305 153.816 49.3906 154.281 49.3906V50.3457ZM167.775 55.0039H167.312C166.75 55.0039 166.344 54.8516 166.094 54.5469C165.848 54.2461 165.725 53.6855 165.725 52.8652V52.3027C165.725 51.5723 165.629 51.0645 165.438 50.7793C165.246 50.4902 164.938 50.3457 164.512 50.3457V49.3906C164.938 49.3906 165.246 49.248 165.438 48.9629C165.629 48.6738 165.725 48.1641 165.725 47.4336V46.8652C165.725 46.0488 165.848 45.4902 166.094 45.1895C166.344 44.8848 166.75 44.7324 167.312 44.7324H167.775V45.5H167.6C167.236 45.5 166.982 45.5781 166.838 45.7344C166.697 45.8906 166.627 46.2637 166.627 46.8535V47.2285C166.627 48.0371 166.533 48.6328 166.346 49.0156C166.158 49.3984 165.84 49.6816 165.391 49.8652C165.84 50.0527 166.158 50.3379 166.346 50.7207C166.533 51.1035 166.627 51.6992 166.627 52.5078V52.8828C166.627 53.4727 166.697 53.8457 166.838 54.002C166.982 54.1582 167.236 54.2363 167.6 54.2363H167.775V55.0039ZM180.695 50.3457C180.273 50.3457 179.965 50.4902 179.77 50.7793C179.578 51.0645 179.482 51.5723 179.482 52.3027V52.8652C179.482 53.6855 179.359 54.2461 179.113 54.5469C178.867 54.8516 178.463 55.0039 177.9 55.0039H177.432V54.2363H177.613C177.977 54.2363 178.229 54.1582 178.369 54.002C178.514 53.8457 178.586 53.4727 178.586 52.8828V52.5078C178.586 51.6992 178.68 51.1035 178.867 50.7207C179.055 50.3379 179.373 50.0527 179.822 49.8652C179.373 49.6816 179.055 49.3984 178.867 49.0156C178.68 48.6328 178.586 48.0371 178.586 47.2285V46.8535C178.586 46.2637 178.514 45.8906 178.369 45.7344C178.229 45.5781 177.977 45.5 177.613 45.5H177.432V44.7324H177.9C178.463 44.7324 178.867 44.8848 179.113 45.1895C179.359 45.4902 179.482 46.0488 179.482 46.8652V47.4336C179.482 48.0938 179.568 48.5859 179.74 48.9102C179.912 49.2305 180.23 49.3906 180.695 49.3906V50.3457ZM194.189 55.0039H193.727C193.164 55.0039 192.758 54.8516 192.508 54.5469C192.262 54.2461 192.139 53.6855 192.139 52.8652V52.3027C192.139 51.5723 192.043 51.0645 191.852 50.7793C191.66 50.4902 191.352 50.3457 190.926 50.3457V49.3906C191.352 49.3906 191.66 49.248 191.852 48.9629C192.043 48.6738 192.139 48.1641 192.139 47.4336V46.8652C192.139 46.0488 192.262 45.4902 192.508 45.1895C192.758 44.8848 193.164 44.7324 193.727 44.7324H194.189V45.5H194.014C193.65 45.5 193.396 45.5781 193.252 45.7344C193.111 45.8906 193.041 46.2637 193.041 46.8535V47.2285C193.041 48.0371 192.947 48.6328 192.76 49.0156C192.572 49.3984 192.254 49.6816 191.805 49.8652C192.254 50.0527 192.572 50.3379 192.76 50.7207C192.947 51.1035 193.041 51.6992 193.041 52.5078V52.8828C193.041 53.4727 193.111 53.8457 193.252 54.002C193.396 54.1582 193.65 54.2363 194.014 54.2363H194.189V55.0039ZM207.109 50.3457C206.688 50.3457 206.379 50.4902 206.184 50.7793C205.992 51.0645 205.896 51.5723 205.896 52.3027V52.8652C205.896 53.6855 205.773 54.2461 205.527 54.5469C205.281 54.8516 204.877 55.0039 204.314 55.0039H203.846V54.2363H204.027C204.391 54.2363 204.643 54.1582 204.783 54.002C204.928 53.8457 205 53.4727 205 52.8828V52.5078C205 51.6992 205.094 51.1035 205.281 50.7207C205.469 50.3379 205.787 50.0527 206.236 49.8652C205.787 49.6816 205.469 49.3984 205.281 49.0156C205.094 48.6328 205 48.0371 205 47.2285V46.8535C205 46.2637 204.928 45.8906 204.783 45.7344C204.643 45.5781 204.391 45.5 204.027 45.5H203.846V44.7324H204.314C204.877 44.7324 205.281 44.8848 205.527 45.1895C205.773 45.4902 205.896 46.0488 205.896 46.8652V47.4336C205.896 48.0938 205.982 48.5859 206.154 48.9102C206.326 49.2305 206.645 49.3906 207.109 49.3906V50.3457ZM220.604 55.0039H220.141C219.578 55.0039 219.172 54.8516 218.922 54.5469C218.676 54.2461 218.553 53.6855 218.553 52.8652V52.3027C218.553 51.5723 218.457 51.0645 218.266 50.7793C218.074 50.4902 217.766 50.3457 217.34 50.3457V49.3906C217.766 49.3906 218.074 49.248 218.266 48.9629C218.457 48.6738 218.553 48.1641 218.553 47.4336V46.8652C218.553 46.0488 218.676 45.4902 218.922 45.1895C219.172 44.8848 219.578 44.7324 220.141 44.7324H220.604V45.5H220.428C220.064 45.5 219.811 45.5781 219.666 45.7344C219.525 45.8906 219.455 46.2637 219.455 46.8535V47.2285C219.455 48.0371 219.361 48.6328 219.174 49.0156C218.986 49.3984 218.668 49.6816 218.219 49.8652C218.668 50.0527 218.986 50.3379 219.174 50.7207C219.361 51.1035 219.455 51.6992 219.455 52.5078V52.8828C219.455 53.4727 219.525 53.8457 219.666 54.002C219.811 54.1582 220.064 54.2363 220.428 54.2363H220.604V55.0039ZM234.818 49.1504H232.445V51.5469H231.678V49.1504H229.275V48.3828H231.678V45.9805H232.445V48.3828H234.818V49.1504ZM248.025 49.1504H245.652V51.5469H244.885V49.1504H242.482V48.3828H244.885V45.9805H245.652V48.3828H248.025V49.1504ZM261.232 49.1504H258.859V51.5469H258.092V49.1504H255.689V48.3828H258.092V45.9805H258.859V48.3828H261.232V49.1504ZM274.439 49.1504H272.066V51.5469H271.299V49.1504H268.896V48.3828H271.299V45.9805H272.066V48.3828H274.439V49.1504ZM287.646 49.1504H285.273V51.5469H284.506V49.1504H282.104V48.3828H284.506V45.9805H285.273V48.3828H287.646V49.1504ZM300.854 49.1504H298.48V51.5469H297.713V49.1504H295.311V48.3828H297.713V45.9805H298.48V48.3828H300.854V49.1504ZM314.061 49.1504H311.688V51.5469H310.92V49.1504H308.518V48.3828H310.92V45.9805H311.688V48.3828H314.061V49.1504ZM327.268 49.1504H324.895V51.5469H324.127V49.1504H321.725V48.3828H324.127V45.9805H324.895V48.3828H327.268V49.1504ZM337.691 44.5742C338.566 44.5742 339.238 44.9512 339.707 45.7051C340.18 46.4551 340.416 47.5098 340.416 48.8691C340.416 50.1855 340.188 51.2305 339.73 52.0039C339.273 52.7734 338.594 53.1582 337.691 53.1582C336.82 53.1582 336.148 52.7832 335.676 52.0332C335.203 51.2832 334.967 50.2285 334.967 48.8691C334.967 47.5488 335.195 46.5039 335.652 45.7344C336.113 44.9609 336.793 44.5742 337.691 44.5742ZM337.691 52.3145C338.27 52.3145 338.697 52.041 338.975 51.4941C339.256 50.9434 339.396 50.0684 339.396 48.8691C339.396 47.666 339.256 46.793 338.975 46.25C338.697 45.7031 338.27 45.4297 337.691 45.4297C337.121 45.4297 336.695 45.709 336.414 46.2676C336.133 46.8262 335.992 47.6934 335.992 48.8691C335.992 50.0605 336.131 50.9336 336.408 51.4883C336.689 52.0391 337.117 52.3145 337.691 52.3145ZM337.668 47.9902C337.914 47.9902 338.121 48.0762 338.289 48.248C338.461 48.416 338.547 48.623 338.547 48.8691C338.547 49.123 338.461 49.3418 338.289 49.5254C338.117 49.7051 337.91 49.7949 337.668 49.7949C337.43 49.7949 337.225 49.7051 337.053 49.5254C336.885 49.3418 336.801 49.123 336.801 48.8691C336.801 48.6191 336.883 48.4102 337.047 48.2422C337.215 48.0742 337.422 47.9902 337.668 47.9902ZM350.898 44.5742C351.773 44.5742 352.445 44.9512 352.914 45.7051C353.387 46.4551 353.623 47.5098 353.623 48.8691C353.623 50.1855 353.395 51.2305 352.938 52.0039C352.48 52.7734 351.801 53.1582 350.898 53.1582C350.027 53.1582 349.355 52.7832 348.883 52.0332C348.41 51.2832 348.174 50.2285 348.174 48.8691C348.174 47.5488 348.402 46.5039 348.859 45.7344C349.32 44.9609 350 44.5742 350.898 44.5742ZM350.898 52.3145C351.477 52.3145 351.904 52.041 352.182 51.4941C352.463 50.9434 352.604 50.0684 352.604 48.8691C352.604 47.666 352.463 46.793 352.182 46.25C351.904 45.7031 351.477 45.4297 350.898 45.4297C350.328 45.4297 349.902 45.709 349.621 46.2676C349.34 46.8262 349.199 47.6934 349.199 48.8691C349.199 50.0605 349.338 50.9336 349.615 51.4883C349.896 52.0391 350.324 52.3145 350.898 52.3145ZM350.875 47.9902C351.121 47.9902 351.328 48.0762 351.496 48.248C351.668 48.416 351.754 48.623 351.754 48.8691C351.754 49.123 351.668 49.3418 351.496 49.5254C351.324 49.7051 351.117 49.7949 350.875 49.7949C350.637 49.7949 350.432 49.7051 350.26 49.5254C350.092 49.3418 350.008 49.123 350.008 48.8691C350.008 48.6191 350.09 48.4102 350.254 48.2422C350.422 48.0742 350.629 47.9902 350.875 47.9902ZM364.105 44.5742C364.98 44.5742 365.652 44.9512 366.121 45.7051C366.594 46.4551 366.83 47.5098 366.83 48.8691C366.83 50.1855 366.602 51.2305 366.145 52.0039C365.688 52.7734 365.008 53.1582 364.105 53.1582C363.234 53.1582 362.562 52.7832 362.09 52.0332C361.617 51.2832 361.381 50.2285 361.381 48.8691C361.381 47.5488 361.609 46.5039 362.066 45.7344C362.527 44.9609 363.207 44.5742 364.105 44.5742ZM364.105 52.3145C364.684 52.3145 365.111 52.041 365.389 51.4941C365.67 50.9434 365.811 50.0684 365.811 48.8691C365.811 47.666 365.67 46.793 365.389 46.25C365.111 45.7031 364.684 45.4297 364.105 45.4297C363.535 45.4297 363.109 45.709 362.828 46.2676C362.547 46.8262 362.406 47.6934 362.406 48.8691C362.406 50.0605 362.545 50.9336 362.822 51.4883C363.104 52.0391 363.531 52.3145 364.105 52.3145ZM364.082 47.9902C364.328 47.9902 364.535 48.0762 364.703 48.248C364.875 48.416 364.961 48.623 364.961 48.8691C364.961 49.123 364.875 49.3418 364.703 49.5254C364.531 49.7051 364.324 49.7949 364.082 49.7949C363.844 49.7949 363.639 49.7051 363.467 49.5254C363.299 49.3418 363.215 49.123 363.215 48.8691C363.215 48.6191 363.297 48.4102 363.461 48.2422C363.629 48.0742 363.836 47.9902 364.082 47.9902ZM377.312 44.5742C378.188 44.5742 378.859 44.9512 379.328 45.7051C379.801 46.4551 380.037 47.5098 380.037 48.8691C380.037 50.1855 379.809 51.2305 379.352 52.0039C378.895 52.7734 378.215 53.1582 377.312 53.1582C376.441 53.1582 375.77 52.7832 375.297 52.0332C374.824 51.2832 374.588 50.2285 374.588 48.8691C374.588 47.5488 374.816 46.5039 375.273 45.7344C375.734 44.9609 376.414 44.5742 377.312 44.5742ZM377.312 52.3145C377.891 52.3145 378.318 52.041 378.596 51.4941C378.877 50.9434 379.018 50.0684 379.018 48.8691C379.018 47.666 378.877 46.793 378.596 46.25C378.318 45.7031 377.891 45.4297 377.312 45.4297C376.742 45.4297 376.316 45.709 376.035 46.2676C375.754 46.8262 375.613 47.6934 375.613 48.8691C375.613 50.0605 375.752 50.9336 376.029 51.4883C376.311 52.0391 376.738 52.3145 377.312 52.3145ZM377.289 47.9902C377.535 47.9902 377.742 48.0762 377.91 48.248C378.082 48.416 378.168 48.623 378.168 48.8691C378.168 49.123 378.082 49.3418 377.91 49.5254C377.738 49.7051 377.531 49.7949 377.289 49.7949C377.051 49.7949 376.846 49.7051 376.674 49.5254C376.506 49.3418 376.422 49.123 376.422 48.8691C376.422 48.6191 376.504 48.4102 376.668 48.2422C376.836 48.0742 377.043 47.9902 377.289 47.9902ZM393.303 49.1504H390.93V51.5469H390.162V49.1504H387.76V48.3828H390.162V45.9805H390.93V48.3828H393.303V49.1504ZM406.51 49.1504H404.137V51.5469H403.369V49.1504H400.967V48.3828H403.369V45.9805H404.137V48.3828H406.51V49.1504ZM419.717 49.1504H417.344V51.5469H416.576V49.1504H414.174V48.3828H416.576V45.9805H417.344V48.3828H419.717V49.1504ZM432.924 49.1504H430.551V51.5469H429.783V49.1504H427.381V48.3828H429.783V45.9805H430.551V48.3828H432.924V49.1504ZM446.131 49.1504H443.758V51.5469H442.99V49.1504H440.588V48.3828H442.99V45.9805H443.758V48.3828H446.131V49.1504ZM459.338 49.1504H456.965V51.5469H456.197V49.1504H453.795V48.3828H456.197V45.9805H456.965V48.3828H459.338V49.1504Z" fill="#3BFFCF"/>
<path d="M5.71289 30.7402L1.33008 28.1094V27.4062L5.71289 24.7988V25.6426L2.19727 27.7871L5.71289 29.8789V30.7402ZM18.9199 30.7402L14.5371 28.1094V27.4062L18.9199 24.7988V25.6426L15.4043 27.7871L18.9199 29.8789V30.7402ZM32.127 30.7402L27.7441 28.1094V27.4062L32.127 24.7988V25.6426L28.6113 27.7871L32.127 29.8789V30.7402ZM43.1719 25.8066C43.3711 25.8066 43.5391 25.875 43.6758 26.0117C43.8125 26.1445 43.8809 26.3086 43.8809 26.5039C43.8809 26.6992 43.8125 26.8652 43.6758 27.002C43.5391 27.1348 43.3711 27.2012 43.1719 27.2012C42.9766 27.2012 42.8105 27.1348 42.6738 27.002C42.541 26.8652 42.4746 26.6992 42.4746 26.5039C42.4746 26.3086 42.541 26.1445 42.6738 26.0117C42.8105 25.875 42.9766 25.8066 43.1719 25.8066ZM43.1719 30.7051C43.3711 30.7051 43.5391 30.7715 43.6758 30.9043C43.8125 31.0371 43.8809 31.2031 43.8809 31.4023C43.8809 31.5977 43.8125 31.7617 43.6758 31.8945C43.5391 32.0273 43.3711 32.0938 43.1719 32.0938C42.9766 32.0938 42.8105 32.0273 42.6738 31.8945C42.541 31.7617 42.4746 31.5977 42.4746 31.4023C42.4746 31.2031 42.541 31.0371 42.6738 30.9043C42.8105 30.7715 42.9766 30.7051 43.1719 30.7051ZM56.3789 25.8066C56.5781 25.8066 56.7461 25.875 56.8828 26.0117C57.0195 26.1445 57.0879 26.3086 57.0879 26.5039C57.0879 26.6992 57.0195 26.8652 56.8828 27.002C56.7461 27.1348 56.5781 27.2012 56.3789 27.2012C56.1836 27.2012 56.0176 27.1348 55.8809 27.002C55.748 26.8652 55.6816 26.6992 55.6816 26.5039C55.6816 26.3086 55.748 26.1445 55.8809 26.0117C56.0176 25.875 56.1836 25.8066 56.3789 25.8066ZM56.3789 30.7051C56.5781 30.7051 56.7461 30.7715 56.8828 30.9043C57.0195 31.0371 57.0879 31.2031 57.0879 31.4023C57.0879 31.5977 57.0195 31.7617 56.8828 31.8945C56.7461 32.0273 56.5781 32.0938 56.3789 32.0938C56.1836 32.0938 56.0176 32.0273 55.8809 31.8945C55.748 31.7617 55.6816 31.5977 55.6816 31.4023C55.6816 31.2031 55.748 31.0371 55.8809 30.9043C56.0176 30.7715 56.1836 30.7051 56.3789 30.7051ZM70.6523 25.0273C70.4492 25.0039 70.2812 24.9219 70.1484 24.7812C70.0156 24.6367 69.9492 24.4707 69.9492 24.2832C69.9492 24.084 70.0137 23.916 70.1426 23.7793C70.2754 23.6426 70.4375 23.5742 70.6289 23.5742C70.8477 23.5742 71.0371 23.6641 71.1973 23.8438C71.3574 24.0195 71.4375 24.2344 71.4375 24.4883C71.4375 25.25 71.0137 25.8457 70.166 26.2754L69.9375 25.8535C70.4141 25.6191 70.6523 25.3438 70.6523 25.0273ZM68.5078 25.0273C68.3008 25.0039 68.1309 24.9219 67.998 24.7812C67.8652 24.6367 67.7988 24.4707 67.7988 24.2832C67.7988 24.084 67.8633 23.916 67.9922 23.7793C68.125 23.6426 68.2891 23.5742 68.4844 23.5742C68.7031 23.5742 68.8906 23.6641 69.0469 23.8438C69.207 24.0195 69.2871 24.2344 69.2871 24.4883C69.2871 25.25 68.8633 25.8457 68.0156 26.2754L67.7871 25.8535C68.2676 25.6191 68.5078 25.3438 68.5078 25.0273ZM83.8594 25.0273C83.6562 25.0039 83.4883 24.9219 83.3555 24.7812C83.2227 24.6367 83.1562 24.4707 83.1562 24.2832C83.1562 24.084 83.2207 23.916 83.3496 23.7793C83.4824 23.6426 83.6445 23.5742 83.8359 23.5742C84.0547 23.5742 84.2441 23.6641 84.4043 23.8438C84.5645 24.0195 84.6445 24.2344 84.6445 24.4883C84.6445 25.25 84.2207 25.8457 83.373 26.2754L83.1445 25.8535C83.6211 25.6191 83.8594 25.3438 83.8594 25.0273ZM81.7148 25.0273C81.5078 25.0039 81.3379 24.9219 81.2051 24.7812C81.0723 24.6367 81.0059 24.4707 81.0059 24.2832C81.0059 24.084 81.0703 23.916 81.1992 23.7793C81.332 23.6426 81.4961 23.5742 81.6914 23.5742C81.9102 23.5742 82.0977 23.6641 82.2539 23.8438C82.4141 24.0195 82.4941 24.2344 82.4941 24.4883C82.4941 25.25 82.0703 25.8457 81.2227 26.2754L80.9941 25.8535C81.4746 25.6191 81.7148 25.3438 81.7148 25.0273ZM99.3984 23.7324L98.3438 32H97.4531L96.0469 27.3418L94.6465 32H93.7324L92.7012 23.7324H93.6504L94.3477 30.4531L95.5664 26.3867H96.5273L97.752 30.4648L98.4609 23.7324H99.3984ZM112.605 23.7324L111.551 32H110.66L109.254 27.3418L107.854 32H106.939L105.908 23.7324H106.857L107.555 30.4531L108.773 26.3867H109.734L110.959 30.4648L111.668 23.7324H112.605ZM125.812 23.7324L124.758 32H123.867L122.461 27.3418L121.061 32H120.146L119.115 23.7324H120.064L120.762 30.4531L121.98 26.3867H122.941L124.166 30.4648L124.875 23.7324H125.812ZM139.02 23.7324L137.965 32H137.074L135.668 27.3418L134.268 32H133.354L132.322 23.7324H133.271L133.969 30.4531L135.188 26.3867H136.148L137.373 30.4648L138.082 23.7324H139.02ZM150.955 32.457C150.365 32.7852 149.729 32.9492 149.045 32.9492C148.1 32.9492 147.33 32.5645 146.736 31.7949C146.146 31.0215 145.852 29.9824 145.852 28.6777C145.852 27.1113 146.143 25.877 146.725 24.9746C147.311 24.0723 148.076 23.6211 149.021 23.6211C149.896 23.6211 150.609 23.9785 151.16 24.6934C151.711 25.4043 151.986 26.3633 151.986 27.5703C151.986 28.4727 151.805 29.2188 151.441 29.8086C151.082 30.3984 150.615 30.6934 150.041 30.6934C149.646 30.6934 149.395 30.4609 149.285 29.9961C149.062 30.4609 148.746 30.6934 148.336 30.6934C148.039 30.6934 147.791 30.5371 147.592 30.2246C147.393 29.9121 147.293 29.5039 147.293 29C147.293 28.2109 147.461 27.5527 147.797 27.0254C148.137 26.4941 148.557 26.2285 149.057 26.2285C149.252 26.2285 149.453 26.3008 149.66 26.4453L149.684 26.2988H150.416C150.182 28.4043 150.064 29.5332 150.064 29.6855C150.064 29.791 150.086 29.8789 150.129 29.9492C150.176 30.0195 150.234 30.0547 150.305 30.0547C150.566 30.0547 150.805 29.8223 151.02 29.3574C151.238 28.8887 151.348 28.293 151.348 27.5703C151.348 26.5391 151.137 25.7246 150.715 25.127C150.293 24.5254 149.729 24.2246 149.021 24.2246C148.264 24.2246 147.652 24.6211 147.188 25.4141C146.723 26.207 146.49 27.2949 146.49 28.6777C146.49 29.7871 146.725 30.6738 147.193 31.3379C147.666 32.002 148.283 32.334 149.045 32.334C149.674 32.334 150.266 32.1992 150.82 31.9297L150.955 32.457ZM149.572 27.0781C149.455 26.9336 149.295 26.8613 149.092 26.8613C148.771 26.8613 148.516 27.0488 148.324 27.4238C148.133 27.7988 148.037 28.2969 148.037 28.918C148.037 29.2734 148.086 29.5527 148.184 29.7559C148.281 29.9551 148.404 30.0547 148.553 30.0547C148.775 30.0547 148.959 29.9473 149.104 29.7324C149.248 29.5176 149.324 29.3652 149.332 29.2754L149.572 27.0781ZM162.516 26.4219L162.24 29.5156H161.736L161.461 26.4219V23.7324H162.516V26.4219ZM162.012 30.6582C162.219 30.6582 162.393 30.7285 162.533 30.8691C162.674 31.0098 162.744 31.1836 162.744 31.3906C162.744 31.5977 162.672 31.7773 162.527 31.9297C162.387 32.082 162.215 32.1582 162.012 32.1582C161.812 32.1582 161.643 32.084 161.502 31.9355C161.361 31.7832 161.291 31.6016 161.291 31.3906C161.291 31.1797 161.359 31.0059 161.496 30.8691C161.637 30.7285 161.809 30.6582 162.012 30.6582ZM175.723 26.4219L175.447 29.5156H174.943L174.668 26.4219V23.7324H175.723V26.4219ZM175.219 30.6582C175.426 30.6582 175.6 30.7285 175.74 30.8691C175.881 31.0098 175.951 31.1836 175.951 31.3906C175.951 31.5977 175.879 31.7773 175.734 31.9297C175.594 32.082 175.422 32.1582 175.219 32.1582C175.02 32.1582 174.85 32.084 174.709 31.9355C174.568 31.7832 174.498 31.6016 174.498 31.3906C174.498 31.1797 174.566 31.0059 174.703 30.8691C174.844 30.7285 175.016 30.6582 175.219 30.6582ZM188.93 26.4219L188.654 29.5156H188.15L187.875 26.4219V23.7324H188.93V26.4219ZM188.426 30.6582C188.633 30.6582 188.807 30.7285 188.947 30.8691C189.088 31.0098 189.158 31.1836 189.158 31.3906C189.158 31.5977 189.086 31.7773 188.941 31.9297C188.801 32.082 188.629 32.1582 188.426 32.1582C188.227 32.1582 188.057 32.084 187.916 31.9355C187.775 31.7832 187.705 31.6016 187.705 31.3906C187.705 31.1797 187.773 31.0059 187.91 30.8691C188.051 30.7285 188.223 30.6582 188.426 30.6582ZM202.137 26.4219L201.861 29.5156H201.357L201.082 26.4219V23.7324H202.137V26.4219ZM201.633 30.6582C201.84 30.6582 202.014 30.7285 202.154 30.8691C202.295 31.0098 202.365 31.1836 202.365 31.3906C202.365 31.5977 202.293 31.7773 202.148 31.9297C202.008 32.082 201.836 32.1582 201.633 32.1582C201.434 32.1582 201.264 32.084 201.123 31.9355C200.982 31.7832 200.912 31.6016 200.912 31.3906C200.912 31.1797 200.98 31.0059 201.117 30.8691C201.258 30.7285 201.43 30.6582 201.633 30.6582ZM215.344 26.4219L215.068 29.5156H214.564L214.289 26.4219V23.7324H215.344V26.4219ZM214.84 30.6582C215.047 30.6582 215.221 30.7285 215.361 30.8691C215.502 31.0098 215.572 31.1836 215.572 31.3906C215.572 31.5977 215.5 31.7773 215.355 31.9297C215.215 32.082 215.043 32.1582 214.84 32.1582C214.641 32.1582 214.471 32.084 214.33 31.9355C214.189 31.7832 214.119 31.6016 214.119 31.3906C214.119 31.1797 214.188 31.0059 214.324 30.8691C214.465 30.7285 214.637 30.6582 214.84 30.6582ZM230.484 32H226.137V31.1621H227.889V24.7402L226.236 25.5664V24.6055L228.023 23.6855H228.85V31.1621H230.484V32ZM243.691 32H239.344V31.1621H241.096V24.7402L239.443 25.5664V24.6055L241.23 23.6855H242.057V31.1621H243.691V32ZM256.682 32H252.135V31.3027C253.287 30.0176 254.035 29.1562 254.379 28.7188C254.723 28.2812 255.002 27.8223 255.217 27.3418C255.432 26.8613 255.539 26.3828 255.539 25.9062C255.539 25.4453 255.398 25.082 255.117 24.8164C254.84 24.5508 254.449 24.418 253.945 24.418C253.559 24.418 253.039 24.5371 252.387 24.7754L252.252 23.9492C252.842 23.6992 253.459 23.5742 254.104 23.5742C254.842 23.5742 255.436 23.7832 255.885 24.2012C256.338 24.6152 256.564 25.1699 256.564 25.8652C256.564 26.3613 256.447 26.8535 256.213 27.3418C255.982 27.8301 255.686 28.2988 255.322 28.748C254.959 29.1973 254.252 30.002 253.201 31.1621H256.682V32ZM270.105 32H265.758V31.1621H267.51V24.7402L265.857 25.5664V24.6055L267.645 23.6855H268.471V31.1621H270.105V32ZM282.422 29.3457C282 29.3457 281.691 29.4902 281.496 29.7793C281.305 30.0645 281.209 30.5723 281.209 31.3027V31.8652C281.209 32.6855 281.086 33.2461 280.84 33.5469C280.594 33.8516 280.189 34.0039 279.627 34.0039H279.158V33.2363H279.34C279.703 33.2363 279.955 33.1582 280.096 33.002C280.24 32.8457 280.312 32.4727 280.312 31.8828V31.5078C280.312 30.6992 280.406 30.1035 280.594 29.7207C280.781 29.3379 281.1 29.0527 281.549 28.8652C281.1 28.6816 280.781 28.3984 280.594 28.0156C280.406 27.6328 280.312 27.0371 280.312 26.2285V25.8535C280.312 25.2637 280.24 24.8906 280.096 24.7344C279.955 24.5781 279.703 24.5 279.34 24.5H279.158V23.7324H279.627C280.189 23.7324 280.594 23.8848 280.84 24.1895C281.086 24.4902 281.209 25.0488 281.209 25.8652V26.4336C281.209 27.0938 281.295 27.5859 281.467 27.9102C281.639 28.2305 281.957 28.3906 282.422 28.3906V29.3457ZM295.629 29.3457C295.207 29.3457 294.898 29.4902 294.703 29.7793C294.512 30.0645 294.416 30.5723 294.416 31.3027V31.8652C294.416 32.6855 294.293 33.2461 294.047 33.5469C293.801 33.8516 293.396 34.0039 292.834 34.0039H292.365V33.2363H292.547C292.91 33.2363 293.162 33.1582 293.303 33.002C293.447 32.8457 293.52 32.4727 293.52 31.8828V31.5078C293.52 30.6992 293.613 30.1035 293.801 29.7207C293.988 29.3379 294.307 29.0527 294.756 28.8652C294.307 28.6816 293.988 28.3984 293.801 28.0156C293.613 27.6328 293.52 27.0371 293.52 26.2285V25.8535C293.52 25.2637 293.447 24.8906 293.303 24.7344C293.162 24.5781 292.91 24.5 292.547 24.5H292.365V23.7324H292.834C293.396 23.7324 293.801 23.8848 294.047 24.1895C294.293 24.4902 294.416 25.0488 294.416 25.8652V26.4336C294.416 27.0938 294.502 27.5859 294.674 27.9102C294.846 28.2305 295.164 28.3906 295.629 28.3906V29.3457ZM307.781 34.2441H306.879V23.7324H307.781V34.2441ZM320.988 34.2441H320.086V23.7324H320.988V34.2441ZM334.195 34.2441H333.293V23.7324H334.195V34.2441ZM347.402 34.2441H346.5V23.7324H347.402V34.2441ZM360.609 34.2441H359.707V23.7324H360.609V34.2441ZM373.816 34.2441H372.914V23.7324H373.816V34.2441ZM387.023 34.2441H386.121V23.7324H387.023V34.2441ZM400.23 34.2441H399.328V23.7324H400.23V34.2441ZM413.438 34.2441H412.535V23.7324H413.438V34.2441Z" fill="#3BFFCF"/>
<path d="M5.71289 93.7402L1.33008 91.1094V90.4062L5.71289 87.7988V88.6426L2.19727 90.7871L5.71289 92.8789V93.7402ZM18.9199 93.7402L14.5371 91.1094V90.4062L18.9199 87.7988V88.6426L15.4043 90.7871L18.9199 92.8789V93.7402ZM32.127 93.7402L27.7441 91.1094V90.4062L32.127 87.7988V88.6426L28.6113 90.7871L32.127 92.8789V93.7402ZM43.1719 88.8066C43.3711 88.8066 43.5391 88.875 43.6758 89.0117C43.8125 89.1445 43.8809 89.3086 43.8809 89.5039C43.8809 89.6992 43.8125 89.8652 43.6758 90.002C43.5391 90.1348 43.3711 90.2012 43.1719 90.2012C42.9766 90.2012 42.8105 90.1348 42.6738 90.002C42.541 89.8652 42.4746 89.6992 42.4746 89.5039C42.4746 89.3086 42.541 89.1445 42.6738 89.0117C42.8105 88.875 42.9766 88.8066 43.1719 88.8066ZM43.1719 93.7051C43.3711 93.7051 43.5391 93.7715 43.6758 93.9043C43.8125 94.0371 43.8809 94.2031 43.8809 94.4023C43.8809 94.5977 43.8125 94.7617 43.6758 94.8945C43.5391 95.0273 43.3711 95.0938 43.1719 95.0938C42.9766 95.0938 42.8105 95.0273 42.6738 94.8945C42.541 94.7617 42.4746 94.5977 42.4746 94.4023C42.4746 94.2031 42.541 94.0371 42.6738 93.9043C42.8105 93.7715 42.9766 93.7051 43.1719 93.7051ZM56.3789 88.8066C56.5781 88.8066 56.7461 88.875 56.8828 89.0117C57.0195 89.1445 57.0879 89.3086 57.0879 89.5039C57.0879 89.6992 57.0195 89.8652 56.8828 90.002C56.7461 90.1348 56.5781 90.2012 56.3789 90.2012C56.1836 90.2012 56.0176 90.1348 55.8809 90.002C55.748 89.8652 55.6816 89.6992 55.6816 89.5039C55.6816 89.3086 55.748 89.1445 55.8809 89.0117C56.0176 88.875 56.1836 88.8066 56.3789 88.8066ZM56.3789 93.7051C56.5781 93.7051 56.7461 93.7715 56.8828 93.9043C57.0195 94.0371 57.0879 94.2031 57.0879 94.4023C57.0879 94.5977 57.0195 94.7617 56.8828 94.8945C56.7461 95.0273 56.5781 95.0938 56.3789 95.0938C56.1836 95.0938 56.0176 95.0273 55.8809 94.8945C55.748 94.7617 55.6816 94.5977 55.6816 94.4023C55.6816 94.2031 55.748 94.0371 55.8809 93.9043C56.0176 93.7715 56.1836 93.7051 56.3789 93.7051ZM70.6523 88.0273C70.4492 88.0039 70.2812 87.9219 70.1484 87.7812C70.0156 87.6367 69.9492 87.4707 69.9492 87.2832C69.9492 87.084 70.0137 86.916 70.1426 86.7793C70.2754 86.6426 70.4375 86.5742 70.6289 86.5742C70.8477 86.5742 71.0371 86.6641 71.1973 86.8438C71.3574 87.0195 71.4375 87.2344 71.4375 87.4883C71.4375 88.25 71.0137 88.8457 70.166 89.2754L69.9375 88.8535C70.4141 88.6191 70.6523 88.3438 70.6523 88.0273ZM68.5078 88.0273C68.3008 88.0039 68.1309 87.9219 67.998 87.7812C67.8652 87.6367 67.7988 87.4707 67.7988 87.2832C67.7988 87.084 67.8633 86.916 67.9922 86.7793C68.125 86.6426 68.2891 86.5742 68.4844 86.5742C68.7031 86.5742 68.8906 86.6641 69.0469 86.8438C69.207 87.0195 69.2871 87.2344 69.2871 87.4883C69.2871 88.25 68.8633 88.8457 68.0156 89.2754L67.7871 88.8535C68.2676 88.6191 68.5078 88.3438 68.5078 88.0273ZM83.8594 88.0273C83.6562 88.0039 83.4883 87.9219 83.3555 87.7812C83.2227 87.6367 83.1562 87.4707 83.1562 87.2832C83.1562 87.084 83.2207 86.916 83.3496 86.7793C83.4824 86.6426 83.6445 86.5742 83.8359 86.5742C84.0547 86.5742 84.2441 86.6641 84.4043 86.8438C84.5645 87.0195 84.6445 87.2344 84.6445 87.4883C84.6445 88.25 84.2207 88.8457 83.373 89.2754L83.1445 88.8535C83.6211 88.6191 83.8594 88.3438 83.8594 88.0273ZM81.7148 88.0273C81.5078 88.0039 81.3379 87.9219 81.2051 87.7812C81.0723 87.6367 81.0059 87.4707 81.0059 87.2832C81.0059 87.084 81.0703 86.916 81.1992 86.7793C81.332 86.6426 81.4961 86.5742 81.6914 86.5742C81.9102 86.5742 82.0977 86.6641 82.2539 86.8438C82.4141 87.0195 82.4941 87.2344 82.4941 87.4883C82.4941 88.25 82.0703 88.8457 81.2227 89.2754L80.9941 88.8535C81.4746 88.6191 81.7148 88.3438 81.7148 88.0273ZM99.3984 86.7324L98.3438 95H97.4531L96.0469 90.3418L94.6465 95H93.7324L92.7012 86.7324H93.6504L94.3477 93.4531L95.5664 89.3867H96.5273L97.752 93.4648L98.4609 86.7324H99.3984ZM112.605 86.7324L111.551 95H110.66L109.254 90.3418L107.854 95H106.939L105.908 86.7324H106.857L107.555 93.4531L108.773 89.3867H109.734L110.959 93.4648L111.668 86.7324H112.605ZM125.812 86.7324L124.758 95H123.867L122.461 90.3418L121.061 95H120.146L119.115 86.7324H120.064L120.762 93.4531L121.98 89.3867H122.941L124.166 93.4648L124.875 86.7324H125.812ZM139.02 86.7324L137.965 95H137.074L135.668 90.3418L134.268 95H133.354L132.322 86.7324H133.271L133.969 93.4531L135.188 89.3867H136.148L137.373 93.4648L138.082 86.7324H139.02ZM150.955 95.457C150.365 95.7852 149.729 95.9492 149.045 95.9492C148.1 95.9492 147.33 95.5645 146.736 94.7949C146.146 94.0215 145.852 92.9824 145.852 91.6777C145.852 90.1113 146.143 88.877 146.725 87.9746C147.311 87.0723 148.076 86.6211 149.021 86.6211C149.896 86.6211 150.609 86.9785 151.16 87.6934C151.711 88.4043 151.986 89.3633 151.986 90.5703C151.986 91.4727 151.805 92.2188 151.441 92.8086C151.082 93.3984 150.615 93.6934 150.041 93.6934C149.646 93.6934 149.395 93.4609 149.285 92.9961C149.062 93.4609 148.746 93.6934 148.336 93.6934C148.039 93.6934 147.791 93.5371 147.592 93.2246C147.393 92.9121 147.293 92.5039 147.293 92C147.293 91.2109 147.461 90.5527 147.797 90.0254C148.137 89.4941 148.557 89.2285 149.057 89.2285C149.252 89.2285 149.453 89.3008 149.66 89.4453L149.684 89.2988H150.416C150.182 91.4043 150.064 92.5332 150.064 92.6855C150.064 92.791 150.086 92.8789 150.129 92.9492C150.176 93.0195 150.234 93.0547 150.305 93.0547C150.566 93.0547 150.805 92.8223 151.02 92.3574C151.238 91.8887 151.348 91.293 151.348 90.5703C151.348 89.5391 151.137 88.7246 150.715 88.127C150.293 87.5254 149.729 87.2246 149.021 87.2246C148.264 87.2246 147.652 87.6211 147.188 88.4141C146.723 89.207 146.49 90.2949 146.49 91.6777C146.49 92.7871 146.725 93.6738 147.193 94.3379C147.666 95.002 148.283 95.334 149.045 95.334C149.674 95.334 150.266 95.1992 150.82 94.9297L150.955 95.457ZM149.572 90.0781C149.455 89.9336 149.295 89.8613 149.092 89.8613C148.771 89.8613 148.516 90.0488 148.324 90.4238C148.133 90.7988 148.037 91.2969 148.037 91.918C148.037 92.2734 148.086 92.5527 148.184 92.7559C148.281 92.9551 148.404 93.0547 148.553 93.0547C148.775 93.0547 148.959 92.9473 149.104 92.7324C149.248 92.5176 149.324 92.3652 149.332 92.2754L149.572 90.0781ZM162.516 89.4219L162.24 92.5156H161.736L161.461 89.4219V86.7324H162.516V89.4219ZM162.012 93.6582C162.219 93.6582 162.393 93.7285 162.533 93.8691C162.674 94.0098 162.744 94.1836 162.744 94.3906C162.744 94.5977 162.672 94.7773 162.527 94.9297C162.387 95.082 162.215 95.1582 162.012 95.1582C161.812 95.1582 161.643 95.084 161.502 94.9355C161.361 94.7832 161.291 94.6016 161.291 94.3906C161.291 94.1797 161.359 94.0059 161.496 93.8691C161.637 93.7285 161.809 93.6582 162.012 93.6582ZM175.723 89.4219L175.447 92.5156H174.943L174.668 89.4219V86.7324H175.723V89.4219ZM175.219 93.6582C175.426 93.6582 175.6 93.7285 175.74 93.8691C175.881 94.0098 175.951 94.1836 175.951 94.3906C175.951 94.5977 175.879 94.7773 175.734 94.9297C175.594 95.082 175.422 95.1582 175.219 95.1582C175.02 95.1582 174.85 95.084 174.709 94.9355C174.568 94.7832 174.498 94.6016 174.498 94.3906C174.498 94.1797 174.566 94.0059 174.703 93.8691C174.844 93.7285 175.016 93.6582 175.219 93.6582ZM188.93 89.4219L188.654 92.5156H188.15L187.875 89.4219V86.7324H188.93V89.4219ZM188.426 93.6582C188.633 93.6582 188.807 93.7285 188.947 93.8691C189.088 94.0098 189.158 94.1836 189.158 94.3906C189.158 94.5977 189.086 94.7773 188.941 94.9297C188.801 95.082 188.629 95.1582 188.426 95.1582C188.227 95.1582 188.057 95.084 187.916 94.9355C187.775 94.7832 187.705 94.6016 187.705 94.3906C187.705 94.1797 187.773 94.0059 187.91 93.8691C188.051 93.7285 188.223 93.6582 188.426 93.6582ZM202.137 89.4219L201.861 92.5156H201.357L201.082 89.4219V86.7324H202.137V89.4219ZM201.633 93.6582C201.84 93.6582 202.014 93.7285 202.154 93.8691C202.295 94.0098 202.365 94.1836 202.365 94.3906C202.365 94.5977 202.293 94.7773 202.148 94.9297C202.008 95.082 201.836 95.1582 201.633 95.1582C201.434 95.1582 201.264 95.084 201.123 94.9355C200.982 94.7832 200.912 94.6016 200.912 94.3906C200.912 94.1797 200.98 94.0059 201.117 93.8691C201.258 93.7285 201.43 93.6582 201.633 93.6582ZM215.344 89.4219L215.068 92.5156H214.564L214.289 89.4219V86.7324H215.344V89.4219ZM214.84 93.6582C215.047 93.6582 215.221 93.7285 215.361 93.8691C215.502 94.0098 215.572 94.1836 215.572 94.3906C215.572 94.5977 215.5 94.7773 215.355 94.9297C215.215 95.082 215.043 95.1582 214.84 95.1582C214.641 95.1582 214.471 95.084 214.33 94.9355C214.189 94.7832 214.119 94.6016 214.119 94.3906C214.119 94.1797 214.188 94.0059 214.324 93.8691C214.465 93.7285 214.637 93.6582 214.84 93.6582ZM230.484 95H226.137V94.1621H227.889V87.7402L226.236 88.5664V87.6055L228.023 86.6855H228.85V94.1621H230.484V95ZM243.691 95H239.344V94.1621H241.096V87.7402L239.443 88.5664V87.6055L241.23 86.6855H242.057V94.1621H243.691V95ZM256.682 95H252.135V94.3027C253.287 93.0176 254.035 92.1562 254.379 91.7188C254.723 91.2812 255.002 90.8223 255.217 90.3418C255.432 89.8613 255.539 89.3828 255.539 88.9062C255.539 88.4453 255.398 88.082 255.117 87.8164C254.84 87.5508 254.449 87.418 253.945 87.418C253.559 87.418 253.039 87.5371 252.387 87.7754L252.252 86.9492C252.842 86.6992 253.459 86.5742 254.104 86.5742C254.842 86.5742 255.436 86.7832 255.885 87.2012C256.338 87.6152 256.564 88.1699 256.564 88.8652C256.564 89.3613 256.447 89.8535 256.213 90.3418C255.982 90.8301 255.686 91.2988 255.322 91.748C254.959 92.1973 254.252 93.002 253.201 94.1621H256.682V95ZM270.105 95H265.758V94.1621H267.51V87.7402L265.857 88.5664V87.6055L267.645 86.6855H268.471V94.1621H270.105V95ZM282.422 92.3457C282 92.3457 281.691 92.4902 281.496 92.7793C281.305 93.0645 281.209 93.5723 281.209 94.3027V94.8652C281.209 95.6855 281.086 96.2461 280.84 96.5469C280.594 96.8516 280.189 97.0039 279.627 97.0039H279.158V96.2363H279.34C279.703 96.2363 279.955 96.1582 280.096 96.002C280.24 95.8457 280.312 95.4727 280.312 94.8828V94.5078C280.312 93.6992 280.406 93.1035 280.594 92.7207C280.781 92.3379 281.1 92.0527 281.549 91.8652C281.1 91.6816 280.781 91.3984 280.594 91.0156C280.406 90.6328 280.312 90.0371 280.312 89.2285V88.8535C280.312 88.2637 280.24 87.8906 280.096 87.7344C279.955 87.5781 279.703 87.5 279.34 87.5H279.158V86.7324H279.627C280.189 86.7324 280.594 86.8848 280.84 87.1895C281.086 87.4902 281.209 88.0488 281.209 88.8652V89.4336C281.209 90.0938 281.295 90.5859 281.467 90.9102C281.639 91.2305 281.957 91.3906 282.422 91.3906V92.3457ZM295.629 92.3457C295.207 92.3457 294.898 92.4902 294.703 92.7793C294.512 93.0645 294.416 93.5723 294.416 94.3027V94.8652C294.416 95.6855 294.293 96.2461 294.047 96.5469C293.801 96.8516 293.396 97.0039 292.834 97.0039H292.365V96.2363H292.547C292.91 96.2363 293.162 96.1582 293.303 96.002C293.447 95.8457 293.52 95.4727 293.52 94.8828V94.5078C293.52 93.6992 293.613 93.1035 293.801 92.7207C293.988 92.3379 294.307 92.0527 294.756 91.8652C294.307 91.6816 293.988 91.3984 293.801 91.0156C293.613 90.6328 293.52 90.0371 293.52 89.2285V88.8535C293.52 88.2637 293.447 87.8906 293.303 87.7344C293.162 87.5781 292.91 87.5 292.547 87.5H292.365V86.7324H292.834C293.396 86.7324 293.801 86.8848 294.047 87.1895C294.293 87.4902 294.416 88.0488 294.416 88.8652V89.4336C294.416 90.0938 294.502 90.5859 294.674 90.9102C294.846 91.2305 295.164 91.3906 295.629 91.3906V92.3457ZM307.781 97.2441H306.879V86.7324H307.781V97.2441ZM320.988 97.2441H320.086V86.7324H320.988V97.2441ZM334.195 97.2441H333.293V86.7324H334.195V97.2441ZM347.402 97.2441H346.5V86.7324H347.402V97.2441ZM360.609 97.2441H359.707V86.7324H360.609V97.2441ZM373.816 97.2441H372.914V86.7324H373.816V97.2441ZM387.023 97.2441H386.121V86.7324H387.023V97.2441ZM400.23 97.2441H399.328V86.7324H400.23V97.2441ZM413.438 97.2441H412.535V86.7324H413.438V97.2441Z" fill="#3BFFCF"/>
<path d="M3.5625 72.6582C3.76953 72.6582 3.94336 72.7285 4.08398 72.8691C4.22461 73.0098 4.29492 73.1836 4.29492 73.3906C4.29492 73.6016 4.22266 73.7832 4.07812 73.9355C3.9375 74.084 3.76562 74.1582 3.5625 74.1582C3.36328 74.1582 3.19336 74.084 3.05273 73.9355C2.91211 73.7832 2.8418 73.6016 2.8418 73.3906C2.8418 73.1797 2.91016 73.0059 3.04688 72.8691C3.1875 72.7285 3.35938 72.6582 3.5625 72.6582ZM16.7695 72.6582C16.9766 72.6582 17.1504 72.7285 17.291 72.8691C17.4316 73.0098 17.502 73.1836 17.502 73.3906C17.502 73.6016 17.4297 73.7832 17.2852 73.9355C17.1445 74.084 16.9727 74.1582 16.7695 74.1582C16.5703 74.1582 16.4004 74.084 16.2598 73.9355C16.1191 73.7832 16.0488 73.6016 16.0488 73.3906C16.0488 73.1797 16.1172 73.0059 16.2539 72.8691C16.3945 72.7285 16.5664 72.6582 16.7695 72.6582ZM29.9766 72.6582C30.1836 72.6582 30.3574 72.7285 30.498 72.8691C30.6387 73.0098 30.709 73.1836 30.709 73.3906C30.709 73.6016 30.6367 73.7832 30.4922 73.9355C30.3516 74.084 30.1797 74.1582 29.9766 74.1582C29.7773 74.1582 29.6074 74.084 29.4668 73.9355C29.3262 73.7832 29.2559 73.6016 29.2559 73.3906C29.2559 73.1797 29.3242 73.0059 29.4609 72.8691C29.6016 72.7285 29.7734 72.6582 29.9766 72.6582ZM43.1836 72.6582C43.3906 72.6582 43.5645 72.7285 43.7051 72.8691C43.8457 73.0098 43.916 73.1836 43.916 73.3906C43.916 73.6016 43.8438 73.7832 43.6992 73.9355C43.5586 74.084 43.3867 74.1582 43.1836 74.1582C42.9844 74.1582 42.8145 74.084 42.6738 73.9355C42.5332 73.7832 42.4629 73.6016 42.4629 73.3906C42.4629 73.1797 42.5312 73.0059 42.668 72.8691C42.8086 72.7285 42.9805 72.6582 43.1836 72.6582ZM56.3906 72.6582C56.5977 72.6582 56.7715 72.7285 56.9121 72.8691C57.0527 73.0098 57.123 73.1836 57.123 73.3906C57.123 73.6016 57.0508 73.7832 56.9062 73.9355C56.7656 74.084 56.5938 74.1582 56.3906 74.1582C56.1914 74.1582 56.0215 74.084 55.8809 73.9355C55.7402 73.7832 55.6699 73.6016 55.6699 73.3906C55.6699 73.1797 55.7383 73.0059 55.875 72.8691C56.0156 72.7285 56.1875 72.6582 56.3906 72.6582ZM69.5977 72.6582C69.8047 72.6582 69.9785 72.7285 70.1191 72.8691C70.2598 73.0098 70.3301 73.1836 70.3301 73.3906C70.3301 73.6016 70.2578 73.7832 70.1133 73.9355C69.9727 74.084 69.8008 74.1582 69.5977 74.1582C69.3984 74.1582 69.2285 74.084 69.0879 73.9355C68.9473 73.7832 68.877 73.6016 68.877 73.3906C68.877 73.1797 68.9453 73.0059 69.082 72.8691C69.2227 72.7285 69.3945 72.6582 69.5977 72.6582ZM85.1836 70.1094L80.8008 72.7402V71.8789L84.3164 69.7871L80.8008 67.6426V66.7988L85.1836 69.4062V70.1094ZM98.3906 70.1094L94.0078 72.7402V71.8789L97.5234 69.7871L94.0078 67.6426V66.7988L98.3906 69.4062V70.1094ZM111.598 70.1094L107.215 72.7402V71.8789L110.73 69.7871L107.215 67.6426V66.7988L111.598 69.4062V70.1094ZM120.27 66.043C120.961 65.7305 121.58 65.5742 122.127 65.5742C122.865 65.5742 123.436 65.7402 123.838 66.0723C124.24 66.4043 124.441 66.8945 124.441 67.543C124.441 68.2148 124.006 68.9121 123.135 69.6348C122.756 69.9473 122.523 70.1562 122.438 70.2617C122.355 70.3633 122.289 70.4883 122.238 70.6367C122.188 70.7852 122.162 70.9707 122.162 71.1934V71.5156H121.359V71.1816C121.359 70.502 121.576 69.9727 122.01 69.5938L122.783 68.9141C123.033 68.7031 123.217 68.4902 123.334 68.2754C123.451 68.0566 123.51 67.8242 123.51 67.5781C123.51 67.1719 123.381 66.8613 123.123 66.6465C122.865 66.4277 122.514 66.3184 122.068 66.3184C121.666 66.3184 121.158 66.4629 120.545 66.752L120.27 66.043ZM121.863 72.6582C122.07 72.6582 122.244 72.7285 122.385 72.8691C122.525 73.0098 122.596 73.1836 122.596 73.3906C122.596 73.6016 122.523 73.7832 122.379 73.9355C122.238 74.084 122.066 74.1582 121.863 74.1582C121.664 74.1582 121.494 74.084 121.354 73.9355C121.213 73.7832 121.143 73.6016 121.143 73.3906C121.143 73.1797 121.211 73.0059 121.348 72.8691C121.488 72.7285 121.66 72.6582 121.863 72.6582ZM138.012 70.1094L133.629 72.7402V71.8789L137.145 69.7871L133.629 67.6426V66.7988L138.012 69.4062V70.1094ZM146.684 66.043C147.375 65.7305 147.994 65.5742 148.541 65.5742C149.279 65.5742 149.85 65.7402 150.252 66.0723C150.654 66.4043 150.855 66.8945 150.855 67.543C150.855 68.2148 150.42 68.9121 149.549 69.6348C149.17 69.9473 148.938 70.1562 148.852 70.2617C148.77 70.3633 148.703 70.4883 148.652 70.6367C148.602 70.7852 148.576 70.9707 148.576 71.1934V71.5156H147.773V71.1816C147.773 70.502 147.99 69.9727 148.424 69.5938L149.197 68.9141C149.447 68.7031 149.631 68.4902 149.748 68.2754C149.865 68.0566 149.924 67.8242 149.924 67.5781C149.924 67.1719 149.795 66.8613 149.537 66.6465C149.279 66.4277 148.928 66.3184 148.482 66.3184C148.08 66.3184 147.572 66.4629 146.959 66.752L146.684 66.043ZM148.277 72.6582C148.484 72.6582 148.658 72.7285 148.799 72.8691C148.939 73.0098 149.01 73.1836 149.01 73.3906C149.01 73.6016 148.938 73.7832 148.793 73.9355C148.652 74.084 148.48 74.1582 148.277 74.1582C148.078 74.1582 147.908 74.084 147.768 73.9355C147.627 73.7832 147.557 73.6016 147.557 73.3906C147.557 73.1797 147.625 73.0059 147.762 72.8691C147.902 72.7285 148.074 72.6582 148.277 72.6582ZM159.891 66.043C160.582 65.7305 161.201 65.5742 161.748 65.5742C162.486 65.5742 163.057 65.7402 163.459 66.0723C163.861 66.4043 164.062 66.8945 164.062 67.543C164.062 68.2148 163.627 68.9121 162.756 69.6348C162.377 69.9473 162.145 70.1562 162.059 70.2617C161.977 70.3633 161.91 70.4883 161.859 70.6367C161.809 70.7852 161.783 70.9707 161.783 71.1934V71.5156H160.98V71.1816C160.98 70.502 161.197 69.9727 161.631 69.5938L162.404 68.9141C162.654 68.7031 162.838 68.4902 162.955 68.2754C163.072 68.0566 163.131 67.8242 163.131 67.5781C163.131 67.1719 163.002 66.8613 162.744 66.6465C162.486 66.4277 162.135 66.3184 161.689 66.3184C161.287 66.3184 160.779 66.4629 160.166 66.752L159.891 66.043ZM161.484 72.6582C161.691 72.6582 161.865 72.7285 162.006 72.8691C162.146 73.0098 162.217 73.1836 162.217 73.3906C162.217 73.6016 162.145 73.7832 162 73.9355C161.859 74.084 161.688 74.1582 161.484 74.1582C161.285 74.1582 161.115 74.084 160.975 73.9355C160.834 73.7832 160.764 73.6016 160.764 73.3906C160.764 73.1797 160.832 73.0059 160.969 72.8691C161.109 72.7285 161.281 72.6582 161.484 72.6582ZM173.098 66.043C173.789 65.7305 174.408 65.5742 174.955 65.5742C175.693 65.5742 176.264 65.7402 176.666 66.0723C177.068 66.4043 177.27 66.8945 177.27 67.543C177.27 68.2148 176.834 68.9121 175.963 69.6348C175.584 69.9473 175.352 70.1562 175.266 70.2617C175.184 70.3633 175.117 70.4883 175.066 70.6367C175.016 70.7852 174.99 70.9707 174.99 71.1934V71.5156H174.188V71.1816C174.188 70.502 174.404 69.9727 174.838 69.5938L175.611 68.9141C175.861 68.7031 176.045 68.4902 176.162 68.2754C176.279 68.0566 176.338 67.8242 176.338 67.5781C176.338 67.1719 176.209 66.8613 175.951 66.6465C175.693 66.4277 175.342 66.3184 174.896 66.3184C174.494 66.3184 173.986 66.4629 173.373 66.752L173.098 66.043ZM174.691 72.6582C174.898 72.6582 175.072 72.7285 175.213 72.8691C175.354 73.0098 175.424 73.1836 175.424 73.3906C175.424 73.6016 175.352 73.7832 175.207 73.9355C175.066 74.084 174.895 74.1582 174.691 74.1582C174.492 74.1582 174.322 74.084 174.182 73.9355C174.041 73.7832 173.971 73.6016 173.971 73.3906C173.971 73.1797 174.039 73.0059 174.176 72.8691C174.316 72.7285 174.488 72.6582 174.691 72.6582ZM186.305 66.043C186.996 65.7305 187.615 65.5742 188.162 65.5742C188.9 65.5742 189.471 65.7402 189.873 66.0723C190.275 66.4043 190.477 66.8945 190.477 67.543C190.477 68.2148 190.041 68.9121 189.17 69.6348C188.791 69.9473 188.559 70.1562 188.473 70.2617C188.391 70.3633 188.324 70.4883 188.273 70.6367C188.223 70.7852 188.197 70.9707 188.197 71.1934V71.5156H187.395V71.1816C187.395 70.502 187.611 69.9727 188.045 69.5938L188.818 68.9141C189.068 68.7031 189.252 68.4902 189.369 68.2754C189.486 68.0566 189.545 67.8242 189.545 67.5781C189.545 67.1719 189.416 66.8613 189.158 66.6465C188.9 66.4277 188.549 66.3184 188.104 66.3184C187.701 66.3184 187.193 66.4629 186.58 66.752L186.305 66.043ZM187.898 72.6582C188.105 72.6582 188.279 72.7285 188.42 72.8691C188.561 73.0098 188.631 73.1836 188.631 73.3906C188.631 73.6016 188.559 73.7832 188.414 73.9355C188.273 74.084 188.102 74.1582 187.898 74.1582C187.699 74.1582 187.529 74.084 187.389 73.9355C187.248 73.7832 187.178 73.6016 187.178 73.3906C187.178 73.1797 187.246 73.0059 187.383 72.8691C187.523 72.7285 187.695 72.6582 187.898 72.6582ZM203.818 65.5742L200.227 74.1582H199.365L202.939 65.5742H203.818ZM217.025 65.5742L213.434 74.1582H212.572L216.146 65.5742H217.025ZM230.232 65.5742L226.641 74.1582H225.779L229.354 65.5742H230.232ZM243.439 65.5742L239.848 74.1582H238.986L242.561 65.5742H243.439ZM257.701 71C257.096 71.5117 256.512 71.7676 255.949 71.7676C255.621 71.7676 255.121 71.6152 254.449 71.3105C253.762 71.0059 253.273 70.8535 252.984 70.8535C252.527 70.8535 251.959 71.123 251.279 71.6621V70.8184C251.896 70.3066 252.494 70.0508 253.072 70.0508C253.408 70.0508 253.912 70.2031 254.584 70.5078C255.256 70.8125 255.734 70.9648 256.02 70.9648C256.477 70.9648 257.037 70.6973 257.701 70.1621V71ZM270.908 71C270.303 71.5117 269.719 71.7676 269.156 71.7676C268.828 71.7676 268.328 71.6152 267.656 71.3105C266.969 71.0059 266.48 70.8535 266.191 70.8535C265.734 70.8535 265.166 71.123 264.486 71.6621V70.8184C265.104 70.3066 265.701 70.0508 266.279 70.0508C266.615 70.0508 267.119 70.2031 267.791 70.5078C268.463 70.8125 268.941 70.9648 269.227 70.9648C269.684 70.9648 270.244 70.6973 270.908 70.1621V71ZM284.115 71C283.51 71.5117 282.926 71.7676 282.363 71.7676C282.035 71.7676 281.535 71.6152 280.863 71.3105C280.176 71.0059 279.688 70.8535 279.398 70.8535C278.941 70.8535 278.373 71.123 277.693 71.6621V70.8184C278.311 70.3066 278.908 70.0508 279.486 70.0508C279.822 70.0508 280.326 70.2031 280.998 70.5078C281.67 70.8125 282.148 70.9648 282.434 70.9648C282.891 70.9648 283.451 70.6973 284.115 70.1621V71ZM297.322 71C296.717 71.5117 296.133 71.7676 295.57 71.7676C295.242 71.7676 294.742 71.6152 294.07 71.3105C293.383 71.0059 292.895 70.8535 292.605 70.8535C292.148 70.8535 291.58 71.123 290.9 71.6621V70.8184C291.518 70.3066 292.115 70.0508 292.693 70.0508C293.029 70.0508 293.533 70.2031 294.205 70.5078C294.877 70.8125 295.355 70.9648 295.641 70.9648C296.098 70.9648 296.658 70.6973 297.322 70.1621V71ZM309.58 74H305.262V65.7324H309.545V66.5703H306.223V69.1309H309.416V69.9688H306.223V73.1621H309.58V74ZM323.619 75.3652C323.279 75.4707 322.943 75.5234 322.611 75.5234C321.752 75.5234 321.195 75.0547 320.941 74.1172C320.789 74.1445 320.66 74.1582 320.555 74.1582C319.633 74.1582 318.928 73.793 318.439 73.0625C317.955 72.3281 317.713 71.2637 317.713 69.8691C317.713 68.4746 317.955 67.4102 318.439 66.6758C318.924 65.9414 319.629 65.5742 320.555 65.5742C321.48 65.5742 322.186 65.9414 322.67 66.6758C323.158 67.4062 323.402 68.4707 323.402 69.8691C323.402 71.9004 322.895 73.2207 321.879 73.8301C322.023 74.4004 322.299 74.6855 322.705 74.6855C322.932 74.6855 323.18 74.6562 323.449 74.5977L323.619 75.3652ZM320.555 73.3145C321.773 73.3145 322.383 72.166 322.383 69.8691C322.383 67.5684 321.773 66.418 320.555 66.418C319.961 66.418 319.508 66.7168 319.195 67.3145C318.887 67.9082 318.732 68.7598 318.732 69.8691C318.732 70.9902 318.887 71.8457 319.195 72.4355C319.504 73.0215 319.957 73.3145 320.555 73.3145ZM335.889 72.7402L331.506 70.1094V69.4062L335.889 66.7988V67.6426L332.373 69.7871L335.889 71.8789V72.7402ZM349.096 72.7402L344.713 70.1094V69.4062L349.096 66.7988V67.6426L345.58 69.7871L349.096 71.8789V72.7402ZM362.303 72.7402L357.92 70.1094V69.4062L362.303 66.7988V67.6426L358.787 69.7871L362.303 71.8789V72.7402ZM375.51 72.7402L371.127 70.1094V69.4062L375.51 66.7988V67.6426L371.994 69.7871L375.51 71.8789V72.7402ZM388.717 72.7402L384.334 70.1094V69.4062L388.717 66.7988V67.6426L385.201 69.7871L388.717 71.8789V72.7402ZM399.773 72.6582C399.98 72.6582 400.154 72.7285 400.295 72.8691C400.436 73.0098 400.506 73.1836 400.506 73.3906C400.506 73.6016 400.434 73.7832 400.289 73.9355C400.148 74.084 399.977 74.1582 399.773 74.1582C399.574 74.1582 399.404 74.084 399.264 73.9355C399.123 73.7832 399.053 73.6016 399.053 73.3906C399.053 73.1797 399.121 73.0059 399.258 72.8691C399.398 72.7285 399.57 72.6582 399.773 72.6582ZM412.98 72.6582C413.188 72.6582 413.361 72.7285 413.502 72.8691C413.643 73.0098 413.713 73.1836 413.713 73.3906C413.713 73.6016 413.641 73.7832 413.496 73.9355C413.355 74.084 413.184 74.1582 412.98 74.1582C412.781 74.1582 412.611 74.084 412.471 73.9355C412.33 73.7832 412.26 73.6016 412.26 73.3906C412.26 73.1797 412.328 73.0059 412.465 72.8691C412.605 72.7285 412.777 72.6582 412.98 72.6582ZM426.188 72.6582C426.395 72.6582 426.568 72.7285 426.709 72.8691C426.85 73.0098 426.92 73.1836 426.92 73.3906C426.92 73.6016 426.848 73.7832 426.703 73.9355C426.562 74.084 426.391 74.1582 426.188 74.1582C425.988 74.1582 425.818 74.084 425.678 73.9355C425.537 73.7832 425.467 73.6016 425.467 73.3906C425.467 73.1797 425.535 73.0059 425.672 72.8691C425.812 72.7285 425.984 72.6582 426.188 72.6582ZM439.395 72.6582C439.602 72.6582 439.775 72.7285 439.916 72.8691C440.057 73.0098 440.127 73.1836 440.127 73.3906C440.127 73.6016 440.055 73.7832 439.91 73.9355C439.77 74.084 439.598 74.1582 439.395 74.1582C439.195 74.1582 439.025 74.084 438.885 73.9355C438.744 73.7832 438.674 73.6016 438.674 73.3906C438.674 73.1797 438.742 73.0059 438.879 72.8691C439.02 72.7285 439.191 72.6582 439.395 72.6582ZM452.602 72.6582C452.809 72.6582 452.982 72.7285 453.123 72.8691C453.264 73.0098 453.334 73.1836 453.334 73.3906C453.334 73.6016 453.262 73.7832 453.117 73.9355C452.977 74.084 452.805 74.1582 452.602 74.1582C452.402 74.1582 452.232 74.084 452.092 73.9355C451.951 73.7832 451.881 73.6016 451.881 73.3906C451.881 73.1797 451.949 73.0059 452.086 72.8691C452.227 72.7285 452.398 72.6582 452.602 72.6582ZM465.809 72.6582C466.016 72.6582 466.189 72.7285 466.33 72.8691C466.471 73.0098 466.541 73.1836 466.541 73.3906C466.541 73.6016 466.469 73.7832 466.324 73.9355C466.184 74.084 466.012 74.1582 465.809 74.1582C465.609 74.1582 465.439 74.084 465.299 73.9355C465.158 73.7832 465.088 73.6016 465.088 73.3906C465.088 73.1797 465.156 73.0059 465.293 72.8691C465.434 72.7285 465.605 72.6582 465.809 72.6582ZM479.016 72.6582C479.223 72.6582 479.396 72.7285 479.537 72.8691C479.678 73.0098 479.748 73.1836 479.748 73.3906C479.748 73.6016 479.676 73.7832 479.531 73.9355C479.391 74.084 479.219 74.1582 479.016 74.1582C478.816 74.1582 478.646 74.084 478.506 73.9355C478.365 73.7832 478.295 73.6016 478.295 73.3906C478.295 73.1797 478.363 73.0059 478.5 72.8691C478.641 72.7285 478.812 72.6582 479.016 72.6582ZM492.223 72.6582C492.43 72.6582 492.604 72.7285 492.744 72.8691C492.885 73.0098 492.955 73.1836 492.955 73.3906C492.955 73.6016 492.883 73.7832 492.738 73.9355C492.598 74.084 492.426 74.1582 492.223 74.1582C492.023 74.1582 491.854 74.084 491.713 73.9355C491.572 73.7832 491.502 73.6016 491.502 73.3906C491.502 73.1797 491.57 73.0059 491.707 72.8691C491.848 72.7285 492.02 72.6582 492.223 72.6582ZM505.43 72.6582C505.637 72.6582 505.811 72.7285 505.951 72.8691C506.092 73.0098 506.162 73.1836 506.162 73.3906C506.162 73.6016 506.09 73.7832 505.945 73.9355C505.805 74.084 505.633 74.1582 505.43 74.1582C505.23 74.1582 505.061 74.084 504.92 73.9355C504.779 73.7832 504.709 73.6016 504.709 73.3906C504.709 73.1797 504.777 73.0059 504.914 72.8691C505.055 72.7285 505.227 72.6582 505.43 72.6582Z" fill="#3BFFCF"/>
</svg>
