<?xml version="1.0" encoding="UTF-8" standalone="no"?><svg xmlns="http://www.w3.org/2000/svg" width="397.56" height="191.69" version="1.0"><path fill="#fff" d="M175.42 91.264c3.88-4.102 7.64-7.553 8.48-8.251 1.39-1.015 7.36-2.319 7.36-2.319s8.66 1.079 9.9 1.938c3.95 2.926 10.44 8.811 10.44 8.811-5.32-7.778-7.49-16.41-7.58-16.946l4.48-7.421 14.27-10.703c-9.01 2.435-14.55 2.458-18.43 2.296L192.5 36.697c-1.78 14.264-3.26 15.441-4.12 17.218l-26.24 3.56c9.4 2.977 16.19 8.43 17.74 10.213 1.47 2.637-.54 10.455-.54 10.455l-3.92 13.121z"/><path fill="#009444" d="M165.23 58.941c5.39 1.194 13.84 6.831 16.82 10.143.47.629.51 1.195.47 1.691C180 91.328 155.84 122.3 155.84 122.3c10.2-29.53 25.6-54.07 4.8-64.011 1.5.069 3.17.404 4.59.652"/><path fill="#8dc73f" d="M191.78 38.14c.55 5.499-2.21 15.279-4.44 19.156-.45.629-.96.854-1.48.946-20.31 3.947-57.21-9.468-57.21-9.468 31.22.611 59.33 7.645 62.34-15.187.41 1.443.59 3.133.79 4.553"/><path fill="#f8941d" d="M219.73 56.754c-5.05 2.21-15.21 2.614-19.56 1.69-.75-.225-1.13-.652-1.38-1.102C188.77 39.242 190.12 0 190.12 0c9.08 29.866 11.06 58.785 33.72 54.59-1.27.837-2.8 1.535-4.11 2.164"/><path fill="#ffe700" d="M213.29 58.514c-3.77.744-10.84.992-13.67-.295-.47-.248-.65-.582-.76-.923-4.08-13.796 2.91-41.042 2.91-41.042.7 21.522-.95 41.088 14.61 41.585-1.04.334-2.31.519-3.09.675"/><path fill="#ffc132" d="M199.27 57.948c-.27-.288-.43-.583-.37-1.079 1.9-13.617 7.69-21.095 11.66-28.106-8.03 24.206-10.69 28.758.11 30.108-.88.185-9.56.768-11.4-.923"/><path fill="#0088c4" d="M210.63 89.077c-3.65-4.125-7.19-13.657-7.67-18.1-.02-.768.29-1.264.63-1.645 14.14-15.123 51.87-25.965 51.87-25.965-25.61 17.853-52.5 28.672-41.52 48.93-1.17-.946-2.32-2.181-3.31-3.22"/><path fill="#00bce8" d="M206.95 83.486c-1.84-3.358-4.28-10.005-3.94-13.092.11-.519.36-.79.65-.992 11.86-8.136 39.94-9.942 39.94-9.942-20.26 7.328-39.4 11.788-35.05 26.755-.63-.882-1.22-2.031-1.6-2.729"/><path fill="#00b6ad" d="M213.44 68.438c-2.86.013-5.97.272-9.35.874-.49.07-.73.322-.93.657-1.02 2.302 2.2 10.366 2.65 11.156-2.05-10.709 3.1-9.593 28.6-9.437-5.92-1.199-12.39-3.292-20.97-3.25zm-21.1 8.812c-.16.019-.31.063-.5.125-4.05 1.823-12.06 8.121-14.84 12.875-.68 1.287-1.52 2.737-2.06 4.156 15.87-16.704 34.47 5.528 59.37 24.344 0 0-21.95-32.511-40.72-41.281-.34-.152-.75-.277-1.25-.219z"/><path fill="#002157" d="M223.19 135.09c-22.2 0-33.19 13.79-33.19 28.69 0 16.39 11.36 27.91 31.28 27.91 10.82 0 19.59-3.45 24.34-5.35v-26.93h-21.37l-6.16 11.37h11.75v8.59c-1.38.41-3.31.94-6.06.94-10.97 0-16.31-8.08-16.31-16.69 0-9.24 7.04-16.56 18.56-16.56 2.37 0 5.18.29 8.06 1.22 3.52 1.13 5.88 2.67 7.41 3.66v-14.19c-7.93-2.34-15.56-2.66-18.31-2.66zM130 136.37v53.94h33.88l7.24-12.9h-24.09v-8.16h16.85v-12.66h-16.85v-7.31h19.75v-12.91H130zm180.38 0v53.94h33.87l7.25-12.9h-24.09v-8.16h16.84v-12.66h-16.84v-7.31h19.75v-12.91h-36.78zM0 136.47v53.84h17.156V171h17.469v-12.72H17.156v-9.09h20.75v-12.72H0zm42.937 0v53.84h17.188v-53.84H42.937zm25.5 0v53.84H85.25v-26.53l25.25 26.53h11.66v-53.84h-16.78v25.31l-23.099-25.31H68.437zm200.9 0l-21.15 53.84h17.03l3.12-8.84h17.78l2.82 8.84h18.09l-20.91-53.84h-16.78zm86.97 0v53.84h33.69l7.56-13.03h-24.09v-40.81h-17.16zm-78.87 17.69c.22.92.34 1.91.59 2.59l4.88 15.19h-11.29l5.13-15.1c.23-.54.46-1.69.69-2.68z"/></svg>