<?xml version="1.0" encoding="UTF-8" standalone="no"?>
<svg
   xmlns:dc="http://purl.org/dc/elements/1.1/"
   xmlns:cc="http://creativecommons.org/ns#"
   xmlns:rdf="http://www.w3.org/1999/02/22-rdf-syntax-ns#"
   xmlns:svg="http://www.w3.org/2000/svg"
   xmlns="http://www.w3.org/2000/svg"
   xmlns:sodipodi="http://sodipodi.sourceforge.net/DTD/sodipodi-0.dtd"
   xmlns:inkscape="http://www.inkscape.org/namespaces/inkscape"
   version="1.1"
   id="svg2"
   width="820.80621"
   height="521.99182"
   viewBox="0 0 820.80621 521.99182"
   sodipodi:docname="National Party (Ireland) Logo.svg"
   inkscape:version="1.0.2 (e86c870879, 2021-01-15, custom)"
   inkscape:export-filename="F:\DATEN\FOTOS\00_Wiki\National Party (Ireland) Logo.png"
   inkscape:export-xdpi="108"
   inkscape:export-ydpi="108">
  <metadata
     id="metadata8">
    <rdf:RDF>
      <cc:Work
         rdf:about="">
        <dc:format>image/svg+xml</dc:format>
        <dc:type
           rdf:resource="http://purl.org/dc/dcmitype/StillImage" />
        <dc:title></dc:title>
      </cc:Work>
    </rdf:RDF>
  </metadata>
  <defs
     id="defs6" />
  <sodipodi:namedview
     pagecolor="#ffffff"
     bordercolor="#666666"
     borderopacity="1"
     objecttolerance="10"
     gridtolerance="10"
     guidetolerance="10"
     inkscape:pageopacity="0"
     inkscape:pageshadow="2"
     inkscape:window-width="1680"
     inkscape:window-height="988"
     id="namedview4"
     showgrid="false"
     fit-margin-top="0"
     fit-margin-left="0"
     fit-margin-right="0"
     fit-margin-bottom="0"
     inkscape:zoom="0.64803427"
     inkscape:cx="210.74969"
     inkscape:cy="371.20499"
     inkscape:window-x="-8"
     inkscape:window-y="-8"
     inkscape:window-maximized="1"
     inkscape:current-layer="g10" />
  <g
     inkscape:groupmode="layer"
     inkscape:label="Image"
     id="g10"
     transform="translate(-30.118105,-26.09357)">
    <path
       style="fill:#28493a;fill-opacity:1;stroke-width:1.60325"
       d="m 30.118105,548.08537 47.849029,-194.23117 23.327636,-23.00044 0.48349,-3.2212 -18.277607,8.16753 4.755335,-23.84452 63.960942,-45.89397 0.74612,-3.93795 -58.320454,26.12709 5.651804,-21.58247 100.44665,-67.67237 0.87647,-4.55286 -93.78767,42.6784 3.35966,-16.85198 93.53337,-56.41406 h 29.76414 L 337.71143,350.48059 384.43415,163.8554 h -81.0074 L 537.61167,26.09357 407.84504,548.08537 H 297.60968 L 192.08556,367.43425 146.85263,548.08537 Z m 427.301505,0 96.11406,-386.08753 103.54724,0.10597 c 96.90032,0.0992 104.32497,0.30491 115.66411,3.20495 48.69919,12.45516 78.2227,54.09606 78.17926,110.26678 -0.016,18.54335 -1.75668,30.38993 -7.30088,49.63657 -16.84871,58.4912 -69.16643,112.85949 -130.56639,135.68405 -25.47767,9.47096 -35.87896,10.90792 -78.86563,10.89551 -34.34005,-0.01 -38.27221,0.26112 -39.52459,2.72453 l -18.63315,73.56917 z M 728.97166,320.13709 c 1.837,-5.94744 2.81114,-12.6125 2.36704,-16.1941 -1.15434,-9.30665 -7.04276,-18.56746 -14.37906,-22.61444 -7.22264,-3.98421 -12.99242,-4.41508 -53.00287,-3.95823 l -24.24984,0.27688 -19.63841,79.29941 c 0,0.43238 15.70786,0.64109 34.90593,0.42379 l 32.01256,-0.36235 c 24.1878,0 38.07921,-24.93998 41.98465,-36.87096 z"
       id="path2400"
       sodipodi:nodetypes="cccccccccccccccccccccccccccssssscccccsssccscc" />
  </g>
</svg>
